{"glyphs":{"0":{"ha":785,"x_min":31,"x_max":806,"o":"m 786 346 q 652 78 765 185 q 371 -29 539 -29 q 119 82 207 -29 q 51 356 32 193 q 185 622 71 515 q 464 728 299 728 q 717 617 628 728 q 786 346 806 507 m 325 350 q 328 186 313 254 q 389 118 343 118 q 513 350 483 118 q 508 515 524 449 q 446 582 493 582 q 368 515 400 582 q 325 350 336 447 z "},"1":{"ha":397,"x_min":14,"x_max":382,"o":"m 378 726 l 381 719 l 293 7 q 286 0 292 1 l 18 0 l 14 4 l 14 7 q 72 483 72 482 q 74 558 79 528 q 63 600 69 588 q 49 622 57 613 q 40 633 42 631 q 47 650 38 643 q 76 661 56 657 l 378 726 z "},"2":{"ha":714,"x_min":15,"x_max":708,"o":"m 697 504 q 628 378 688 435 q 502 294 568 322 q 366 238 436 265 q 279 199 296 211 l 281 196 l 424 196 q 512 201 472 196 q 572 214 551 207 q 610 230 593 221 q 633 244 628 239 q 647 253 639 250 q 656 251 654 256 q 674 219 665 242 q 683 181 683 197 q 613 11 690 63 q 432 -22 536 -40 q 359 -8 428 -22 q 249 13 290 7 q 140 18 208 18 q 19 4 72 18 l 15 7 l 15 10 q 17 75 15 46 q 28 130 19 104 q 42 173 38 156 q 67 211 47 190 q 95 242 86 232 q 135 273 104 253 q 179 301 165 293 q 235 335 193 310 q 297 372 278 360 q 429 503 421 446 q 416 562 433 536 q 363 588 399 588 q 301 565 326 588 q 271 503 276 543 q 269 479 269 493 q 267 458 268 465 q 263 446 267 451 q 223 429 256 438 q 157 421 190 421 q 67 458 99 421 q 43 547 36 496 q 86 640 50 601 q 176 697 122 679 q 280 722 231 714 q 382 729 329 729 q 538 709 467 729 q 659 636 610 689 q 697 504 708 583 z "},"3":{"ha":744,"x_min":15,"x_max":733,"o":"m 733 694 q 728 651 732 686 q 722 596 725 615 q 710 547 719 576 q 686 499 700 518 q 610 434 663 465 q 518 388 558 403 l 478 372 l 476 371 q 634 301 571 357 q 685 150 697 244 q 610 -1 674 60 q 469 -83 546 -61 q 308 -104 393 -104 q 18 67 24 -104 q 59 167 15 122 q 161 213 103 213 q 258 176 240 213 q 258 167 260 174 q 254 148 257 161 q 250 122 251 135 q 264 61 244 83 q 317 39 283 39 q 380 67 351 39 q 413 135 408 96 q 391 222 418 183 q 282 260 364 260 l 235 260 l 231 264 l 231 267 q 244 378 239 342 q 247 383 244 383 q 499 506 483 500 q 65 482 261 521 q 57 488 60 481 q 53 505 56 489 q 53 547 51 521 q 63 602 56 574 q 94 660 71 631 q 156 708 118 690 q 258 731 197 731 q 385 719 319 732 q 540 700 451 707 q 725 700 628 693 q 733 694 732 700 z "},"4":{"ha":796,"x_min":15,"x_max":790,"o":"m 783 179 q 741 33 789 82 q 610 -14 693 -17 l 600 -108 q 593 -115 599 -114 l 336 -115 l 332 -114 q 332 -108 331 -112 q 344 6 339 -50 q 22 3 131 33 l 18 6 l 18 8 q 90 232 15 157 q 263 432 174 315 q 392 612 351 549 q 446 697 433 675 l 446 699 l 451 701 l 693 701 l 697 697 l 697 694 q 643 201 675 508 q 694 213 672 206 q 726 225 717 219 q 744 235 735 231 q 753 241 753 240 q 761 239 754 242 q 783 179 781 221 m 393 392 l 363 350 q 299 270 335 314 q 232 194 264 226 l 364 194 l 393 392 z "},"5":{"ha":754,"x_min":14,"x_max":757,"o":"m 499 476 l 269 521 l 257 394 q 583 364 460 432 q 689 149 707 296 q 643 28 681 79 q 551 -51 606 -24 q 437 -92 496 -79 q 317 -106 378 -106 q 221 -97 269 -106 q 122 -69 172 -87 q 44 -12 72 -50 q 21 76 15 26 q 69 169 28 132 q 168 206 110 206 q 233 197 201 206 q 267 179 264 188 q 261 115 269 174 q 274 57 256 76 q 325 38 292 38 q 385 66 358 38 q 417 133 411 94 q 401 215 422 185 q 306 260 379 244 q 94 258 233 276 l 86 258 q 81 265 81 258 l 89 332 l 108 489 q 126 638 125 631 q 144 694 133 683 q 204 700 156 704 q 302 699 225 699 q 419 700 379 699 q 594 717 518 703 q 696 738 669 731 q 729 739 722 746 q 751 679 749 721 q 681 511 757 561 q 499 476 606 461 z "},"6":{"ha":721,"x_min":33,"x_max":731,"o":"m 332 474 q 556 483 468 510 q 683 392 643 456 q 713 249 722 329 q 658 109 701 168 q 557 22 615 50 q 450 -17 499 -6 q 360 -29 401 -29 q 169 31 246 -28 q 63 184 93 89 q 49 397 33 279 q 188 697 72 578 q 467 815 303 817 q 658 755 586 814 q 721 632 729 696 q 678 545 715 579 q 579 513 642 511 q 518 522 547 513 q 486 538 489 531 q 485 552 485 547 q 488 571 485 557 q 492 594 490 585 q 447 674 503 674 q 373 619 400 675 q 332 474 346 564 m 374 135 q 438 178 415 135 q 461 257 460 221 q 433 344 467 317 q 318 353 400 372 q 374 135 292 135 z "},"7":{"ha":701,"x_min":13,"x_max":697,"o":"m 688 700 q 696 694 694 700 q 691 650 694 688 q 685 594 688 613 q 672 546 682 575 q 644 499 661 517 q 576 442 628 479 q 515 399 524 406 q 419 294 460 356 q 368 163 378 232 q 376 67 363 99 q 405 31 388 43 q 431 13 422 18 q 436 -4 440 7 q 365 -71 419 -39 q 256 -103 311 -103 q 117 -47 169 -103 q 78 110 65 10 q 350 446 99 293 l 349 446 q 461 506 444 500 q 28 474 256 519 q 21 479 22 474 q 15 523 17 483 q 36 621 13 563 q 118 708 60 679 q 221 731 160 731 q 348 719 282 732 q 502 700 414 707 q 688 700 590 693 z "},"8":{"ha":765,"x_min":29,"x_max":771,"o":"m 606 403 q 710 335 671 381 q 740 221 749 289 q 616 31 724 92 q 368 -31 508 -31 l 354 -31 q 122 31 214 -31 q 46 221 31 92 q 103 335 54 289 q 225 403 153 382 q 132 465 164 418 q 108 578 100 513 q 172 714 118 660 q 299 790 226 768 q 458 811 371 811 l 472 811 q 590 798 536 811 q 687 758 644 785 q 750 684 729 731 q 764 578 771 638 q 712 466 756 513 q 606 403 668 419 m 379 126 q 439 155 414 126 q 469 233 464 183 q 456 310 474 275 q 406 344 439 344 q 348 310 374 344 q 318 233 322 275 q 329 155 313 183 q 379 126 346 126 m 372 492 q 380 475 372 492 q 421 458 389 458 q 478 492 453 458 q 508 564 504 525 q 497 635 514 607 q 446 664 479 664 q 388 635 413 664 q 358 564 364 606 q 372 492 354 525 z "},"9":{"ha":718,"x_min":29,"x_max":728,"o":"m 396 732 q 646 613 565 732 q 704 311 726 493 q 572 7 681 117 q 294 -103 464 -103 q 104 -54 179 -103 q 35 67 29 -6 q 77 163 38 121 q 176 204 117 204 q 238 197 208 206 q 272 181 267 188 q 274 166 274 171 q 271 147 274 161 q 267 124 268 133 q 317 40 256 40 q 422 246 397 40 q 209 228 294 204 q 82 316 124 253 q 50 458 40 379 q 87 575 58 524 q 152 655 115 626 q 235 701 189 683 q 320 726 282 719 q 396 732 358 732 m 438 372 q 441 514 456 458 q 375 568 426 569 q 312 526 333 567 q 290 453 290 486 q 438 372 281 332 z "}," ":{"ha":275,"x_min":0,"x_max":0,"o":""},"!":{"ha":424,"x_min":28,"x_max":425,"o":"m 308 121 q 257 24 301 64 q 156 -17 213 -17 q 64 24 99 -17 q 36 121 29 64 q 88 217 43 178 q 189 257 133 257 q 281 217 246 257 q 308 121 315 176 m 414 840 q 385 683 404 768 q 337 512 365 597 q 269 370 308 426 q 190 314 231 314 q 137 362 156 314 q 115 487 118 410 q 115 624 113 564 q 122 743 117 685 q 122 846 128 810 q 106 901 117 882 q 85 927 96 921 q 68 939 74 933 q 67 954 63 944 q 137 1021 83 989 q 246 1053 190 1053 q 378 995 332 1053 q 414 840 425 938 z "},"\"":{"ha":625,"x_min":58,"x_max":592,"o":"m 317 885 q 250 690 304 786 q 158 594 196 594 q 90 691 121 594 q 72 885 60 788 q 163 1031 86 992 q 275 1022 225 1063 q 317 885 329 979 m 579 885 q 513 690 567 786 q 421 594 458 594 q 353 691 383 594 q 335 885 322 788 q 425 1031 349 992 q 538 1022 488 1063 q 579 885 592 979 z "},"#":{"ha":847,"x_min":28,"x_max":833,"o":"m 829 521 q 833 515 833 519 l 804 425 q 794 419 801 419 l 617 419 l 571 283 l 756 283 q 760 278 760 282 l 731 188 q 721 182 728 182 l 538 182 l 478 6 q 471 0 476 0 l 379 0 l 376 0 q 376 4 375 1 q 435 182 381 19 q 306 183 349 182 q 247 6 251 19 q 240 0 244 0 l 147 0 l 144 0 l 144 4 q 154 33 147 11 l 178 103 q 204 183 193 149 l 35 183 q 31 189 29 185 l 61 281 q 68 285 63 285 l 238 285 q 283 421 274 390 l 108 421 q 104 426 103 422 l 135 518 q 142 524 136 524 q 318 522 226 524 l 375 693 l 383 700 l 474 700 l 476 699 q 476 693 478 697 l 419 522 l 549 522 l 607 693 l 614 700 l 704 700 l 708 696 l 708 693 l 651 521 l 829 521 m 469 283 l 515 419 q 385 421 472 421 q 340 285 361 346 q 469 283 426 285 z "},"$":{"ha":739,"x_min":28,"x_max":726,"o":"m 708 196 q 626 53 697 107 q 451 -19 554 0 l 453 -106 q 447 -112 453 -111 l 365 -117 l 360 -112 l 360 -110 q 372 -29 365 -85 q 332 -31 358 -31 l 310 -31 l 303 -110 q 296 -117 301 -115 l 214 -112 l 210 -111 q 210 -106 208 -110 l 229 -22 q 85 37 140 -6 q 38 150 29 79 q 85 240 44 203 q 182 276 125 276 q 247 269 215 276 q 281 253 278 261 q 283 238 283 242 q 281 219 283 235 q 276 196 278 204 q 290 133 271 156 q 346 111 310 111 q 426 174 415 111 q 424 199 428 188 q 410 220 419 211 q 389 236 400 229 q 359 251 378 243 q 326 263 340 258 q 288 276 313 268 q 249 289 264 283 q 89 497 75 354 q 90 501 90 499 q 166 636 100 581 q 324 715 232 692 l 322 807 q 329 815 322 814 l 411 819 l 415 815 l 415 813 q 403 728 410 786 l 422 728 q 467 726 451 728 l 472 813 l 479 819 l 561 815 l 565 814 q 565 808 567 813 q 543 715 554 768 q 677 654 628 697 q 718 547 726 611 q 673 461 713 496 q 572 426 633 426 q 510 435 540 426 q 478 451 481 443 q 476 465 476 461 q 479 484 476 469 q 483 508 482 499 q 474 569 489 550 q 424 588 458 589 q 376 565 394 586 q 354 522 357 544 q 372 470 350 492 q 417 440 393 449 q 496 414 442 431 q 514 408 508 410 q 708 196 726 343 z "},"%":{"ha":1032,"x_min":29,"x_max":1024,"o":"m 881 718 l 883 715 q 882 713 883 714 q 613 288 663 372 q 558 157 564 203 q 559 100 554 129 q 567 59 564 71 q 565 33 571 47 q 466 -19 518 -6 q 374 -17 414 -32 q 309 28 335 -3 q 285 113 283 58 q 321 229 288 167 l 558 614 l 447 614 q 456 531 461 572 q 383 395 446 449 q 224 342 321 342 q 80 395 129 342 q 40 531 31 449 q 114 666 50 611 q 271 721 178 721 l 881 718 m 826 354 q 973 300 924 354 q 1011 164 1022 246 q 940 28 1001 82 q 781 -25 878 -25 q 636 28 686 -25 q 596 164 586 82 q 670 300 607 246 q 826 354 733 354 m 236 446 q 288 531 276 446 q 257 615 297 615 q 210 531 219 615 q 236 446 199 446 m 793 79 q 843 164 835 79 q 814 249 856 249 q 765 164 778 249 q 793 79 757 79 z "},"&":{"ha":936,"x_min":29,"x_max":919,"o":"m 867 125 q 885 114 882 125 q 878 89 888 103 q 661 -37 803 -37 q 503 78 536 -37 q 365 -15 450 14 q 206 -33 281 -43 q 81 31 131 -24 q 42 175 31 86 q 233 365 58 321 q 124 513 110 401 q 169 617 131 572 q 264 684 207 661 q 379 717 321 707 q 497 728 438 728 q 628 715 565 728 q 743 660 692 701 q 786 554 794 618 q 736 479 781 506 q 631 453 692 453 q 569 460 599 453 q 535 476 539 468 q 533 483 533 481 q 533 488 532 486 q 535 497 533 490 q 538 513 536 504 q 468 586 547 586 q 410 563 433 586 q 383 507 388 540 q 396 451 379 476 q 450 425 413 425 l 454 425 l 456 425 l 915 425 q 919 418 919 425 l 903 292 q 897 285 903 286 l 751 285 q 750 279 750 282 q 744 213 744 229 q 767 153 744 174 q 810 128 789 132 q 867 125 832 125 m 390 119 q 465 167 432 122 q 501 283 497 211 l 449 283 q 367 253 396 283 q 333 189 338 222 q 343 137 329 157 q 390 119 357 117 z "},"'":{"ha":288,"x_min":29,"x_max":285,"o":"m 278 913 q 209 765 267 824 q 101 690 151 707 q 60 680 75 681 q 40 683 44 679 q 38 693 36 686 q 64 725 39 706 q 101 804 140 790 q 48 851 67 819 q 35 921 29 882 q 81 1007 42 971 q 172 1043 121 1043 q 253 1006 222 1043 q 278 913 285 968 z "},"(":{"ha":400,"x_min":29,"x_max":396,"o":"m 233 379 q 214 53 213 186 q 226 -150 215 -79 l 238 -219 q 231 -246 240 -243 q 207 -228 221 -249 q 196 -215 203 -224 q 167 -176 189 -207 q 128 -112 144 -146 q 88 -24 111 -79 q 55 88 64 31 q 38 224 46 146 q 43 383 29 303 q 94 606 57 499 q 176 784 132 714 q 261 908 219 854 q 331 988 303 963 l 358 1013 q 393 1025 390 1044 q 389 1004 394 1018 q 359 934 378 981 q 298 726 340 888 q 233 379 256 564 z "},")":{"ha":381,"x_min":14,"x_max":371,"o":"m 167 379 q 189 726 189 588 q 178 935 189 865 l 165 1004 q 172 1031 163 1029 q 197 1013 182 1033 q 204 1004 200 1010 q 223 981 208 999 q 250 941 238 963 q 281 885 263 919 q 313 815 300 851 q 340 730 325 779 q 359 629 354 681 q 367 514 364 578 q 358 383 369 450 q 308 169 344 272 q 228 0 271 67 q 143 -117 185 -67 q 75 -192 101 -168 l 47 -214 q 14 -225 17 -246 l 18 -206 q 47 -139 29 -183 q 106 57 65 -94 q 167 379 146 208 z "},"*":{"ha":525,"x_min":31,"x_max":515,"o":"m 401 910 q 469 910 444 924 q 504 874 494 897 q 498 823 514 850 q 443 783 482 796 q 356 772 399 769 q 419 711 396 742 q 440 647 446 674 q 416 603 435 619 q 366 593 397 586 q 311 633 335 600 q 272 717 286 668 q 233 633 260 674 q 178 593 210 600 q 128 603 147 586 q 104 647 110 619 q 125 711 99 674 q 189 772 151 746 q 101 783 146 769 q 47 823 63 796 q 40 874 31 850 q 75 910 50 897 q 143 910 100 924 q 224 865 183 896 q 206 957 206 917 q 239 1033 206 1011 q 306 1033 272 1056 q 339 957 339 1011 q 322 867 339 914 q 401 910 357 894 z "},"+":{"ha":656,"x_min":28,"x_max":628,"o":"m 621 418 q 628 413 626 418 l 613 293 q 607 289 613 289 l 386 289 q 373 183 382 257 q 358 69 364 108 l 354 63 l 231 63 q 225 68 225 63 q 253 289 226 81 l 35 289 q 28 294 29 289 l 43 411 q 50 418 43 418 l 268 418 l 297 636 q 303 643 297 642 l 424 643 q 429 636 429 643 q 401 418 417 544 l 621 418 z "},",":{"ha":315,"x_min":28,"x_max":313,"o":"m 306 89 q 275 -9 299 35 q 218 -80 251 -53 q 158 -122 185 -107 q 108 -146 132 -137 q 61 -157 78 -156 q 40 -154 44 -158 q 38 -142 36 -150 q 65 -107 39 -128 q 108 -18 151 -33 q 49 33 69 -1 q 35 111 29 68 q 87 206 42 168 q 188 240 132 244 q 281 194 249 236 q 306 89 313 153 z "},"-":{"ha":499,"x_min":28,"x_max":471,"o":"m 469 413 l 454 290 q 449 286 454 286 l 35 286 l 28 292 l 43 411 q 51 418 44 418 l 464 418 q 469 413 469 417 z "},".":{"ha":331,"x_min":28,"x_max":315,"o":"m 308 111 q 256 15 301 56 q 154 -25 211 -25 q 64 15 99 -25 q 36 111 29 54 q 87 207 42 167 q 189 247 132 247 q 280 208 244 247 q 308 111 315 168 z "},"/":{"ha":453,"x_min":-124,"x_max":581,"o":"m 7 -237 l -3 -243 l -119 -243 l -124 -242 q -122 -237 -124 -240 l 449 999 q 452 1003 450 1001 q 457 1006 454 1006 l 458 1006 l 575 1006 l 578 1004 q 576 999 579 1003 q 7 -237 38 -167 z "},":":{"ha":361,"x_min":29,"x_max":360,"o":"m 353 482 q 301 385 346 425 q 200 346 256 346 q 108 386 143 346 q 81 482 74 426 q 133 578 88 539 q 233 618 178 618 q 325 578 290 618 q 353 482 360 538 m 307 111 q 255 15 300 54 q 154 -25 210 -25 q 64 15 99 -25 q 36 111 29 54 q 86 207 42 167 q 188 247 131 247 q 279 207 244 247 q 307 111 314 167 z "},";":{"ha":363,"x_min":28,"x_max":358,"o":"m 351 482 q 301 386 346 426 q 199 346 256 346 q 108 385 143 346 q 79 482 72 425 q 131 578 86 539 q 232 618 176 618 q 324 578 289 618 q 351 482 358 538 m 306 89 q 274 -8 299 36 q 217 -80 250 -53 q 158 -122 183 -107 q 108 -146 132 -137 q 61 -157 78 -156 q 40 -154 44 -158 q 38 -142 36 -150 q 65 -107 39 -128 q 108 -18 151 -33 q 50 32 71 -3 q 33 111 29 67 q 85 206 40 168 q 185 240 129 244 q 278 194 243 236 q 306 89 313 151 z "},"=":{"ha":707,"x_min":28,"x_max":681,"o":"m 678 517 l 664 394 q 657 390 663 390 l 63 390 q 57 396 58 392 l 71 515 q 81 522 74 522 l 674 522 q 678 517 679 521 m 649 281 l 635 158 q 628 154 633 154 l 33 154 q 28 160 29 156 l 42 279 q 51 286 44 286 l 644 286 q 649 281 650 285 z "},"?":{"ha":624,"x_min":29,"x_max":640,"o":"m 348 208 q 366 188 348 208 q 376 111 383 168 q 324 14 369 54 q 222 -26 279 -26 q 131 14 165 -26 q 104 111 97 54 q 155 207 110 167 q 257 247 200 247 q 348 208 313 247 m 414 515 q 369 429 399 490 q 315 336 340 368 q 258 304 290 304 q 190 375 213 304 q 183 519 167 446 q 282 691 200 593 q 369 833 364 789 q 367 881 375 858 q 329 903 358 903 q 263 818 275 903 q 260 790 260 804 q 261 763 261 776 q 257 744 261 749 q 215 726 250 736 q 147 718 179 715 q 58 767 86 724 q 39 863 31 810 q 138 988 49 938 q 358 1039 228 1039 q 568 968 496 1039 q 631 811 640 897 q 591 720 625 764 q 501 620 557 676 q 414 515 446 564 z "},"@":{"ha":1026,"x_min":26,"x_max":1000,"o":"m 725 83 q 654 97 686 83 q 604 134 622 111 q 578 170 586 157 q 565 196 571 183 q 414 88 510 88 q 277 167 328 88 q 226 350 226 246 q 277 533 226 457 q 418 610 328 610 q 563 518 511 610 l 563 585 l 567 590 l 760 590 q 764 586 764 590 l 757 289 q 811 228 764 228 q 873 273 847 228 q 899 383 899 318 q 876 510 899 449 q 808 626 853 572 q 688 712 764 679 q 515 744 611 744 q 235 624 343 744 q 128 344 128 503 q 165 165 128 243 q 262 42 203 86 q 386 -24 321 -3 q 515 -46 451 -46 q 668 -29 599 -46 q 764 -2 738 -12 q 793 1 790 8 q 788 -17 794 -3 q 761 -51 781 -31 q 711 -89 742 -71 q 628 -119 681 -107 q 511 -132 575 -132 q 167 8 307 -132 q 28 349 28 149 q 167 689 28 549 q 511 829 307 829 q 860 705 721 829 q 997 381 1000 581 q 912 166 996 249 q 725 83 828 83 m 442 256 q 452 238 442 256 q 496 219 461 219 q 549 256 531 219 q 568 350 568 293 q 549 444 568 407 q 496 481 531 481 q 442 444 461 481 q 424 350 424 407 q 442 256 424 293 z "},"A":{"ha":1397,"x_min":18,"x_max":1424,"o":"m 1418 1014 l 1424 1006 q 1318 6 1349 554 q 1313 0 1318 0 l 988 0 l 983 6 l 1025 315 l 863 315 q 426 -29 676 -10 q 244 -10 326 -36 q 112 65 161 17 q 41 177 63 114 q 32 306 19 240 q 112 441 50 396 q 253 486 174 486 q 365 460 308 486 q 414 408 421 433 q 478 257 365 268 q 651 360 556 249 q 819 624 746 472 q 935 921 892 775 q 751 924 821 935 q 644 890 682 913 q 593 837 606 868 q 583 781 581 806 q 599 739 586 756 q 626 715 610 726 q 651 699 643 704 q 656 679 658 693 q 633 639 653 665 q 563 585 611 608 q 444 558 514 563 q 304 594 375 553 q 200 738 228 638 q 214 917 172 839 q 369 1049 267 1013 q 638 1086 471 1086 q 812 1080 713 1086 q 1010 1063 911 1074 q 1187 1043 1110 1053 q 1338 1024 1264 1033 q 1418 1014 1413 1015 m 1092 883 q 950 493 1017 644 l 1049 493 l 1100 881 q 1098 892 1101 892 q 1092 883 1094 892 z "},"B":{"ha":1375,"x_min":17,"x_max":1356,"o":"m 1196 564 q 1317 458 1279 531 q 1344 307 1356 385 q 1252 113 1328 190 q 1076 4 1176 35 q 860 -18 975 -26 q 702 18 769 -11 q 597 91 635 47 q 535 192 558 135 q 511 313 513 250 q 517 440 510 375 q 583 921 551 681 q 425 865 468 914 q 405 808 406 844 q 422 746 404 772 q 449 721 432 732 q 472 703 465 710 q 476 683 479 697 q 454 643 474 668 q 384 590 432 614 q 263 567 336 567 q 125 610 189 567 q 31 765 44 665 q 68 935 17 864 q 660 1085 178 1101 q 1191 989 1032 1072 q 1340 769 1350 906 q 1320 694 1336 729 q 1284 637 1304 658 q 1244 600 1264 615 q 1210 578 1224 585 l 1196 572 q 1196 564 1186 567 m 1043 322 q 997 457 1056 418 q 835 469 938 496 l 817 329 q 910 154 793 149 q 999 203 965 157 q 1043 322 1033 249 m 1049 768 q 1017 876 1063 840 q 892 910 972 913 l 858 635 q 1049 768 1031 629 z "},"C":{"ha":1446,"x_min":15,"x_max":1469,"o":"m 1425 763 q 1372 688 1406 717 q 1296 651 1339 660 q 1209 642 1253 642 q 1110 656 1165 642 q 1014 683 1056 669 q 918 717 972 696 q 878 613 894 675 q 861 497 861 551 q 913 292 861 369 q 1042 197 965 214 q 1207 201 1119 179 q 1367 282 1294 224 q 1393 279 1394 303 q 1385 250 1392 268 q 1362 201 1378 229 q 1310 133 1346 174 q 1229 60 1274 93 q 1114 3 1185 28 q 963 -22 1043 -21 q 640 131 760 -26 q 543 508 519 289 q 656 799 557 647 q 494 813 576 826 q 396 736 413 800 q 410 659 386 700 q 431 611 435 618 q 352 531 407 560 q 228 508 297 503 q 78 580 133 518 q 19 735 22 642 q 160 950 15 872 q 775 926 381 1065 q 1118 1029 926 1029 q 1376 949 1282 1031 q 1425 763 1469 867 m 1168 829 q 1136 872 1182 861 q 1004 846 1074 888 q 990 836 997 842 q 1061 812 1025 821 q 1128 806 1097 803 q 1168 829 1160 808 z "},"D":{"ha":1296,"x_min":15,"x_max":1294,"o":"m 564 1046 q 852 996 724 1038 q 1062 895 981 954 q 1197 760 1143 836 q 1272 610 1250 683 q 1294 464 1294 538 q 1256 259 1294 356 q 1151 97 1218 163 q 999 -1 1083 32 q 812 -15 914 -33 q 613 74 710 3 q 606 68 610 72 q 599 63 601 64 q 458 -7 538 11 q 354 -22 406 -22 q 142 47 231 -22 q 64 225 53 115 q 103 317 69 276 q 192 380 138 358 q 326 386 246 401 q 494 315 407 371 q 554 900 567 554 q 453 879 492 903 q 406 822 415 856 q 401 756 397 788 q 421 706 406 724 q 449 679 432 692 q 469 661 465 667 q 469 642 474 656 q 443 603 464 629 q 373 550 421 574 q 251 526 325 526 q 114 569 178 526 q 29 722 40 621 q 118 939 15 849 q 564 1046 260 1063 m 315 211 q 340 174 314 188 q 401 170 365 160 q 460 218 436 181 q 385 249 419 244 q 334 242 351 254 q 315 211 317 231 m 713 204 q 926 290 839 168 q 1004 556 1004 400 q 906 806 1003 725 q 860 835 885 824 q 713 204 835 421 z "},"E":{"ha":1319,"x_min":17,"x_max":1347,"o":"m 1104 757 q 860 806 1029 757 q 845 690 856 772 q 831 582 835 607 l 1060 582 l 1067 578 l 1067 575 l 1049 436 q 1040 429 1049 429 l 811 429 q 799 329 799 331 q 853 218 790 251 q 1003 196 917 185 q 1158 247 1090 207 q 1187 249 1179 260 q 1186 214 1194 239 q 1151 145 1178 183 q 1080 66 1125 107 q 961 0 1035 25 q 803 -21 888 -25 q 553 95 633 -12 q 493 357 474 203 l 560 889 l 558 889 q 460 869 499 892 q 411 813 422 846 q 403 749 400 781 q 421 703 406 718 q 447 678 431 689 q 471 660 464 667 q 475 640 478 654 q 453 600 472 625 q 381 547 429 571 q 260 524 333 524 q 124 567 188 524 q 30 722 43 622 q 67 892 17 821 q 162 976 99 942 q 284 1024 225 1010 q 421 1042 343 1038 q 532 1047 499 1047 q 604 1043 565 1046 q 799 1028 658 1040 q 1008 1012 940 1015 q 1160 1019 1075 1008 q 1288 1060 1244 1029 q 1324 1028 1310 1074 q 1311 876 1346 956 q 1104 757 1258 756 z "},"F":{"ha":1239,"x_min":15,"x_max":1260,"o":"m 1204 1053 q 1238 1019 1225 1067 q 1225 858 1258 943 q 1032 735 1175 733 q 806 790 963 736 q 795 704 804 776 q 781 583 786 632 l 1008 583 l 1015 581 l 1015 575 l 997 428 q 994 423 997 425 q 989 421 992 421 l 988 421 l 761 421 l 710 7 q 701 0 708 0 l 400 0 l 396 1 q 396 7 394 3 l 526 881 q 519 882 524 882 q 428 862 464 885 q 381 806 392 839 q 374 741 371 772 q 390 694 376 710 q 415 669 400 681 q 438 653 431 658 q 442 633 444 647 q 421 593 439 618 q 353 540 399 564 q 240 515 308 515 q 111 560 171 515 q 38 656 60 597 q 22 775 15 715 q 58 885 28 835 q 127 958 83 928 q 224 1004 171 989 q 326 1028 278 1019 q 430 1038 374 1038 q 510 1038 486 1039 q 563 1036 533 1038 q 746 1021 614 1033 q 941 1005 878 1008 q 1084 1012 1004 1001 q 1204 1053 1164 1022 z "},"G":{"ha":1453,"x_min":15,"x_max":1472,"o":"m 1117 1029 q 1376 949 1281 1031 q 1424 763 1471 867 q 917 717 1332 558 q 876 613 893 675 q 860 497 860 551 q 913 303 860 379 q 1043 197 965 226 l 1083 488 l 1090 494 l 1378 494 l 1382 489 l 1382 486 l 1357 322 l 1318 8 q 1311 1 1317 1 q 1185 15 1229 19 q 1072 -6 1142 10 q 961 -22 1001 -22 q 639 134 758 -22 q 542 508 519 290 q 656 799 556 650 q 494 813 576 826 q 394 736 413 800 q 397 682 386 708 q 422 638 408 656 q 431 611 435 619 q 351 531 406 560 q 228 508 296 503 q 77 580 132 518 q 19 735 22 642 q 160 950 15 874 q 775 926 379 1067 q 1117 1029 926 1029 m 1168 829 q 1136 872 1182 861 q 1004 846 1074 888 l 989 836 q 1060 812 1025 821 q 1127 806 1096 803 q 1168 829 1158 808 z "},"H":{"ha":1392,"x_min":15,"x_max":1413,"o":"m 1406 992 l 1410 990 q 1410 985 1411 989 l 1289 7 q 1281 0 1288 0 l 993 0 l 989 1 q 989 7 988 3 l 1040 407 l 803 407 l 754 7 q 746 0 753 0 l 460 0 l 456 1 q 456 7 454 3 l 576 911 q 479 906 524 921 q 414 862 435 890 q 390 799 393 833 q 415 736 386 765 q 442 711 425 722 q 465 694 458 700 q 469 673 472 688 q 447 633 467 658 q 376 581 424 604 q 255 557 328 557 q 118 600 182 557 q 40 697 64 638 q 22 816 15 756 q 61 925 28 876 q 190 1035 110 996 q 360 1078 269 1075 q 535 1075 450 1082 q 702 1046 621 1068 q 821 1011 783 1024 q 876 992 858 999 l 878 992 l 882 990 q 882 985 883 989 l 832 607 l 1065 607 l 1108 985 q 1117 992 1110 992 l 1406 992 z "},"I":{"ha":864,"x_min":15,"x_max":885,"o":"m 878 992 l 882 990 q 882 985 883 989 l 761 7 q 753 0 760 0 l 451 0 l 447 1 q 447 7 446 3 q 576 911 533 586 q 479 906 524 921 q 414 862 435 890 q 390 799 393 833 q 415 736 386 765 q 442 711 425 722 q 465 694 458 700 q 469 673 472 688 q 447 633 467 658 q 377 581 425 604 q 256 557 329 557 q 118 600 182 557 q 40 697 64 638 q 22 816 15 756 q 61 925 28 876 q 190 1035 110 996 q 360 1078 269 1075 q 535 1075 450 1082 q 702 1046 621 1068 q 821 1011 783 1024 q 876 992 858 999 l 878 992 z "},"J":{"ha":864,"x_min":14,"x_max":882,"o":"m 878 990 l 882 983 l 794 289 q 666 -67 765 53 q 411 -187 567 -187 q 204 -119 282 -187 q 135 38 126 -51 q 198 167 143 125 q 322 210 253 210 q 393 201 358 210 q 431 185 428 193 q 431 167 433 179 q 420 131 428 156 q 408 86 413 106 q 431 -11 392 18 q 493 -3 464 -35 q 517 54 511 17 q 506 174 524 103 q 494 300 488 246 l 576 910 q 479 904 524 919 q 414 860 435 889 q 390 798 393 832 q 415 735 386 764 q 442 710 425 721 q 465 692 458 699 q 469 672 472 686 q 447 632 467 657 q 377 579 425 603 q 256 556 329 556 q 118 600 182 556 q 40 695 64 636 q 22 815 15 754 q 61 924 28 875 q 224 1047 119 1008 q 428 1082 329 1085 q 640 1057 528 1079 q 801 1018 751 1035 q 876 990 850 1001 l 878 990 z "},"K":{"ha":1344,"x_min":14,"x_max":1346,"o":"m 1333 146 q 1331 102 1346 142 q 1269 21 1315 63 q 1164 -28 1224 -21 q 950 42 1022 -43 q 860 290 878 126 q 851 435 856 318 q 813 429 846 433 l 761 7 q 753 0 760 0 l 457 0 l 453 1 q 453 7 451 3 q 518 487 460 78 q 578 910 576 896 q 481 904 525 919 q 415 860 436 889 q 390 797 394 831 q 415 733 386 763 q 442 708 425 719 q 465 692 458 697 q 469 672 472 686 q 447 632 467 657 q 398 592 431 611 q 321 561 365 574 q 222 557 276 549 q 118 599 167 565 q 40 695 64 636 q 22 815 15 754 q 61 924 28 875 q 218 1044 117 1006 q 416 1081 319 1082 q 623 1059 513 1081 q 785 1022 733 1038 q 874 992 838 1006 l 876 990 l 878 990 l 882 989 q 882 983 883 988 l 832 578 q 931 618 886 578 q 999 714 976 658 q 1021 833 1022 769 q 986 940 1019 896 q 1001 971 978 950 q 1067 1009 1024 992 q 1154 1026 1111 1026 q 1288 964 1240 1026 q 1325 813 1336 901 q 1079 507 1300 615 q 1085 473 1081 496 q 1108 400 1090 450 q 1152 306 1126 350 q 1226 215 1178 261 q 1333 146 1274 169 z "},"L":{"ha":1046,"x_min":15,"x_max":1054,"o":"m 974 297 q 1006 284 988 301 q 1039 230 1025 267 q 1049 149 1053 193 q 806 -32 1032 -32 q 696 -17 756 -32 q 593 13 636 -1 q 486 25 550 28 q 354 -7 422 22 l 350 -6 q 350 0 349 -4 l 476 907 q 384 892 424 914 q 339 836 344 869 q 358 771 333 803 q 381 750 367 760 q 401 735 394 740 q 404 719 407 731 q 385 686 401 707 q 325 641 365 661 q 223 620 285 621 q 107 657 161 619 q 27 788 39 704 q 60 932 15 872 q 155 1015 96 985 q 279 1053 214 1046 q 415 1056 344 1060 q 549 1039 486 1053 q 664 1010 613 1025 q 744 985 715 996 l 775 974 l 781 969 l 781 967 l 729 581 l 685 224 q 757 222 724 219 q 819 230 790 224 q 872 244 849 236 q 915 263 896 253 q 947 280 935 272 q 967 292 958 288 l 974 297 z "},"M":{"ha":1883,"x_min":18,"x_max":1910,"o":"m 1903 968 l 1907 967 q 1908 961 1910 965 l 1790 7 q 1788 2 1790 4 q 1782 0 1785 0 l 1781 0 l 1474 0 l 1469 1 q 1468 7 1467 3 l 1558 529 l 1596 647 l 1589 647 q 1485 433 1560 593 q 1349 139 1410 272 l 1288 6 q 1269 0 1285 0 l 931 0 l 926 6 l 1014 732 q 1012 744 1015 743 q 1006 736 1008 744 q 951 565 975 636 q 894 410 928 493 q 830 269 861 326 q 755 155 799 213 q 664 62 711 97 q 556 2 617 26 q 426 -28 496 -22 q 244 -8 326 -35 q 112 67 161 18 q 41 178 63 115 q 32 307 19 242 q 117 442 50 397 q 264 488 183 488 q 342 475 300 488 q 410 444 383 463 q 432 410 436 426 q 489 258 383 269 q 611 315 547 253 q 729 483 675 378 q 827 699 783 588 q 904 922 871 810 q 724 926 790 938 q 623 892 657 914 q 582 838 589 869 q 581 782 575 807 q 599 740 586 757 q 626 717 610 728 q 651 700 643 706 q 656 681 658 694 q 633 640 653 667 q 563 587 611 610 q 445 558 514 564 q 304 594 376 553 q 200 740 228 639 q 214 918 172 840 q 369 1051 267 1014 q 638 1088 471 1088 q 850 1078 729 1088 q 1058 1056 971 1068 q 1235 1032 1144 1044 q 1335 1018 1325 1019 l 1340 1010 q 1254 304 1290 710 l 1597 982 l 1608 989 l 1903 968 z "},"N":{"ha":1410,"x_min":15,"x_max":1438,"o":"m 1431 993 l 1436 989 l 1436 986 l 1313 7 q 1304 0 1313 0 l 1049 0 q 1040 7 1043 -1 l 817 586 l 815 471 l 771 7 q 763 0 769 0 l 465 0 l 461 1 q 460 7 458 3 l 517 424 q 521 457 518 432 q 526 497 524 482 q 550 665 536 564 q 572 826 564 767 q 583 911 581 886 q 487 906 532 921 q 422 861 442 890 q 397 798 401 832 q 422 736 393 764 q 449 711 432 722 q 474 694 467 700 q 478 673 481 688 q 456 633 475 658 q 384 581 432 604 q 263 557 336 557 q 125 600 189 557 q 31 756 44 657 q 69 925 17 856 q 233 1050 128 1011 q 448 1082 339 1089 q 657 1056 557 1075 q 821 1014 757 1038 l 885 992 q 1092 458 936 897 l 1094 592 l 1135 986 q 1142 993 1135 992 l 1431 993 z "},"O":{"ha":1014,"x_min":19,"x_max":1040,"o":"m 1021 465 q 840 101 994 246 q 468 -32 686 -43 q 137 138 254 -21 q 46 515 19 297 q 228 880 74 733 q 597 1015 383 1026 q 844 930 740 1008 q 994 729 949 851 q 1021 465 1039 607 m 365 499 q 365 333 358 415 q 406 188 372 250 q 488 124 439 126 q 624 233 564 119 q 701 482 685 346 q 702 651 710 568 q 661 795 694 733 q 578 860 628 857 q 443 749 504 864 q 365 499 382 635 z "},"P":{"ha":1303,"x_min":14,"x_max":1311,"o":"m 667 1078 q 959 1049 835 1076 q 1149 985 1083 1022 q 1253 894 1215 947 q 1301 801 1292 842 q 1308 714 1310 760 q 1291 619 1307 667 q 1238 522 1275 572 q 1147 435 1201 472 q 1006 375 1093 397 q 813 357 919 353 l 810 356 l 767 7 q 760 0 765 1 l 461 0 l 456 4 l 456 7 l 528 526 l 575 919 q 422 853 468 915 q 415 739 375 790 q 443 714 426 725 q 467 697 460 703 q 470 676 474 690 q 447 636 467 661 q 378 583 425 607 q 258 560 331 560 q 118 604 185 560 q 22 761 28 664 q 142 965 15 879 q 667 1078 314 1082 m 1013 713 q 984 843 1019 792 q 882 901 949 894 l 829 500 q 958 563 908 500 q 1013 713 1007 626 z "},"Q":{"ha":1003,"x_min":19,"x_max":1031,"o":"m 932 44 q 971 29 947 50 q 1013 -35 994 8 q 1028 -125 1031 -78 q 985 -242 1024 -193 q 889 -308 947 -290 q 765 -318 831 -325 q 628 -265 699 -311 q 507 -140 558 -218 q 450 -46 474 -93 q 438 -46 446 -44 q 89 31 193 -79 q 47 193 21 101 q 160 310 71 276 q 268 325 208 329 q 542 158 424 313 q 615 294 585 203 q 657 483 646 385 q 662 651 664 569 q 632 795 660 733 q 554 861 604 857 q 455 809 493 868 q 400 654 417 750 q 397 553 392 590 q 409 488 401 515 q 415 456 417 461 q 354 403 406 431 q 242 378 303 375 q 176 395 208 379 q 115 444 144 411 q 77 531 86 478 q 82 660 68 583 q 249 919 115 807 q 572 1017 382 1032 q 884 841 772 1000 q 971 467 996 682 q 867 183 951 308 q 653 4 782 58 q 771 -40 701 -40 q 833 -32 804 -40 q 878 -11 861 -24 q 906 13 894 1 q 924 35 918 25 q 932 44 931 44 m 339 107 q 367 105 354 104 q 388 107 381 106 l 396 108 q 360 149 385 129 q 318 169 336 168 q 288 150 289 172 q 324 111 288 125 l 339 107 z "},"R":{"ha":1310,"x_min":15,"x_max":1324,"o":"m 1315 138 q 1308 97 1324 135 q 1249 17 1293 58 q 1146 -31 1206 -24 q 971 12 1040 -43 q 875 160 901 67 q 854 379 849 254 q 835 380 849 379 q 814 381 821 381 l 768 8 q 763 0 768 1 l 468 0 q 461 8 461 0 q 581 919 496 235 q 424 853 474 915 q 417 739 375 790 q 444 714 428 725 q 468 697 461 703 q 472 676 475 690 q 449 636 468 661 q 378 583 425 607 q 258 560 332 560 q 119 604 185 560 q 24 761 32 663 q 135 967 15 881 q 668 1078 307 1092 q 957 1043 833 1071 q 1148 978 1081 1015 q 1255 890 1215 940 q 1306 799 1294 840 q 1315 714 1317 758 q 1251 542 1311 626 q 1072 414 1192 457 q 1165 253 1096 331 q 1315 138 1235 176 m 883 901 l 831 513 q 958 572 910 513 q 1013 718 1006 632 q 983 851 1019 799 q 883 901 947 903 z "},"S":{"ha":1435,"x_min":4,"x_max":1458,"o":"m 1418 751 q 1299 642 1389 669 q 1115 633 1210 615 q 932 693 1019 650 q 953 650 933 671 q 1008 611 972 629 q 1072 582 1043 593 q 1143 556 1100 571 q 1413 254 1438 454 q 1353 113 1403 172 q 1229 22 1303 53 q 1077 -22 1156 -8 q 917 -32 999 -35 q 789 -16 851 -29 q 665 24 726 -3 q 568 101 604 51 q 535 218 532 151 q 588 334 538 283 q 721 385 638 385 q 814 363 768 385 q 868 328 860 342 q 868 313 869 319 q 862 288 867 306 q 856 256 857 269 q 899 149 847 182 q 1011 140 951 117 q 1081 226 1071 164 q 1073 277 1083 254 q 1033 322 1063 300 q 980 356 1003 343 q 907 391 957 368 q 836 425 857 414 q 688 511 722 482 q 604 706 596 586 q 626 794 606 749 q 478 807 549 825 q 389 724 407 789 q 392 671 381 697 q 416 626 403 644 q 425 599 429 607 q 342 519 401 549 q 222 496 283 490 q 90 542 143 503 q 21 635 38 581 q 11 747 4 689 q 56 856 18 804 q 153 938 94 908 q 733 918 379 1047 q 1083 1018 865 1021 q 1353 935 1250 1014 q 1418 751 1457 857 m 1135 818 q 1096 857 1144 846 q 982 844 1032 871 q 958 826 967 836 q 1031 801 996 811 q 1097 794 1065 792 q 1135 818 1128 797 z "},"T":{"ha":1399,"x_min":18,"x_max":1403,"o":"m 1160 1119 q 1228 1131 1190 1133 q 1299 1110 1265 1128 q 1360 1063 1333 1093 q 1394 989 1386 1032 q 1390 892 1403 946 q 1320 792 1372 825 q 1194 760 1268 758 q 1048 776 1119 761 q 897 821 976 792 l 807 7 q 799 0 806 0 l 497 0 l 493 1 q 493 7 492 3 l 611 907 q 481 913 542 929 q 403 839 419 897 q 406 785 394 811 q 430 740 417 758 q 439 714 443 722 q 356 635 415 664 q 236 611 297 606 q 104 656 157 618 q 35 749 51 694 q 25 861 18 803 q 70 972 32 919 q 167 1053 108 1024 q 387 1102 268 1103 q 600 1074 506 1101 q 822 1022 694 1046 q 1051 1007 949 997 q 1117 1028 1093 1011 q 1144 1065 1140 1046 q 1151 1100 1149 1083 q 1160 1119 1154 1117 z "},"U":{"ha":1397,"x_min":15,"x_max":1418,"o":"m 1413 990 q 1417 983 1417 989 q 1335 340 1356 529 q 1139 39 1313 143 q 811 -29 989 -50 q 551 108 636 -8 q 500 336 483 203 l 500 338 l 571 908 q 475 903 518 918 q 411 859 432 888 q 390 796 390 831 q 415 733 389 761 q 442 708 425 719 q 465 691 458 697 q 469 670 472 685 q 447 631 467 656 q 376 578 424 601 q 255 554 328 554 q 118 597 182 554 q 40 694 64 635 q 22 813 15 753 q 61 922 28 874 q 224 1045 119 1007 q 430 1081 329 1083 q 642 1056 531 1078 q 803 1017 753 1033 q 879 989 854 1000 l 885 985 l 885 982 l 800 265 q 799 263 799 264 q 850 154 789 182 q 957 167 906 129 q 1011 264 1003 201 l 1100 982 q 1107 990 1100 989 l 1413 990 z "},"V":{"ha":1415,"x_min":17,"x_max":1442,"o":"m 1219 1033 q 1385 921 1329 1033 q 1413 576 1442 808 q 1379 404 1401 486 q 1315 240 1357 322 q 1217 99 1274 158 q 1077 3 1161 40 q 892 -33 993 -33 q 740 -8 811 -33 q 614 66 669 17 q 531 199 558 115 q 517 389 504 282 q 582 907 518 389 q 565 911 574 911 q 472 906 513 921 q 412 863 431 890 q 395 799 393 835 q 424 736 397 764 q 450 711 433 722 q 474 694 467 700 q 478 674 481 689 q 456 635 475 660 q 384 581 432 606 q 263 557 336 557 q 125 601 189 557 q 31 757 44 658 q 69 926 17 856 q 181 1026 113 989 q 326 1074 250 1064 q 483 1082 401 1085 q 638 1063 565 1079 q 769 1032 711 1047 q 863 1004 828 1017 l 897 992 l 901 992 l 906 981 l 826 339 q 838 205 817 256 q 911 154 858 154 q 1023 234 971 154 q 1093 468 1075 314 q 1096 672 1108 592 q 1061 791 1083 753 q 1019 853 1039 829 q 1001 888 1000 878 q 1070 979 1006 925 q 1219 1033 1135 1033 z "},"W":{"ha":1872,"x_min":15,"x_max":1899,"o":"m 1678 1032 q 1843 919 1788 1032 q 1869 575 1899 807 q 1837 403 1858 485 q 1774 239 1815 321 q 1676 99 1732 157 q 1538 3 1621 40 q 1353 -33 1454 -33 q 1082 103 1163 -33 q 808 -32 989 -32 q 573 88 653 -32 q 515 382 493 208 l 579 906 q 565 908 571 908 q 472 903 513 918 q 412 860 431 888 q 395 797 393 832 q 424 733 397 761 q 450 708 433 719 q 474 692 467 697 q 478 672 481 686 q 456 632 475 657 q 384 578 432 603 q 263 554 336 554 q 125 599 189 554 q 31 754 44 656 q 69 924 17 853 q 230 1044 126 1007 q 433 1081 333 1082 q 645 1058 533 1079 q 810 1019 757 1036 q 894 990 864 1003 q 903 979 904 990 l 817 275 q 860 154 806 181 q 956 179 907 133 q 1010 299 1000 224 l 1093 981 l 1100 990 l 1390 990 l 1394 979 l 1313 315 q 1386 139 1292 139 q 1487 223 1443 139 q 1551 467 1531 307 q 1553 671 1567 590 q 1518 790 1540 751 q 1476 852 1496 828 q 1458 886 1457 876 q 1528 978 1463 924 q 1678 1032 1593 1032 z "},"X":{"ha":1064,"x_min":1,"x_max":1071,"o":"m 967 7 q 963 0 971 0 l 588 0 q 579 7 581 0 l 429 374 q 365 296 383 340 q 353 212 346 251 q 372 143 360 172 q 396 101 383 114 q 394 81 400 96 q 372 47 388 65 q 333 10 356 28 q 278 -19 311 -7 q 208 -31 244 -31 q 60 34 118 -31 q 7 190 1 99 q 115 395 13 297 q 367 536 218 493 l 142 985 q 150 994 139 994 l 501 994 q 507 992 504 994 q 511 989 510 990 l 511 986 l 656 618 q 725 696 706 647 q 737 791 744 744 q 715 873 729 838 q 688 921 700 908 q 688 934 685 924 q 702 959 690 944 q 731 988 714 974 q 778 1014 749 1003 q 844 1028 808 1025 q 1008 977 946 1038 q 1068 821 1071 917 q 969 612 1065 711 q 724 468 874 513 l 967 7 z "},"Y":{"ha":1392,"x_min":14,"x_max":1400,"o":"m 1071 971 q 1140 1018 1072 999 q 1317 1008 1242 1047 q 1389 850 1399 965 q 1342 699 1379 769 q 1242 570 1304 628 q 1137 480 1181 513 q 1024 403 1093 447 q 1017 349 1021 381 q 1002 223 1014 318 q 975 7 990 128 q 968 0 974 1 l 669 0 l 664 4 l 664 7 l 672 65 q 718 413 710 328 l 511 913 q 397 847 428 910 q 415 735 367 783 q 442 710 425 721 q 465 692 458 699 q 469 672 472 686 q 447 632 467 657 q 377 579 425 603 q 256 556 329 556 q 118 599 182 556 q 40 695 64 636 q 22 815 15 754 q 61 924 28 875 q 219 1047 119 1008 q 413 1082 319 1085 q 608 1056 506 1079 q 756 1017 710 1033 q 824 990 803 1000 q 832 982 831 990 l 951 558 q 1001 636 979 594 q 1036 716 1024 678 q 1056 790 1049 754 q 1067 858 1064 826 q 1071 913 1069 890 q 1072 953 1072 936 q 1071 971 1071 969 z "},"Z":{"ha":889,"x_min":26,"x_max":889,"o":"m 861 185 q 861 160 863 175 q 854 117 860 146 q 835 65 849 89 q 795 15 821 42 q 729 -26 769 -12 q 631 -47 689 -39 q 493 -37 572 -54 q 398 -16 465 -33 q 281 11 331 1 q 163 21 232 21 q 36 0 93 21 l 32 1 q 32 7 31 3 l 28 203 q 44 233 29 218 q 187 402 60 250 q 382 626 314 554 q 426 666 400 646 q 475 701 451 686 q 519 729 499 717 q 551 749 539 742 l 564 756 q 97 715 367 768 q 74 711 82 713 q 65 718 68 711 q 57 742 64 719 q 45 802 50 765 q 43 878 40 839 q 70 956 46 918 q 140 1013 94 993 q 288 1040 196 1043 q 451 1021 381 1038 q 643 990 522 1004 q 878 986 764 976 q 888 979 886 986 l 889 778 q 885 766 889 772 q 879 756 882 760 l 876 753 q 708 559 781 644 q 607 440 635 474 q 549 372 579 406 q 483 303 519 339 q 443 270 472 292 q 390 233 414 249 l 367 217 l 515 222 q 638 232 583 224 q 719 251 692 240 q 765 273 747 263 q 792 290 783 283 q 804 294 800 296 q 842 254 825 288 q 861 185 858 221 z "},"[":{"ha":547,"x_min":28,"x_max":533,"o":"m 388 -128 l 392 -132 l 378 -244 q 374 -250 379 -250 l 33 -249 q 28 -243 29 -249 l 178 1000 q 188 1007 181 1007 l 526 1007 q 532 1001 532 1006 l 518 889 q 513 883 518 883 q 297 885 389 883 l 174 -128 l 388 -128 z "},"\\":{"ha":399,"x_min":1,"x_max":400,"o":"m 268 -237 l 1 999 q 6 1006 1 1004 l 122 1006 q 129 999 129 1006 l 399 -237 q 393 -243 397 -243 l 275 -243 q 268 -237 269 -244 z "},"]":{"ha":547,"x_min":15,"x_max":519,"o":"m 36 -128 l 249 -128 l 372 885 q 157 883 281 883 q 154 889 153 885 l 168 1001 q 174 1007 167 1007 l 513 1007 q 519 1000 518 1006 l 368 -243 q 360 -249 365 -243 q 19 -250 68 -250 q 15 -244 15 -249 l 29 -132 q 36 -128 29 -128 z "},"_":{"ha":650,"x_min":28,"x_max":622,"o":"m 621 -7 l 621 -129 q 615 -133 621 -133 l 35 -133 l 28 -128 l 28 -8 q 36 -1 29 -1 l 615 -1 q 621 -7 621 -3 z "},"`":{"ha":418,"x_min":6,"x_max":381,"o":"m 8 1021 q 11 1032 6 1028 q 190 1142 81 1115 q 199 1139 196 1143 q 260 981 222 1044 q 374 843 299 918 q 375 833 379 838 q 318 765 350 790 q 307 767 315 764 q 8 1021 101 839 z "},"a":{"ha":886,"x_min":32,"x_max":864,"o":"m 803 290 q 800 187 794 224 q 816 131 806 150 q 839 106 826 113 q 857 94 851 100 q 858 79 863 89 q 789 12 843 43 q 679 -19 735 -19 q 560 23 607 -19 q 510 139 514 65 q 271 -18 408 -18 q 131 43 188 -18 q 53 193 74 104 q 46 378 33 282 q 152 633 64 529 q 371 738 240 738 q 561 606 504 738 l 574 701 q 576 706 574 704 q 579 708 578 708 l 582 710 l 860 710 q 864 703 864 708 q 803 290 815 386 m 413 174 q 497 226 463 174 q 540 361 531 279 q 528 497 550 443 q 458 550 507 550 q 376 497 410 550 q 332 361 342 443 q 343 226 322 279 q 413 174 364 174 z "},"b":{"ha":876,"x_min":35,"x_max":856,"o":"m 618 729 q 758 672 701 729 q 834 531 814 615 q 842 350 854 446 q 735 85 822 197 q 518 -26 647 -26 q 326 106 385 -26 l 315 8 q 314 4 315 6 l 310 0 l 307 0 l 39 0 l 35 4 l 35 7 q 156 992 151 960 q 161 997 157 996 l 431 997 l 435 996 q 436 992 436 994 l 385 581 q 618 729 483 729 m 360 215 q 370 188 360 215 q 429 161 381 161 q 513 215 478 161 q 557 350 547 268 q 546 485 567 432 q 476 538 525 538 q 392 485 426 538 q 349 350 358 432 q 360 215 339 268 z "},"c":{"ha":749,"x_min":29,"x_max":764,"o":"m 731 226 q 732 204 739 218 q 694 144 721 178 q 626 72 668 110 q 519 8 583 33 q 383 -18 454 -18 q 128 93 225 -18 q 50 361 31 204 q 188 623 69 514 q 465 739 306 732 q 678 688 592 739 q 753 544 764 638 q 703 449 747 492 q 600 406 658 406 q 539 414 568 406 q 506 429 510 422 q 504 443 504 439 q 507 462 504 447 q 511 486 510 476 q 501 556 517 529 q 457 582 486 582 q 367 513 404 582 q 328 361 331 444 q 363 223 325 272 q 460 167 400 174 q 586 176 521 161 q 711 225 651 192 q 731 226 724 233 z "},"d":{"ha":896,"x_min":32,"x_max":903,"o":"m 814 283 q 812 163 806 204 q 833 109 818 121 q 856 90 847 97 q 858 72 864 83 q 789 5 843 36 q 679 -26 735 -26 q 561 16 607 -26 q 510 132 515 58 q 271 -26 408 -26 q 131 31 188 -26 q 53 172 74 88 q 46 353 33 257 q 153 617 65 506 q 371 729 240 729 q 563 597 504 729 l 611 994 q 618 1001 613 1000 l 896 1001 q 901 996 901 1001 q 814 283 825 379 m 342 218 q 352 192 342 218 q 413 165 363 165 q 497 218 463 165 q 540 353 531 271 q 529 488 550 435 q 460 542 508 542 q 375 488 410 542 q 331 353 340 433 q 342 218 321 271 z "},"e":{"ha":793,"x_min":32,"x_max":801,"o":"m 742 218 q 743 196 750 210 q 617 53 718 132 q 382 -26 515 -26 q 128 85 225 -26 q 51 353 32 196 q 194 620 71 510 q 493 731 318 731 q 724 653 649 731 q 790 489 800 576 q 731 359 781 411 q 615 289 682 307 q 472 265 549 271 q 328 275 394 260 q 469 158 350 174 q 724 217 588 143 q 742 218 733 224 m 424 560 q 332 397 357 524 q 472 419 421 389 q 529 507 522 449 q 515 556 533 536 q 464 574 496 575 q 463 572 464 572 l 458 572 q 424 560 439 569 z "},"f":{"ha":576,"x_min":42,"x_max":736,"o":"m 486 771 q 487 785 483 776 q 497 810 490 793 q 506 849 503 828 q 461 921 514 921 q 406 895 424 921 q 391 828 389 869 q 399 758 393 786 q 413 703 404 729 l 604 703 l 608 699 l 608 696 l 594 575 q 588 568 593 569 l 403 568 l 335 8 l 328 0 l 60 0 q 54 7 54 1 l 124 568 l 46 568 l 42 572 l 42 575 l 56 697 l 63 703 l 142 703 q 181 860 149 793 q 263 963 213 926 q 368 1015 313 999 q 488 1032 424 1032 q 671 985 607 1032 q 726 869 735 939 q 680 782 721 818 q 583 746 639 746 q 521 755 551 746 q 486 771 490 764 z "},"g":{"ha":863,"x_min":32,"x_max":856,"o":"m 783 90 q 651 -208 767 -94 q 349 -322 536 -322 q 221 -301 278 -322 q 131 -247 164 -279 q 82 -185 99 -214 q 60 -133 65 -157 q 55 -83 53 -100 q 63 -60 57 -65 q 76 -56 68 -54 q 109 -85 86 -57 q 178 -138 132 -112 q 292 -164 224 -164 q 426 -112 371 -164 q 492 8 481 -60 l 507 132 q 271 -12 413 -12 q 131 43 188 -12 q 53 183 74 99 q 46 363 33 267 q 152 627 64 515 q 371 739 240 739 q 563 604 506 739 l 575 703 q 581 710 575 708 l 849 710 q 854 703 854 710 q 783 90 804 260 m 413 179 q 495 231 461 179 q 540 363 529 282 q 528 497 550 443 q 458 551 507 551 q 375 498 410 551 q 331 363 340 444 q 341 231 319 282 q 413 179 363 179 z "},"h":{"ha":856,"x_min":28,"x_max":836,"o":"m 763 283 q 761 180 756 217 q 780 124 767 143 q 806 99 793 106 q 827 87 819 93 q 831 71 835 81 q 760 5 814 36 q 650 -26 706 -26 q 511 31 563 -26 q 472 185 460 89 l 504 454 q 471 535 514 528 q 393 488 432 542 q 353 381 361 443 l 307 8 l 300 0 l 32 0 l 28 4 l 28 7 l 144 993 l 151 999 l 425 999 l 428 997 l 428 993 l 376 574 q 497 691 428 653 q 628 729 567 729 q 755 665 707 729 q 789 500 803 601 l 763 283 z "},"i":{"ha":444,"x_min":36,"x_max":454,"o":"m 447 896 q 389 804 442 842 q 269 767 336 767 q 160 804 203 767 q 124 896 118 842 q 182 987 131 949 q 300 1025 233 1025 q 410 987 367 1025 q 447 896 453 949 m 111 694 l 118 703 l 396 703 q 403 696 403 701 q 340 283 353 379 q 338 180 332 217 q 353 124 343 143 q 376 99 364 106 q 394 88 389 93 q 396 72 400 82 q 326 5 381 36 q 217 -26 272 -26 q 84 31 131 -26 q 49 185 38 88 l 111 694 z "},"j":{"ha":457,"x_min":-222,"x_max":506,"o":"m 450 690 q 371 43 376 85 q 14 -368 321 -368 q -162 -316 -103 -368 q -214 -193 -222 -264 q -165 -98 -207 -140 q -67 -56 -122 -56 q -5 -64 -35 -56 q 28 -81 25 -72 q 27 -97 31 -85 q 17 -130 24 -108 q 7 -171 10 -151 q 47 -254 -3 -254 q 111 -175 100 -254 q 101 -65 117 -132 q 93 54 86 1 l 171 689 l 178 697 l 446 697 l 450 693 l 450 690 m 319 765 q 210 803 253 765 q 174 894 168 840 q 233 985 181 947 q 351 1024 285 1024 q 462 985 419 1024 q 497 894 504 947 q 440 803 492 840 q 319 765 388 765 z "},"k":{"ha":847,"x_min":33,"x_max":842,"o":"m 824 92 q 840 75 840 83 q 819 46 839 67 q 734 -7 790 17 q 624 -31 678 -31 q 506 -4 556 -31 q 435 63 457 22 q 397 150 413 103 q 384 238 382 197 q 386 307 386 279 q 406 338 390 338 q 544 415 510 338 q 540 517 569 474 q 492 543 522 543 q 403 499 435 543 q 363 396 371 454 l 315 8 l 308 0 l 40 0 q 35 7 35 1 q 153 993 133 843 q 158 999 154 997 l 431 999 l 435 997 q 436 993 436 996 l 386 586 q 502 693 435 657 q 638 729 569 729 q 796 636 750 729 q 794 461 838 551 q 621 336 746 356 l 619 333 q 624 315 621 326 q 644 272 628 304 q 681 212 660 240 q 740 149 701 183 q 824 92 778 115 z "},"l":{"ha":436,"x_min":31,"x_max":432,"o":"m 142 992 q 149 999 143 997 l 426 999 l 432 994 l 432 992 l 346 279 q 346 158 338 200 q 370 105 354 117 q 397 86 386 93 q 401 68 407 79 q 326 1 385 33 q 210 -31 267 -31 q 77 26 124 -31 q 42 181 31 83 l 142 992 z "},"m":{"ha":1282,"x_min":44,"x_max":1263,"o":"m 1192 283 q 1190 180 1183 217 q 1208 124 1196 143 q 1235 99 1221 106 q 1256 87 1249 93 q 1257 71 1263 81 q 1188 5 1242 36 q 1078 -26 1133 -26 q 940 31 992 -26 q 899 185 888 89 l 932 454 q 901 535 942 528 q 829 488 865 542 q 793 381 800 443 l 790 356 l 758 8 q 756 3 758 6 q 751 0 754 1 l 750 0 l 472 0 l 468 4 q 468 7 467 6 q 510 356 497 265 q 521 454 514 383 q 490 535 531 528 q 418 488 454 542 q 382 381 390 442 l 336 8 q 334 3 336 6 q 329 0 332 1 l 328 0 l 50 0 l 46 4 l 46 7 q 106 419 94 324 q 106 540 114 499 q 83 594 99 582 q 56 613 67 606 q 51 631 46 619 q 121 698 67 667 q 231 729 175 729 q 349 687 304 729 q 400 569 394 644 q 517 690 450 651 q 644 729 583 729 q 756 685 711 729 q 808 564 801 640 q 926 689 858 649 q 1056 729 993 729 q 1184 665 1136 729 q 1218 500 1232 601 l 1192 283 z "},"n":{"ha":878,"x_min":33,"x_max":851,"o":"m 781 283 q 778 180 772 217 q 797 124 785 143 q 824 99 810 106 q 844 87 838 93 q 847 71 851 81 q 776 5 831 36 q 667 -26 722 -26 q 528 31 581 -26 q 489 185 476 89 l 522 454 q 489 535 531 528 q 410 486 449 542 q 371 381 379 442 l 325 8 q 318 0 325 1 l 40 0 q 35 7 35 1 q 97 419 85 324 q 100 523 106 486 q 83 578 94 560 q 60 603 72 597 q 42 615 49 610 q 40 631 36 621 q 110 698 56 667 q 219 729 164 729 q 340 685 293 729 q 390 567 386 642 q 512 690 442 650 q 644 729 582 729 q 773 665 725 729 q 808 500 821 601 q 797 408 806 475 q 781 283 788 340 z "},"o":{"ha":842,"x_min":32,"x_max":849,"o":"m 751 596 q 800 538 751 596 q 829 322 849 479 q 687 65 810 165 q 394 -25 564 -36 q 130 104 228 -12 q 51 378 32 221 q 197 635 71 533 q 488 725 322 736 q 751 596 654 713 m 325 358 q 335 199 314 264 q 414 131 357 135 q 508 185 472 126 q 556 342 543 243 q 547 501 568 438 q 468 569 525 565 q 374 514 410 574 q 325 358 338 454 z "},"p":{"ha":896,"x_min":6,"x_max":874,"o":"m 638 726 q 777 669 721 726 q 853 528 833 613 q 861 347 874 443 q 755 83 843 194 q 538 -29 667 -29 q 347 103 404 -29 l 297 -300 q 295 -305 297 -303 q 290 -308 293 -307 l 289 -308 l 11 -308 l 7 -304 l 7 -301 q 94 417 82 321 q 96 538 103 496 q 75 591 89 579 q 52 610 61 603 q 49 628 43 617 q 119 695 65 664 q 229 726 174 726 q 347 684 301 726 q 399 568 393 642 q 638 726 500 726 m 380 212 q 391 185 380 212 q 450 158 401 158 q 533 212 499 158 q 576 347 567 265 q 567 481 588 428 q 496 535 546 535 q 413 482 447 535 q 368 347 379 429 q 380 212 358 265 z "},"q":{"ha":858,"x_min":32,"x_max":856,"o":"m 851 696 q 856 690 851 692 l 733 -300 q 726 -307 732 -306 l 458 -307 l 454 -303 l 454 -300 l 503 110 q 268 -31 410 -31 q 128 29 185 -31 q 51 177 71 89 q 43 363 32 265 q 149 619 61 514 q 368 725 238 725 q 563 582 506 725 l 576 690 q 582 696 578 694 l 851 696 m 340 213 q 350 186 340 213 q 410 160 361 160 q 492 213 458 160 q 536 349 526 267 q 526 483 547 429 q 456 536 506 536 q 373 483 407 536 q 328 349 339 431 q 340 213 318 267 z "},"r":{"ha":728,"x_min":33,"x_max":726,"o":"m 582 726 q 688 685 650 726 q 717 571 726 644 q 651 440 707 488 q 521 392 594 392 q 478 401 499 392 q 454 419 458 411 q 454 430 453 426 q 459 446 456 433 q 464 469 463 458 q 436 531 472 531 q 394 490 408 531 q 369 374 379 449 l 325 6 q 318 -1 324 0 l 39 -1 l 35 3 l 35 6 q 96 417 85 321 q 96 538 104 496 q 72 591 88 579 q 45 610 56 603 q 40 628 35 617 q 111 695 57 664 q 221 726 165 726 q 337 686 292 726 q 388 575 382 646 q 477 685 424 643 q 582 726 531 726 z "},"s":{"ha":751,"x_min":14,"x_max":735,"o":"m 513 410 q 714 193 732 342 q 639 62 704 114 q 494 -9 574 10 q 328 -26 415 -28 q 189 -9 257 -25 q 68 51 121 7 q 24 158 15 96 q 73 248 31 211 q 174 283 115 285 q 240 274 207 282 q 275 257 272 265 q 278 242 278 246 q 275 224 278 239 q 271 200 272 208 q 285 138 265 160 q 343 114 306 115 q 425 175 415 114 q 419 209 426 194 q 389 236 411 224 q 351 256 367 249 q 296 276 336 263 q 240 294 256 289 q 117 377 164 324 q 78 507 69 431 l 78 511 q 196 673 90 613 q 418 731 301 733 q 643 680 551 728 q 724 546 735 632 q 678 460 718 494 q 575 426 638 425 q 510 437 540 428 q 478 454 481 446 q 483 511 475 458 q 474 572 489 553 q 422 590 458 592 q 372 569 392 590 q 349 526 351 549 q 378 462 343 483 q 494 415 414 440 q 499 414 497 414 q 503 413 500 414 q 508 412 506 413 q 513 410 510 411 z "},"t":{"ha":563,"x_min":31,"x_max":575,"o":"m 493 135 q 514 124 511 135 q 507 99 517 113 q 400 8 474 43 q 250 -28 326 -28 q 131 4 178 -25 q 58 181 44 61 l 107 568 l 38 568 q 32 575 32 568 l 46 697 q 51 703 47 701 l 424 931 l 428 926 q 428 924 429 925 q 403 703 418 821 l 572 703 l 575 696 l 563 575 q 557 568 563 569 l 388 568 l 351 289 l 349 267 q 346 222 346 233 q 356 170 347 190 q 385 143 365 150 q 417 133 406 136 q 458 133 429 131 q 493 135 488 135 z "},"u":{"ha":868,"x_min":36,"x_max":844,"o":"m 782 282 q 782 161 774 203 q 806 108 790 119 q 833 89 822 96 q 838 71 843 82 q 767 3 821 35 q 658 -28 714 -28 q 540 15 586 -28 q 489 132 494 57 q 372 11 438 50 q 244 -28 307 -28 q 117 36 165 -28 q 82 201 69 100 l 108 418 q 110 522 115 485 q 92 577 104 558 q 65 602 79 596 q 44 614 51 608 q 42 629 38 619 q 112 697 58 665 q 221 728 165 728 q 360 670 308 728 q 401 517 413 613 l 368 247 q 397 167 360 174 q 469 214 435 160 q 506 311 497 254 l 553 693 l 560 701 l 839 701 l 843 697 l 843 694 q 782 282 793 378 z "},"v":{"ha":819,"x_min":42,"x_max":822,"o":"m 656 732 q 783 648 744 726 q 782 403 822 569 q 735 283 769 349 q 649 146 701 217 q 515 26 596 75 q 346 -28 435 -24 l 338 -28 q 244 -15 288 -28 q 155 32 200 -1 q 81 134 110 65 q 46 301 51 203 q 53 451 43 353 q 75 622 63 549 l 86 694 l 93 701 l 358 701 l 363 696 l 363 693 q 346 613 356 663 q 319 446 336 563 q 303 258 303 329 q 314 174 303 204 q 336 138 325 144 q 364 132 347 132 q 493 351 447 132 q 506 512 514 461 q 483 594 497 563 q 469 633 468 626 q 534 699 476 661 q 656 732 592 736 z "},"w":{"ha":1247,"x_min":43,"x_max":1236,"o":"m 1042 731 q 1183 653 1132 731 q 1214 408 1235 575 q 1194 314 1208 364 q 1148 201 1181 264 q 1070 88 1115 138 q 951 5 1025 39 q 785 -29 876 -29 l 776 -29 q 528 74 610 -29 q 297 -29 436 -29 q 121 39 192 -29 q 43 217 50 107 l 97 693 l 103 700 l 374 700 l 378 697 q 379 692 379 694 l 325 243 q 386 131 315 131 q 443 164 417 131 q 478 264 469 197 l 532 693 l 538 700 l 806 700 l 810 694 l 810 692 l 758 264 q 757 163 749 196 q 799 131 765 131 q 896 185 850 131 q 946 350 942 240 q 937 490 950 432 q 906 571 924 549 q 873 609 888 593 q 860 632 858 625 q 917 694 863 657 q 1042 731 972 731 z "},"x":{"ha":850,"x_min":0,"x_max":857,"o":"m 590 344 l 785 8 q 781 0 790 0 l 474 0 q 463 7 467 0 l 338 247 q 285 207 294 236 q 288 150 275 178 q 315 97 300 122 q 331 68 331 71 q 279 1 328 33 q 174 -31 231 -31 q 47 15 92 -31 q 7 132 1 60 q 271 368 21 313 l 85 692 q 89 699 81 699 l 390 699 q 401 692 397 699 l 528 456 q 576 494 568 467 q 570 549 583 522 q 542 599 557 575 q 526 625 526 624 q 578 691 529 660 q 683 722 626 722 q 810 673 765 722 q 846 551 856 624 q 765 422 838 476 q 590 344 693 367 z "},"y":{"ha":853,"x_min":35,"x_max":835,"o":"m 764 103 q 633 -196 747 -82 q 331 -310 519 -310 q 202 -288 260 -310 q 113 -235 144 -267 q 63 -174 81 -203 q 42 -121 46 -144 q 37 -70 35 -87 q 44 -47 39 -53 q 57 -43 49 -42 q 83 -62 67 -44 q 119 -101 100 -81 q 179 -137 138 -121 q 274 -154 221 -154 q 406 -108 353 -154 q 472 4 460 -62 l 489 143 q 373 21 439 60 q 244 -18 307 -18 q 117 46 165 -18 q 82 211 69 110 l 107 419 q 109 523 115 486 q 90 578 103 560 q 65 603 78 597 q 44 615 51 610 q 40 631 36 621 q 111 698 57 667 q 221 729 165 729 q 360 672 308 729 q 399 518 411 614 l 367 257 q 397 176 358 182 q 472 226 436 169 q 508 329 500 271 l 554 694 q 560 701 554 700 l 828 701 q 833 694 833 701 q 764 103 788 288 z "},"z":{"ha":740,"x_min":13,"x_max":729,"o":"m 688 181 q 616 11 693 63 q 435 -22 539 -40 q 362 -8 431 -22 q 252 13 293 7 q 143 18 211 18 q 22 4 75 18 l 18 7 q 19 10 18 8 q 17 60 19 29 q 15 117 14 92 q 21 168 15 142 q 143 317 38 236 q 357 456 249 399 q 476 506 396 475 q 58 481 256 519 q 51 486 53 481 q 45 528 47 490 q 67 622 43 565 q 149 707 90 678 q 251 730 190 729 q 378 718 313 731 q 533 699 444 706 q 719 699 622 692 q 726 693 726 699 q 726 610 724 671 q 719 529 728 550 q 619 397 701 465 q 419 267 538 328 q 279 196 315 213 l 426 196 q 521 200 479 196 q 584 211 563 204 q 624 224 606 218 q 646 236 642 231 q 657 243 650 242 q 665 240 664 244 q 688 181 685 222 z "},"{":{"ha":403,"x_min":31,"x_max":410,"o":"m 246 -210 q 257 -228 258 -222 q 231 -240 254 -239 q 76 -166 119 -244 q 60 65 32 -87 q 63 86 63 79 q 85 278 86 200 q 64 375 85 357 q 53 392 53 386 q 68 410 54 397 q 114 511 93 431 q 139 699 135 592 l 139 719 q 212 951 149 872 q 385 1025 275 1029 q 403 1022 397 1025 q 408 1013 410 1018 q 394 994 410 1010 q 328 739 333 944 l 326 718 q 277 508 319 597 q 167 393 235 418 q 249 276 228 368 q 247 68 271 185 q 243 46 244 54 q 246 -210 199 -162 z "},"|":{"ha":243,"x_min":54,"x_max":189,"o":"m 188 -237 q 183 -243 188 -243 l 61 -243 l 57 -242 q 56 -237 56 -240 l 57 1026 q 63 1033 57 1032 l 182 1033 q 188 1026 188 1033 l 188 -237 z "},"}":{"ha":401,"x_min":15,"x_max":393,"o":"m 31 -210 q 96 46 90 -161 l 97 68 q 147 279 104 190 q 258 393 189 368 q 174 510 196 418 q 176 718 153 601 q 181 739 181 732 q 178 994 225 947 q 167 1013 165 1007 q 193 1025 169 1025 q 349 951 306 1029 q 364 719 392 872 q 361 699 361 706 q 339 508 338 585 q 360 410 340 431 q 370 392 371 397 q 356 375 369 386 q 310 276 331 357 q 285 86 289 194 l 285 65 q 213 -165 275 -86 q 40 -240 150 -244 q 21 -236 26 -239 q 17 -228 15 -233 q 31 -210 15 -225 z "},"~":{"ha":776,"x_min":28,"x_max":761,"o":"m 739 494 q 751 482 749 499 q 722 392 761 439 q 489 315 654 311 q 340 335 436 317 q 204 351 244 353 q 121 341 157 351 q 65 319 85 331 q 44 307 46 307 q 35 315 38 306 q 67 401 29 350 q 285 490 139 496 q 442 469 356 488 q 579 449 528 450 q 648 453 617 447 q 695 468 679 460 q 724 485 711 476 q 739 494 738 494 z "},"":{"ha":422,"x_min":31,"x_max":428,"o":"m 147 601 q 198 699 153 658 q 300 739 243 739 q 391 699 356 739 q 419 601 426 658 q 367 505 413 544 q 267 465 322 465 q 175 506 210 465 q 147 601 140 546 m 43 -118 q 72 40 53 -46 q 120 210 92 125 q 187 352 149 296 q 265 408 225 408 q 319 360 300 408 q 340 235 338 313 q 341 98 343 158 q 333 -21 339 38 q 335 -140 326 -96 q 359 -195 344 -185 q 384 -213 374 -206 q 389 -232 394 -221 q 318 -299 372 -267 q 208 -331 264 -331 q 76 -273 122 -331 q 43 -118 31 -215 z "},"":{"ha":739,"x_min":28,"x_max":731,"o":"m 478 444 q 483 501 474 454 q 426 589 500 589 q 363 546 381 589 q 356 522 358 535 q 356 492 354 508 q 359 463 357 476 q 366 433 361 450 q 374 408 371 417 q 381 386 376 400 l 386 371 l 515 382 q 522 376 521 382 l 513 283 q 506 276 513 276 q 363 283 438 282 q 238 194 331 238 l 436 194 q 531 199 489 194 q 594 210 572 203 q 633 223 615 217 q 656 235 651 229 q 667 242 660 240 q 675 239 674 243 q 697 179 694 221 q 626 10 703 61 q 444 -24 549 -42 q 372 -9 440 -24 q 262 11 303 6 q 153 17 221 17 q 32 3 85 17 l 28 6 q 29 8 28 7 q 47 181 29 104 q 55 197 49 189 q 72 215 61 206 q 92 231 83 225 q 118 250 100 238 q 143 268 136 263 q 145 272 143 269 q 149 276 147 275 l 47 267 q 42 272 42 268 l 51 367 q 57 371 51 371 q 156 367 69 372 q 131 390 150 372 q 103 420 113 408 q 85 457 93 432 q 82 513 78 482 q 150 642 92 592 q 281 710 208 693 q 439 728 353 728 q 537 719 488 728 q 632 690 586 710 q 703 632 678 669 q 724 546 729 594 q 675 457 717 494 q 575 419 633 419 q 512 428 542 419 q 478 444 482 436 z "},"":{"ha":732,"x_min":28,"x_max":733,"o":"m 592 199 q 667 50 672 139 l 667 36 q 603 -83 658 -31 q 476 -161 549 -136 q 333 -186 404 -186 q 117 -140 206 -186 q 39 -10 29 -94 q 82 76 43 42 q 183 110 121 110 q 245 101 215 110 q 278 85 275 93 q 279 71 279 75 q 276 53 279 67 q 272 29 274 39 q 281 -31 267 -11 q 332 -49 296 -50 q 381 -26 361 -47 q 403 17 400 -6 l 401 17 q 385 66 406 46 q 338 97 365 86 q 263 122 311 107 q 243 128 250 126 q 58 251 93 171 q 46 322 42 286 l 46 328 q 47 336 47 331 q 174 501 61 443 q 97 651 93 563 q 98 658 97 653 q 99 665 99 663 q 162 785 107 732 q 288 863 217 838 q 431 888 360 888 q 581 869 513 888 q 691 809 649 850 q 726 711 733 768 q 683 626 722 660 q 582 592 643 592 q 520 600 550 592 q 488 617 490 608 q 486 631 486 626 q 489 649 486 635 q 493 672 492 663 q 483 732 499 713 q 433 750 468 751 q 385 728 404 749 q 363 685 365 707 q 379 636 358 657 q 426 605 400 615 q 503 579 453 594 l 508 578 q 515 576 511 576 q 522 574 519 575 q 707 450 669 531 q 719 379 724 415 q 718 372 719 375 l 718 365 q 592 199 706 260 m 443 265 q 481 302 467 272 q 478 367 496 332 q 446 390 468 383 l 408 404 l 374 417 l 338 431 l 335 432 l 326 435 q 286 392 300 426 q 303 321 272 358 l 303 322 q 325 308 310 313 l 410 278 l 443 265 z "},"":{"ha":613,"x_min":7,"x_max":618,"o":"m 258 971 q 276 953 258 971 q 289 886 294 936 q 238 801 283 836 q 135 767 192 767 q 42 801 78 767 q 13 886 7 836 q 63 971 18 936 q 164 1006 107 1006 q 258 971 221 1006 m 581 971 q 599 953 581 971 q 611 886 617 936 q 560 801 606 836 q 458 767 515 767 q 366 801 401 767 q 336 886 331 836 q 386 971 342 936 q 488 1006 431 1006 q 581 971 544 1006 z "},"":{"ha":981,"x_min":49,"x_max":953,"o":"m 717 256 q 729 257 725 261 q 733 242 735 253 q 661 142 721 196 q 510 89 601 89 q 325 165 401 89 q 249 350 249 242 q 322 531 249 456 q 503 611 394 606 q 656 575 590 611 q 722 475 722 539 q 698 410 722 438 q 625 381 674 383 q 582 385 603 379 q 557 397 561 392 q 557 436 553 407 q 549 486 560 464 q 522 510 538 508 q 462 464 482 514 q 442 350 442 414 q 485 233 442 269 q 590 204 528 196 q 717 256 653 213 m 183 670 q 249 736 183 670 q 501 803 315 803 q 820 670 688 803 q 953 351 953 538 q 820 33 953 165 q 501 -100 688 -100 q 183 33 315 -100 q 50 351 50 165 q 183 670 50 538 m 501 -12 q 758 94 651 -12 q 865 351 865 200 q 758 608 865 501 q 501 715 651 715 q 244 608 350 715 q 138 351 138 501 q 244 94 138 200 q 501 -12 350 -12 z "},"":{"ha":613,"x_min":28,"x_max":606,"o":"m 538 94 q 531 68 540 76 q 503 72 521 60 q 406 169 460 113 q 318 262 351 225 q 285 300 285 299 q 269 335 268 324 q 293 368 271 346 q 337 407 297 372 q 446 499 376 442 q 568 596 515 557 q 595 601 585 608 q 596 574 606 594 q 557 488 583 546 q 511 386 531 429 q 488 335 492 343 q 538 94 490 317 m 297 94 q 290 68 300 76 q 263 72 281 60 q 167 169 221 113 q 78 262 113 225 q 44 300 44 299 q 29 335 28 324 q 53 368 31 346 q 97 407 57 372 q 206 499 136 442 q 328 596 275 557 q 355 601 344 608 q 356 574 365 594 q 293 435 338 532 q 247 335 249 339 q 297 94 250 317 z "},"":{"ha":644,"x_min":26,"x_max":617,"o":"m 478 460 q 479 439 492 451 q 408 407 450 407 q 369 415 386 407 q 342 435 351 424 q 325 465 332 447 q 315 493 318 482 q 310 519 313 504 q 308 536 308 535 l 290 538 l 290 424 l 288 419 l 175 419 q 172 424 172 421 l 172 714 l 174 717 q 328 729 250 729 q 434 704 388 729 q 481 632 481 679 q 406 546 481 575 q 478 460 440 482 m 360 628 q 321 667 360 667 q 290 664 310 667 l 290 588 l 317 588 q 360 628 360 588 m 114 776 q 157 819 114 776 q 322 863 200 863 q 531 776 444 863 q 617 568 617 690 q 531 360 617 446 q 322 274 444 274 q 114 360 200 274 q 28 568 28 446 q 114 776 28 690 m 322 331 q 490 400 419 331 q 560 568 560 469 q 490 736 560 667 q 322 806 419 806 q 154 736 224 806 q 85 568 85 667 q 154 400 85 469 q 322 331 224 331 z "},"":{"ha":601,"x_min":18,"x_max":586,"o":"m 39 975 l 581 975 l 585 971 l 585 968 l 571 874 q 564 867 569 868 l 22 867 l 18 871 l 18 874 l 32 969 l 39 975 z "},"":{"ha":478,"x_min":26,"x_max":451,"o":"m 388 660 q 357 630 388 660 q 239 599 326 599 q 90 660 151 599 q 28 810 28 722 q 90 959 28 897 q 239 1021 151 1021 q 388 959 326 1021 q 450 810 450 897 q 388 660 450 722 m 296 867 q 284 878 296 867 q 239 890 272 890 q 182 867 206 890 q 158 810 158 843 q 182 753 158 776 q 239 731 206 731 q 296 753 272 731 q 319 810 319 776 q 296 867 319 843 z "},"":{"ha":404,"x_min":7,"x_max":406,"o":"m 399 1021 q 69 767 285 839 q 58 765 61 764 q 11 833 29 792 q 14 843 7 838 q 143 981 97 918 q 224 1139 189 1044 q 232 1142 226 1143 q 397 1032 338 1115 q 399 1021 404 1026 z "},"":{"ha":978,"x_min":36,"x_max":921,"o":"m 919 974 l 919 -215 q 914 -222 919 -221 l 756 -222 q 750 -217 750 -222 l 749 851 q 743 858 749 857 l 671 858 q 665 853 665 858 l 665 -214 q 660 -219 664 -219 l 500 -219 l 496 -218 q 494 -214 494 -217 l 494 343 q 365 342 429 339 q 241 372 300 346 q 137 438 182 399 q 65 545 92 478 q 38 699 38 613 q 72 849 38 785 q 167 951 107 914 q 299 1005 226 988 q 457 1022 372 1022 q 667 1012 553 1022 q 847 992 782 1001 l 914 981 q 919 974 919 981 z "},"":{"ha":382,"x_min":10,"x_max":406,"o":"m 183 7 l 201 7 l 206 3 l 192 -100 q 367 -161 318 -83 q 369 -289 406 -222 q 218 -369 326 -368 q 193 -369 206 -371 q 33 -297 90 -364 q 21 -260 10 -265 q 47 -266 22 -260 q 102 -278 71 -272 q 165 -284 133 -283 q 219 -270 196 -285 q 244 -224 242 -256 q 225 -187 247 -200 q 161 -174 203 -174 q 61 -187 119 -174 q 57 -182 54 -187 q 178 3 131 -62 l 183 7 z "},"":{"ha":614,"x_min":32,"x_max":610,"o":"m 40 94 q 81 182 54 124 q 126 284 107 240 q 150 335 146 328 q 138 386 147 343 q 117 488 129 429 q 100 574 106 546 q 106 601 94 594 q 133 596 118 608 q 166 565 149 582 q 200 532 183 549 q 233 498 217 515 q 265 465 250 481 q 292 435 279 450 q 317 408 306 421 q 335 387 328 396 q 347 372 343 378 l 353 368 q 367 335 368 346 q 344 300 365 324 l 300 263 q 188 168 257 225 q 68 72 119 111 q 41 67 50 58 q 40 94 32 76 m 279 94 q 320 182 294 125 q 367 283 346 239 q 390 335 388 328 q 340 574 381 369 q 347 601 335 594 q 374 596 358 608 q 406 565 389 582 q 440 532 424 549 q 474 498 457 515 q 505 465 490 481 q 533 435 519 450 q 557 408 546 421 q 576 387 568 396 q 589 372 583 378 l 593 368 q 607 335 608 346 q 585 300 606 324 l 540 263 q 428 168 496 225 q 308 72 360 111 q 280 67 289 58 q 279 94 271 76 z "},"":{"ha":624,"x_min":29,"x_max":640,"o":"m 322 498 q 304 518 322 498 q 293 594 286 538 q 345 692 300 651 q 447 732 390 732 q 538 692 504 732 q 565 594 572 651 q 515 499 560 539 q 413 458 469 458 q 322 498 357 458 m 256 190 q 300 276 271 215 q 354 369 329 338 q 411 401 379 401 q 480 331 457 401 q 486 186 503 260 q 388 15 469 113 q 300 -128 306 -83 q 303 -175 294 -153 q 340 -197 311 -197 q 407 -112 394 -197 q 409 -85 410 -99 q 408 -57 408 -71 q 413 -39 408 -43 q 455 -20 419 -31 q 522 -12 490 -10 q 611 -61 583 -18 q 631 -157 639 -104 q 531 -283 621 -232 q 311 -333 442 -333 q 101 -262 174 -333 q 39 -106 29 -192 q 78 -15 44 -58 q 168 85 113 29 q 256 190 224 142 z "},"":{"ha":1397,"x_min":18,"x_max":1424,"o":"m 1418 1014 l 1424 1006 q 1318 6 1349 554 q 1313 0 1318 0 l 988 0 l 983 6 l 1025 315 l 863 315 q 426 -29 676 -10 q 244 -10 326 -36 q 112 65 161 17 q 41 177 63 114 q 32 306 19 240 q 112 441 50 396 q 253 486 174 486 q 365 460 308 486 q 414 408 421 433 q 478 257 365 268 q 651 360 556 249 q 819 624 746 472 q 935 921 892 775 q 751 924 821 935 q 644 890 682 913 q 593 837 606 868 q 583 781 581 806 q 599 739 586 756 q 626 715 610 726 q 651 699 643 704 q 656 679 658 693 q 633 639 653 665 q 563 585 611 608 q 444 558 514 563 q 304 594 375 553 q 200 738 228 638 q 214 917 172 839 q 369 1049 267 1013 q 638 1086 471 1086 q 812 1080 713 1086 q 1010 1063 911 1074 q 1187 1043 1110 1053 q 1338 1024 1264 1033 q 1418 1014 1413 1015 m 1092 883 q 950 493 1017 644 l 1049 493 l 1100 881 q 1098 892 1101 892 q 1092 883 1094 892 m 953 1313 q 952 1318 951 1314 q 956 1324 953 1322 q 1135 1433 1025 1407 q 1143 1431 1140 1435 q 1205 1273 1167 1336 q 1318 1135 1243 1210 q 1319 1125 1324 1129 q 1263 1057 1294 1082 q 1251 1058 1260 1056 q 953 1313 1046 1131 z "},"":{"ha":1397,"x_min":18,"x_max":1424,"o":"m 1418 1014 l 1424 1006 q 1318 6 1349 554 q 1313 0 1318 0 l 988 0 l 983 6 l 1025 315 l 863 315 q 426 -29 676 -10 q 244 -10 326 -36 q 112 65 161 17 q 41 177 63 114 q 32 306 19 240 q 112 441 50 396 q 253 486 174 486 q 365 460 308 486 q 414 408 421 433 q 478 257 365 268 q 651 360 556 249 q 819 624 746 472 q 935 921 892 775 q 751 924 821 935 q 644 890 682 913 q 593 837 606 868 q 583 781 581 806 q 599 739 586 756 q 626 715 610 726 q 651 699 643 704 q 656 679 658 693 q 633 639 653 665 q 563 585 611 608 q 444 558 514 563 q 304 594 375 553 q 200 738 228 638 q 214 917 172 839 q 369 1049 267 1013 q 638 1086 471 1086 q 812 1080 713 1086 q 1010 1063 911 1074 q 1187 1043 1110 1053 q 1338 1024 1264 1033 q 1418 1014 1413 1015 m 1092 883 q 950 493 1017 644 l 1049 493 l 1100 881 q 1098 892 1101 892 q 1092 883 1094 892 m 1372 1340 q 1043 1086 1258 1158 q 1032 1085 1035 1083 q 985 1153 1003 1111 q 988 1163 981 1157 q 1117 1301 1071 1238 q 1197 1458 1163 1364 q 1206 1461 1200 1463 q 1371 1351 1311 1435 q 1372 1340 1378 1346 z "},"":{"ha":1397,"x_min":18,"x_max":1424,"o":"m 1418 1014 l 1424 1006 q 1318 6 1349 554 q 1313 0 1318 0 l 988 0 l 983 6 l 1025 315 l 863 315 q 426 -29 676 -10 q 244 -10 326 -36 q 112 65 161 17 q 41 177 63 114 q 32 306 19 240 q 112 441 50 396 q 253 486 174 486 q 365 460 308 486 q 414 408 421 433 q 478 257 365 268 q 651 360 556 249 q 819 624 746 472 q 935 921 892 775 q 751 924 821 935 q 644 890 682 913 q 593 837 606 868 q 583 781 581 806 q 599 739 586 756 q 626 715 610 726 q 651 699 643 704 q 656 679 658 693 q 633 639 653 665 q 563 585 611 608 q 444 558 514 563 q 304 594 375 553 q 200 738 228 638 q 214 917 172 839 q 369 1049 267 1013 q 638 1086 471 1086 q 812 1080 713 1086 q 1010 1063 911 1074 q 1187 1043 1110 1053 q 1338 1024 1264 1033 q 1418 1014 1413 1015 m 1092 883 q 950 493 1017 644 l 1049 493 l 1100 881 q 1098 892 1101 892 q 1092 883 1094 892 m 1375 1101 l 1138 1192 l 872 1106 q 844 1107 850 1099 q 853 1131 839 1115 l 1103 1382 l 1111 1386 l 1207 1386 q 1221 1381 1215 1386 l 1401 1126 q 1403 1101 1413 1108 q 1375 1101 1394 1094 z "},"":{"ha":1397,"x_min":18,"x_max":1433,"o":"m 1418 1014 l 1424 1006 q 1318 6 1349 554 q 1313 0 1318 0 l 988 0 l 983 6 l 1025 315 l 863 315 q 426 -29 676 -10 q 244 -10 326 -36 q 112 65 161 17 q 41 177 63 114 q 32 306 19 240 q 112 441 50 396 q 253 486 174 486 q 365 460 308 486 q 414 408 421 433 q 478 257 365 268 q 651 360 556 249 q 819 624 746 472 q 935 921 892 775 q 751 924 821 935 q 644 890 682 913 q 593 837 606 868 q 583 781 581 806 q 599 739 586 756 q 626 715 610 726 q 651 699 643 704 q 656 679 658 693 q 633 639 653 665 q 563 585 611 608 q 444 558 514 563 q 304 594 375 553 q 200 738 228 638 q 214 917 172 839 q 369 1049 267 1013 q 638 1086 471 1086 q 812 1080 713 1086 q 1010 1063 911 1074 q 1187 1043 1110 1053 q 1338 1024 1264 1033 q 1418 1014 1413 1015 m 1092 883 q 950 493 1017 644 l 1049 493 l 1100 881 q 1098 892 1101 892 q 1092 883 1094 892 m 1410 1335 q 1421 1324 1417 1339 q 1401 1219 1433 1279 q 1175 1110 1342 1104 q 1037 1135 1126 1113 q 908 1156 947 1157 q 830 1142 864 1156 q 778 1115 796 1129 q 758 1100 761 1100 q 750 1108 753 1097 q 776 1210 742 1146 q 975 1329 840 1331 l 983 1329 q 1131 1302 1050 1326 q 1260 1276 1213 1278 q 1324 1283 1294 1275 q 1368 1302 1353 1292 q 1396 1323 1383 1313 q 1410 1335 1408 1333 z "},"":{"ha":1397,"x_min":18,"x_max":1424,"o":"m 1418 1014 l 1424 1006 q 1318 6 1349 554 q 1313 0 1318 0 l 988 0 l 983 6 l 1025 315 l 863 315 q 426 -29 676 -10 q 244 -10 326 -36 q 112 65 161 17 q 41 177 63 114 q 32 306 19 240 q 112 441 50 396 q 253 486 174 486 q 365 460 308 486 q 414 408 421 433 q 478 257 365 268 q 651 360 556 249 q 819 624 746 472 q 935 921 892 775 q 751 924 821 935 q 644 890 682 913 q 593 837 606 868 q 583 781 581 806 q 599 739 586 756 q 626 715 610 726 q 651 699 643 704 q 656 679 658 693 q 633 639 653 665 q 563 585 611 608 q 444 558 514 563 q 304 594 375 553 q 200 738 228 638 q 214 917 172 839 q 369 1049 267 1013 q 638 1086 471 1086 q 812 1080 713 1086 q 1010 1063 911 1074 q 1187 1043 1110 1053 q 1338 1024 1264 1033 q 1418 1014 1413 1015 m 1092 883 q 950 493 1017 644 l 1049 493 l 1100 881 q 1098 892 1101 892 q 1092 883 1094 892 m 1059 1304 q 1077 1287 1059 1304 q 1090 1219 1096 1269 q 1039 1135 1085 1169 q 936 1100 993 1100 q 844 1135 879 1100 q 814 1219 808 1169 q 864 1304 819 1269 q 965 1339 908 1339 q 1059 1304 1022 1339 m 1382 1304 q 1400 1287 1382 1304 q 1413 1219 1418 1269 q 1362 1135 1407 1169 q 1260 1100 1317 1100 q 1167 1135 1203 1100 q 1138 1219 1132 1169 q 1188 1304 1143 1269 q 1289 1339 1232 1339 q 1382 1304 1346 1339 z "},"":{"ha":1397,"x_min":18,"x_max":1424,"o":"m 1418 1014 l 1424 1006 q 1318 6 1349 554 q 1313 0 1318 0 l 988 0 l 983 6 l 1025 315 l 863 315 q 426 -29 676 -10 q 244 -10 326 -36 q 112 65 161 17 q 41 177 63 114 q 32 306 19 240 q 112 441 50 396 q 253 486 174 486 q 365 460 308 486 q 414 408 421 433 q 478 257 365 268 q 651 360 556 249 q 819 624 746 472 q 935 921 892 775 q 751 924 821 935 q 644 890 682 913 q 593 837 606 868 q 583 781 581 806 q 599 739 586 756 q 626 715 610 726 q 651 699 643 704 q 656 679 658 693 q 633 639 653 665 q 563 585 611 608 q 444 558 514 563 q 304 594 375 553 q 200 738 228 638 q 214 917 172 839 q 369 1049 267 1013 q 638 1086 471 1086 q 812 1080 713 1086 q 1010 1063 911 1074 q 1187 1043 1110 1053 q 1338 1024 1264 1033 q 1418 1014 1413 1015 m 1092 883 q 950 493 1017 644 l 1049 493 l 1100 881 q 1098 892 1101 892 q 1092 883 1094 892 m 1349 1196 q 1280 1074 1339 1125 q 1146 1024 1221 1024 q 1024 1074 1071 1024 q 986 1196 978 1125 q 1054 1317 994 1267 q 1189 1367 1114 1367 q 1310 1317 1264 1367 q 1349 1196 1357 1267 m 1222 1251 q 1214 1263 1222 1251 q 1176 1274 1206 1274 q 1126 1252 1147 1274 q 1100 1196 1104 1231 q 1113 1138 1096 1161 q 1157 1114 1129 1114 q 1208 1138 1185 1114 q 1235 1196 1231 1161 q 1222 1251 1239 1229 z "},"":{"ha":1446,"x_min":15,"x_max":1469,"o":"m 1425 763 q 1372 688 1406 717 q 1296 651 1339 660 q 1209 642 1253 642 q 1110 656 1165 642 q 1014 683 1056 669 q 918 717 972 696 q 878 613 894 675 q 861 497 861 551 q 913 292 861 369 q 1042 197 965 214 q 1207 201 1119 179 q 1367 282 1294 224 q 1393 279 1394 303 q 1385 250 1392 268 q 1362 201 1378 229 q 1310 133 1346 174 q 1229 60 1274 93 q 1114 3 1185 28 q 963 -22 1043 -21 q 640 131 760 -26 q 543 508 519 289 q 656 799 557 647 q 494 813 576 826 q 396 736 413 800 q 410 659 386 700 q 431 611 435 618 q 352 531 407 560 q 228 508 297 503 q 78 580 133 518 q 19 735 22 642 q 160 950 15 872 q 775 926 381 1065 q 1118 1029 926 1029 q 1376 949 1282 1031 q 1425 763 1469 867 m 1168 829 q 1136 872 1182 861 q 1004 846 1074 888 q 990 836 997 842 q 1061 812 1025 821 q 1128 806 1097 803 q 1168 829 1160 808 m 960 7 l 978 7 l 982 3 l 968 -100 q 1143 -161 1094 -83 q 1146 -289 1182 -222 q 994 -369 1103 -368 q 969 -369 982 -371 q 810 -297 867 -364 q 797 -260 786 -265 q 823 -266 799 -260 q 878 -278 847 -272 q 941 -284 910 -283 q 995 -270 972 -285 q 1021 -224 1018 -256 q 1001 -187 1024 -200 q 938 -174 979 -174 q 838 -187 896 -174 q 833 -182 831 -187 q 954 3 907 -62 l 960 7 z "},"":{"ha":1319,"x_min":17,"x_max":1347,"o":"m 1104 757 q 860 806 1029 757 q 845 690 856 772 q 831 582 835 607 l 1060 582 l 1067 578 l 1067 575 l 1049 436 q 1040 429 1049 429 l 811 429 q 799 329 799 331 q 853 218 790 251 q 1003 196 917 185 q 1158 247 1090 207 q 1187 249 1179 260 q 1186 214 1194 239 q 1151 145 1178 183 q 1080 66 1125 107 q 961 0 1035 25 q 803 -21 888 -25 q 553 95 633 -12 q 493 357 474 203 l 560 889 l 558 889 q 460 869 499 892 q 411 813 422 846 q 403 749 400 781 q 421 703 406 718 q 447 678 431 689 q 471 660 464 667 q 475 640 478 654 q 453 600 472 625 q 381 547 429 571 q 260 524 333 524 q 124 567 188 524 q 30 722 43 622 q 67 892 17 821 q 162 976 99 942 q 284 1024 225 1010 q 421 1042 343 1038 q 532 1047 499 1047 q 604 1043 565 1046 q 799 1028 658 1040 q 1008 1012 940 1015 q 1160 1019 1075 1008 q 1288 1060 1244 1029 q 1324 1028 1310 1074 q 1311 876 1346 956 q 1104 757 1258 756 m 685 1299 q 688 1310 682 1306 q 867 1419 757 1393 q 875 1417 872 1421 q 937 1259 899 1322 q 1050 1121 975 1196 q 1051 1111 1056 1115 q 994 1043 1026 1068 q 983 1044 992 1042 q 685 1299 778 1117 z "},"":{"ha":1319,"x_min":17,"x_max":1347,"o":"m 1104 757 q 860 806 1029 757 q 845 690 856 772 q 831 582 835 607 l 1060 582 l 1067 578 l 1067 575 l 1049 436 q 1040 429 1049 429 l 811 429 q 799 329 799 331 q 853 218 790 251 q 1003 196 917 185 q 1158 247 1090 207 q 1187 249 1179 260 q 1186 214 1194 239 q 1151 145 1178 183 q 1080 66 1125 107 q 961 0 1035 25 q 803 -21 888 -25 q 553 95 633 -12 q 493 357 474 203 l 560 889 l 558 889 q 460 869 499 892 q 411 813 422 846 q 403 749 400 781 q 421 703 406 718 q 447 678 431 689 q 471 660 464 667 q 475 640 478 654 q 453 600 472 625 q 381 547 429 571 q 260 524 333 524 q 124 567 188 524 q 30 722 43 622 q 67 892 17 821 q 162 976 99 942 q 284 1024 225 1010 q 421 1042 343 1038 q 532 1047 499 1047 q 604 1043 565 1046 q 799 1028 658 1040 q 1008 1012 940 1015 q 1160 1019 1075 1008 q 1288 1060 1244 1029 q 1324 1028 1310 1074 q 1311 876 1346 956 q 1104 757 1258 756 m 1129 1299 q 800 1044 1015 1117 q 789 1043 792 1042 q 742 1111 760 1069 q 744 1121 738 1115 q 874 1259 828 1196 q 954 1417 919 1322 q 963 1419 957 1421 q 1128 1310 1068 1393 q 1129 1299 1135 1304 z "},"":{"ha":1319,"x_min":17,"x_max":1347,"o":"m 1104 757 q 860 806 1029 757 q 845 690 856 772 q 831 582 835 607 l 1060 582 l 1067 578 l 1067 575 l 1049 436 q 1040 429 1049 429 l 811 429 q 799 329 799 331 q 853 218 790 251 q 1003 196 917 185 q 1158 247 1090 207 q 1187 249 1179 260 q 1186 214 1194 239 q 1151 145 1178 183 q 1080 66 1125 107 q 961 0 1035 25 q 803 -21 888 -25 q 553 95 633 -12 q 493 357 474 203 l 560 889 l 558 889 q 460 869 499 892 q 411 813 422 846 q 403 749 400 781 q 421 703 406 718 q 447 678 431 689 q 471 660 464 667 q 475 640 478 654 q 453 600 472 625 q 381 547 429 571 q 260 524 333 524 q 124 567 188 524 q 30 722 43 622 q 67 892 17 821 q 162 976 99 942 q 284 1024 225 1010 q 421 1042 343 1038 q 532 1047 499 1047 q 604 1043 565 1046 q 799 1028 658 1040 q 1008 1012 940 1015 q 1160 1019 1075 1008 q 1288 1060 1244 1029 q 1324 1028 1310 1074 q 1311 876 1346 956 q 1104 757 1258 756 m 1153 1063 l 915 1153 l 650 1067 q 622 1068 628 1060 q 631 1092 617 1076 l 881 1343 l 889 1347 l 985 1347 q 999 1342 993 1347 l 1179 1088 q 1181 1063 1190 1069 q 1153 1063 1172 1056 z "},"":{"ha":1319,"x_min":17,"x_max":1347,"o":"m 1104 757 q 860 806 1029 757 q 845 690 856 772 q 831 582 835 607 l 1060 582 l 1067 578 l 1067 575 l 1049 436 q 1040 429 1049 429 l 811 429 q 799 329 799 331 q 853 218 790 251 q 1003 196 917 185 q 1158 247 1090 207 q 1187 249 1179 260 q 1186 214 1194 239 q 1151 145 1178 183 q 1080 66 1125 107 q 961 0 1035 25 q 803 -21 888 -25 q 553 95 633 -12 q 493 357 474 203 l 560 889 l 558 889 q 460 869 499 892 q 411 813 422 846 q 403 749 400 781 q 421 703 406 718 q 447 678 431 689 q 471 660 464 667 q 475 640 478 654 q 453 600 472 625 q 381 547 429 571 q 260 524 333 524 q 124 567 188 524 q 30 722 43 622 q 67 892 17 821 q 162 976 99 942 q 284 1024 225 1010 q 421 1042 343 1038 q 532 1047 499 1047 q 604 1043 565 1046 q 799 1028 658 1040 q 1008 1012 940 1015 q 1160 1019 1075 1008 q 1288 1060 1244 1029 q 1324 1028 1310 1074 q 1311 876 1346 956 q 1104 757 1258 756 m 817 1263 q 836 1245 817 1263 q 849 1178 854 1228 q 797 1093 843 1128 q 694 1058 751 1058 q 602 1093 638 1058 q 572 1178 567 1128 q 622 1263 578 1228 q 724 1297 667 1297 q 817 1263 781 1297 m 1140 1263 q 1158 1245 1140 1263 q 1171 1178 1176 1228 q 1120 1093 1165 1128 q 1018 1058 1075 1058 q 926 1093 961 1058 q 896 1178 890 1128 q 946 1263 901 1228 q 1047 1297 990 1297 q 1140 1263 1104 1297 z "},"":{"ha":864,"x_min":15,"x_max":885,"o":"m 878 992 l 882 990 q 882 985 883 989 l 761 7 q 753 0 760 0 l 451 0 l 447 1 q 447 7 446 3 q 576 911 533 586 q 479 906 524 921 q 414 862 435 890 q 390 799 393 833 q 415 736 386 765 q 442 711 425 722 q 465 694 458 700 q 469 673 472 688 q 447 633 467 658 q 377 581 425 604 q 256 557 329 557 q 118 600 182 557 q 40 697 64 638 q 22 816 15 756 q 61 925 28 876 q 190 1035 110 996 q 360 1078 269 1075 q 535 1075 450 1082 q 702 1046 621 1068 q 821 1011 783 1024 q 876 992 858 999 l 878 992 m 497 1299 q 500 1310 494 1306 q 679 1419 569 1393 q 688 1417 685 1421 q 749 1259 711 1322 q 863 1121 788 1196 q 864 1111 868 1115 q 807 1043 839 1068 q 796 1044 804 1042 q 497 1299 590 1117 z "},"":{"ha":864,"x_min":15,"x_max":904,"o":"m 878 992 l 882 990 q 882 985 883 989 l 761 7 q 753 0 760 0 l 451 0 l 447 1 q 447 7 446 3 q 576 911 533 586 q 479 906 524 921 q 414 862 435 890 q 390 799 393 833 q 415 736 386 765 q 442 711 425 722 q 465 694 458 700 q 469 673 472 688 q 447 633 467 658 q 377 581 425 604 q 256 557 329 557 q 118 600 182 557 q 40 697 64 638 q 22 816 15 756 q 61 925 28 876 q 190 1035 110 996 q 360 1078 269 1075 q 535 1075 450 1082 q 702 1046 621 1068 q 821 1011 783 1024 q 876 992 858 999 l 878 992 m 897 1343 q 568 1089 783 1161 q 557 1088 560 1086 q 510 1156 528 1114 q 513 1165 506 1160 q 642 1303 596 1240 q 722 1461 688 1367 q 731 1464 725 1465 q 896 1354 836 1438 q 897 1343 903 1349 z "},"":{"ha":864,"x_min":15,"x_max":1028,"o":"m 878 992 l 882 990 q 882 985 883 989 l 761 7 q 753 0 760 0 l 451 0 l 447 1 q 447 7 446 3 q 576 911 533 586 q 479 906 524 921 q 414 862 435 890 q 390 799 393 833 q 415 736 386 765 q 442 711 425 722 q 465 694 458 700 q 469 673 472 688 q 447 633 467 658 q 377 581 425 604 q 256 557 329 557 q 118 600 182 557 q 40 697 64 638 q 22 816 15 756 q 61 925 28 876 q 190 1035 110 996 q 360 1078 269 1075 q 535 1075 450 1082 q 702 1046 621 1068 q 821 1011 783 1024 q 876 992 858 999 l 878 992 m 990 1101 l 753 1192 l 488 1106 q 460 1107 465 1099 q 468 1131 454 1115 l 718 1382 l 726 1386 l 822 1386 q 836 1381 831 1386 l 1017 1126 q 1019 1101 1028 1108 q 990 1101 1010 1094 z "},"":{"ha":864,"x_min":15,"x_max":1060,"o":"m 878 992 l 882 990 q 882 985 883 989 l 761 7 q 753 0 760 0 l 451 0 l 447 1 q 447 7 446 3 q 576 911 533 586 q 479 906 524 921 q 414 862 435 890 q 390 799 393 833 q 415 736 386 765 q 442 711 425 722 q 465 694 458 700 q 469 673 472 688 q 447 633 467 658 q 377 581 425 604 q 256 557 329 557 q 118 600 182 557 q 40 697 64 638 q 22 816 15 756 q 61 925 28 876 q 190 1035 110 996 q 360 1078 269 1075 q 535 1075 450 1082 q 702 1046 621 1068 q 821 1011 783 1024 q 876 992 858 999 l 878 992 m 699 1290 q 718 1273 699 1290 q 731 1206 736 1256 q 679 1121 725 1156 q 576 1086 633 1086 q 484 1121 519 1086 q 454 1206 449 1156 q 504 1290 460 1256 q 606 1325 549 1325 q 699 1290 663 1325 m 1022 1290 q 1040 1273 1022 1290 q 1053 1206 1058 1256 q 1002 1121 1047 1156 q 900 1086 957 1086 q 808 1121 843 1086 q 778 1206 772 1156 q 828 1290 783 1256 q 929 1325 872 1325 q 1022 1290 986 1325 z "},"":{"ha":1296,"x_min":15,"x_max":1294,"o":"m 564 1046 q 852 996 724 1038 q 1062 895 981 954 q 1197 760 1143 836 q 1272 610 1250 683 q 1294 464 1294 538 q 1256 259 1294 356 q 1151 97 1218 163 q 999 -1 1083 32 q 812 -15 914 -33 q 613 74 710 3 q 606 68 610 72 q 599 63 601 64 q 458 -7 538 11 q 354 -22 406 -22 q 142 47 231 -22 q 64 225 53 115 q 103 317 69 276 q 192 380 138 358 q 326 386 246 401 q 494 315 407 371 q 554 900 567 554 q 453 879 492 903 q 406 822 415 856 q 401 756 397 788 q 421 706 406 724 q 449 679 432 692 q 469 661 465 667 q 469 642 474 656 q 443 603 464 629 q 373 550 421 574 q 251 526 325 526 q 114 569 178 526 q 29 722 40 621 q 118 939 15 849 q 564 1046 260 1063 m 315 211 q 340 174 314 188 q 401 170 365 160 q 460 218 436 181 q 385 249 419 244 q 334 242 351 254 q 315 211 317 231 m 713 204 q 926 290 839 168 q 1004 556 1004 400 q 906 806 1003 725 q 860 835 885 824 q 713 204 835 421 z "},"":{"ha":1410,"x_min":15,"x_max":1438,"o":"m 1431 993 l 1436 989 l 1436 986 l 1313 7 q 1304 0 1313 0 l 1049 0 q 1040 7 1043 -1 l 817 586 l 815 471 l 771 7 q 763 0 769 0 l 465 0 l 461 1 q 460 7 458 3 l 517 424 q 521 457 518 432 q 526 497 524 482 q 550 665 536 564 q 572 826 564 767 q 583 911 581 886 q 487 906 532 921 q 422 861 442 890 q 397 798 401 832 q 422 736 393 764 q 449 711 432 722 q 474 694 467 700 q 478 673 481 688 q 456 633 475 658 q 384 581 432 604 q 263 557 336 557 q 125 600 189 557 q 31 756 44 657 q 69 925 17 856 q 233 1050 128 1011 q 448 1082 339 1089 q 657 1056 557 1075 q 821 1014 757 1038 l 885 992 q 1092 458 936 897 l 1094 592 l 1135 986 q 1142 993 1135 992 l 1431 993 m 1346 1293 q 1357 1282 1353 1297 q 1338 1178 1369 1238 q 1111 1068 1278 1063 q 973 1093 1063 1071 q 844 1114 883 1115 q 766 1101 800 1114 q 715 1073 732 1088 q 694 1058 697 1058 q 686 1067 689 1056 q 713 1168 678 1104 q 911 1288 776 1289 l 919 1288 q 1067 1260 986 1285 q 1196 1235 1149 1236 q 1260 1242 1231 1233 q 1304 1260 1289 1250 q 1332 1281 1319 1271 q 1346 1293 1344 1292 z "},"":{"ha":1014,"x_min":19,"x_max":1040,"o":"m 1021 465 q 840 101 994 246 q 468 -32 686 -43 q 137 138 254 -21 q 46 515 19 297 q 228 880 74 733 q 597 1015 383 1026 q 844 930 740 1008 q 994 729 949 851 q 1021 465 1039 607 m 365 499 q 365 333 358 415 q 406 188 372 250 q 488 124 439 126 q 624 233 564 119 q 701 482 685 346 q 702 651 710 568 q 661 795 694 733 q 578 860 628 857 q 443 749 504 864 q 365 499 382 635 m 349 1299 q 351 1310 346 1306 q 531 1419 421 1393 q 539 1417 536 1421 q 601 1259 563 1322 q 714 1121 639 1196 q 715 1111 719 1115 q 658 1043 690 1068 q 647 1044 656 1042 q 349 1299 442 1117 z "},"":{"ha":1014,"x_min":19,"x_max":1040,"o":"m 839 1299 q 510 1044 725 1117 q 499 1043 501 1042 q 451 1111 469 1069 q 454 1121 447 1115 q 583 1259 538 1196 q 664 1417 629 1322 q 672 1419 667 1421 q 838 1310 778 1393 q 839 1299 844 1304 m 1021 465 q 840 101 994 246 q 468 -32 686 -43 q 137 138 254 -21 q 46 515 19 297 q 228 880 74 733 q 597 1015 383 1026 q 844 930 740 1008 q 994 729 949 851 q 1021 465 1039 607 m 365 499 q 365 333 358 415 q 406 188 372 250 q 488 124 439 126 q 624 233 564 119 q 701 482 685 346 q 702 651 710 568 q 661 795 694 733 q 578 860 628 857 q 443 749 504 864 q 365 499 382 635 z "},"":{"ha":1014,"x_min":19,"x_max":1040,"o":"m 1021 465 q 840 101 994 246 q 468 -32 686 -43 q 137 138 254 -21 q 46 515 19 297 q 228 880 74 733 q 597 1015 383 1026 q 844 930 740 1008 q 994 729 949 851 q 1021 465 1039 607 m 365 499 q 365 333 358 415 q 406 188 372 250 q 488 124 439 126 q 624 233 564 119 q 701 482 685 346 q 702 651 710 568 q 661 795 694 733 q 578 860 628 857 q 443 749 504 864 q 365 499 382 635 m 858 1046 l 621 1136 l 356 1050 q 328 1051 333 1043 q 336 1075 322 1060 l 586 1326 l 594 1331 l 690 1331 q 704 1325 699 1331 l 885 1071 q 887 1046 896 1053 q 858 1046 878 1039 z "},"":{"ha":1014,"x_min":18,"x_max":1039,"o":"m 924 1293 q 935 1282 931 1297 q 915 1178 947 1238 q 689 1068 856 1063 q 551 1093 640 1071 q 422 1114 461 1115 q 344 1101 378 1114 q 292 1073 310 1088 q 272 1058 275 1058 q 264 1067 267 1056 q 290 1168 256 1104 q 489 1288 354 1289 l 497 1288 q 645 1260 564 1285 q 774 1235 726 1236 q 838 1242 808 1233 q 882 1260 867 1250 q 910 1281 897 1271 q 924 1293 922 1292 m 1021 465 q 840 101 994 246 q 468 -32 686 -43 q 137 138 254 -21 q 46 515 19 297 q 228 880 74 733 q 597 1015 383 1026 q 844 930 740 1008 q 994 729 949 851 q 1021 465 1039 607 m 365 499 q 365 333 358 415 q 406 188 372 250 q 488 124 439 126 q 624 233 564 119 q 701 482 685 346 q 702 651 710 568 q 661 795 694 733 q 578 860 628 857 q 443 749 504 864 q 365 499 382 635 z "},"":{"ha":1014,"x_min":19,"x_max":1040,"o":"m 1021 465 q 840 101 994 246 q 468 -32 686 -43 q 137 138 254 -21 q 46 515 19 297 q 228 880 74 733 q 597 1015 383 1026 q 844 930 740 1008 q 994 729 949 851 q 1021 465 1039 607 m 365 499 q 365 333 358 415 q 406 188 372 250 q 488 124 439 126 q 624 233 564 119 q 701 482 685 346 q 702 651 710 568 q 661 795 694 733 q 578 860 628 857 q 443 749 504 864 q 365 499 382 635 m 547 1249 q 565 1231 547 1249 q 578 1164 583 1214 q 526 1079 572 1114 q 424 1044 481 1044 q 331 1079 367 1044 q 301 1164 296 1114 q 351 1249 307 1214 q 453 1283 396 1283 q 547 1249 510 1283 m 869 1249 q 888 1231 869 1249 q 900 1164 906 1214 q 849 1079 894 1114 q 747 1044 804 1044 q 655 1079 690 1044 q 625 1164 619 1114 q 675 1249 631 1214 q 776 1283 719 1283 q 869 1249 833 1283 z "},"":{"ha":1001,"x_min":18,"x_max":1014,"o":"m 997 496 q 819 123 971 275 q 450 -29 668 -29 q 264 10 349 -29 l 178 -137 l 165 -143 l 47 -143 l 44 -142 q 47 -137 46 -140 q 67 -108 50 -132 q 117 -34 83 -83 q 182 61 151 15 q 58 247 96 132 q 35 496 19 361 q 215 869 61 715 q 581 1024 368 1024 q 765 985 681 1024 l 833 1099 l 846 1106 l 963 1106 l 965 1104 q 961 1099 965 1103 l 847 932 q 974 744 935 860 q 997 496 1014 629 m 683 496 q 682 676 694 589 l 381 201 q 469 126 415 126 q 567 185 521 126 q 643 327 614 244 q 683 496 672 410 m 349 496 q 349 319 338 400 l 651 792 q 561 868 617 868 q 426 750 488 868 q 349 496 365 632 z "},"":{"ha":1397,"x_min":15,"x_max":1418,"o":"m 1413 990 q 1417 983 1417 989 q 1335 340 1356 529 q 1139 39 1313 143 q 811 -29 989 -50 q 551 108 636 -8 q 500 336 483 203 l 500 338 l 571 908 q 475 903 518 918 q 411 859 432 888 q 390 796 390 831 q 415 733 389 761 q 442 708 425 719 q 465 691 458 697 q 469 670 472 685 q 447 631 467 656 q 376 578 424 601 q 255 554 328 554 q 118 597 182 554 q 40 694 64 635 q 22 813 15 753 q 61 922 28 874 q 224 1045 119 1007 q 430 1081 329 1083 q 642 1056 531 1078 q 803 1017 753 1033 q 879 989 854 1000 l 885 985 l 885 982 l 800 265 q 799 263 799 264 q 850 154 789 182 q 957 167 906 129 q 1011 264 1003 201 l 1100 982 q 1107 990 1100 989 l 1413 990 m 774 1299 q 773 1304 772 1300 q 776 1310 774 1308 q 956 1419 846 1393 q 964 1417 961 1421 q 1026 1259 988 1322 q 1139 1121 1064 1196 q 1140 1111 1144 1115 q 1083 1043 1115 1068 q 1072 1044 1081 1042 q 774 1299 867 1117 z "},"":{"ha":1397,"x_min":15,"x_max":1418,"o":"m 1413 990 q 1417 983 1417 989 q 1335 340 1356 529 q 1139 39 1313 143 q 811 -29 989 -50 q 551 108 636 -8 q 500 336 483 203 l 500 338 l 571 908 q 475 903 518 918 q 411 859 432 888 q 390 796 390 831 q 415 733 389 761 q 442 708 425 719 q 465 691 458 697 q 469 670 472 685 q 447 631 467 656 q 376 578 424 601 q 255 554 328 554 q 118 597 182 554 q 40 694 64 635 q 22 813 15 753 q 61 922 28 874 q 224 1045 119 1007 q 430 1081 329 1083 q 642 1056 531 1078 q 803 1017 753 1033 q 879 989 854 1000 l 885 985 l 885 982 l 800 265 q 799 263 799 264 q 850 154 789 182 q 957 167 906 129 q 1011 264 1003 201 l 1100 982 q 1107 990 1100 989 l 1413 990 m 1260 1299 q 931 1044 1146 1117 q 919 1043 922 1042 q 872 1111 890 1069 q 875 1121 868 1115 q 1004 1259 958 1196 q 1085 1417 1050 1322 q 1093 1419 1088 1421 q 1258 1310 1199 1393 q 1260 1299 1265 1304 z "},"":{"ha":1397,"x_min":15,"x_max":1418,"o":"m 1413 990 q 1417 983 1417 989 q 1335 340 1356 529 q 1139 39 1313 143 q 811 -29 989 -50 q 551 108 636 -8 q 500 336 483 203 l 500 338 l 571 908 q 475 903 518 918 q 411 859 432 888 q 390 796 390 831 q 415 733 389 761 q 442 708 425 719 q 465 691 458 697 q 469 670 472 685 q 447 631 467 656 q 376 578 424 601 q 255 554 328 554 q 118 597 182 554 q 40 694 64 635 q 22 813 15 753 q 61 922 28 874 q 224 1045 119 1007 q 430 1081 329 1083 q 642 1056 531 1078 q 803 1017 753 1033 q 879 989 854 1000 l 885 985 l 885 982 l 800 265 q 799 263 799 264 q 850 154 789 182 q 957 167 906 129 q 1011 264 1003 201 l 1100 982 q 1107 990 1100 989 l 1413 990 m 1243 1074 l 1006 1164 l 740 1078 q 713 1079 718 1071 q 721 1103 707 1088 l 971 1354 l 979 1358 l 1075 1358 q 1089 1353 1083 1358 l 1269 1099 q 1272 1074 1281 1081 q 1243 1074 1263 1067 z "},"":{"ha":1397,"x_min":15,"x_max":1418,"o":"m 1413 990 q 1417 983 1417 989 q 1335 340 1356 529 q 1139 39 1313 143 q 811 -29 989 -50 q 551 108 636 -8 q 500 336 483 203 l 500 338 l 571 908 q 475 903 518 918 q 411 859 432 888 q 390 796 390 831 q 415 733 389 761 q 442 708 425 719 q 465 691 458 697 q 469 670 472 685 q 447 631 467 656 q 376 578 424 601 q 255 554 328 554 q 118 597 182 554 q 40 694 64 635 q 22 813 15 753 q 61 922 28 874 q 224 1045 119 1007 q 430 1081 329 1083 q 642 1056 531 1078 q 803 1017 753 1033 q 879 989 854 1000 l 885 985 l 885 982 l 800 265 q 799 263 799 264 q 850 154 789 182 q 957 167 906 129 q 1011 264 1003 201 l 1100 982 q 1107 990 1100 989 l 1413 990 m 941 1249 q 959 1231 941 1249 q 972 1164 978 1214 q 921 1079 967 1114 q 818 1044 875 1044 q 726 1079 761 1044 q 696 1164 690 1114 q 746 1249 701 1214 q 847 1283 790 1283 q 941 1249 904 1283 m 1264 1249 q 1282 1231 1264 1249 q 1294 1164 1300 1214 q 1244 1079 1289 1114 q 1142 1044 1199 1044 q 1049 1079 1085 1044 q 1019 1164 1014 1114 q 1069 1249 1025 1214 q 1171 1283 1114 1283 q 1264 1249 1228 1283 z "},"":{"ha":1392,"x_min":14,"x_max":1400,"o":"m 1071 971 q 1140 1018 1072 999 q 1317 1008 1242 1047 q 1389 850 1399 965 q 1342 699 1379 769 q 1242 570 1304 628 q 1137 480 1181 513 q 1024 403 1093 447 q 1017 349 1021 381 q 1002 223 1014 318 q 975 7 990 128 q 968 0 974 1 l 669 0 l 664 4 l 664 7 l 672 65 q 718 413 710 328 l 511 913 q 397 847 428 910 q 415 735 367 783 q 442 710 425 721 q 465 692 458 699 q 469 672 472 686 q 447 632 467 657 q 377 579 425 603 q 256 556 329 556 q 118 599 182 556 q 40 695 64 636 q 22 815 15 754 q 61 924 28 875 q 219 1047 119 1008 q 413 1082 319 1085 q 608 1056 506 1079 q 756 1017 710 1033 q 824 990 803 1000 q 832 982 831 990 l 951 558 q 1001 636 979 594 q 1036 716 1024 678 q 1056 790 1049 754 q 1067 858 1064 826 q 1071 913 1069 890 q 1072 953 1072 936 q 1071 971 1071 969 m 1174 1299 q 844 1044 1060 1117 q 833 1043 836 1042 q 786 1111 804 1069 q 789 1121 782 1115 q 918 1259 872 1196 q 999 1417 964 1322 q 1007 1419 1001 1421 q 1172 1310 1113 1393 q 1174 1299 1179 1304 z "},"":{"ha":1317,"x_min":15,"x_max":1310,"o":"m 886 867 q 1076 819 996 851 q 1201 752 1157 788 q 1270 672 1244 717 q 1302 592 1296 626 q 1307 518 1308 557 q 1290 424 1306 471 q 1237 326 1274 376 q 1146 239 1200 276 q 1005 179 1092 201 q 811 161 918 157 l 797 156 l 779 7 q 771 0 778 0 l 490 0 l 486 1 q 486 7 485 3 l 574 724 q 419 657 467 719 q 414 543 372 594 q 442 518 425 529 q 465 501 458 507 q 469 480 472 494 q 446 440 465 465 q 376 388 424 411 q 256 364 329 364 q 117 408 183 364 q 21 567 26 468 q 142 771 15 685 q 593 882 294 874 l 606 985 q 614 992 607 992 l 896 992 l 900 990 q 900 985 901 989 l 886 867 m 1011 517 q 976 646 1017 593 q 865 706 935 699 l 817 304 q 951 370 896 306 q 1011 517 1006 435 z "},"":{"ha":1026,"x_min":26,"x_max":994,"o":"m 813 485 q 940 358 913 394 q 989 211 993 290 q 885 42 983 114 q 631 -32 788 -31 q 426 14 507 -33 q 356 149 344 61 q 404 241 363 201 q 504 281 446 281 q 571 270 538 281 q 607 251 604 260 q 608 234 610 242 q 601 209 606 226 q 594 182 596 192 q 633 110 588 119 q 699 135 672 101 q 679 244 739 182 q 676 249 678 247 q 593 325 650 275 q 503 407 536 375 q 445 488 469 439 q 431 586 421 538 q 463 658 438 624 q 516 715 489 693 q 567 766 543 736 q 593 826 590 796 q 539 931 601 907 q 429 908 482 950 q 382 832 392 879 q 378 753 375 799 q 376 583 381 707 l 306 8 l 299 0 l 32 0 l 28 4 l 28 7 l 111 699 q 226 940 108 844 q 529 1035 344 1035 q 733 1003 636 1036 q 874 903 831 971 q 896 819 900 858 q 865 753 892 781 q 810 694 838 725 q 762 636 782 664 q 753 569 742 608 q 813 485 764 529 z "},"":{"ha":886,"x_min":32,"x_max":864,"o":"m 803 290 q 800 187 794 224 q 816 131 806 150 q 839 106 826 113 q 857 94 851 100 q 858 79 863 89 q 789 12 843 43 q 679 -19 735 -19 q 560 23 607 -19 q 510 139 514 65 q 271 -18 408 -18 q 131 43 188 -18 q 53 193 74 104 q 46 378 33 282 q 152 633 64 529 q 371 738 240 738 q 561 606 504 738 l 574 701 q 576 706 574 704 q 579 708 578 708 l 582 710 l 860 710 q 864 703 864 708 q 803 290 815 386 m 413 174 q 497 226 463 174 q 540 361 531 279 q 528 497 550 443 q 458 550 507 550 q 376 497 410 550 q 332 361 342 443 q 343 226 322 279 q 413 174 364 174 m 299 1021 q 301 1032 296 1028 q 481 1142 371 1115 q 489 1139 486 1143 q 551 981 513 1044 q 664 843 589 918 q 665 833 669 838 q 608 765 640 790 q 597 767 606 764 q 299 1021 392 839 z "},"":{"ha":886,"x_min":32,"x_max":864,"o":"m 803 290 q 800 187 794 224 q 816 131 806 150 q 839 106 826 113 q 857 94 851 100 q 858 79 863 89 q 789 12 843 43 q 679 -19 735 -19 q 560 23 607 -19 q 510 139 514 65 q 271 -18 408 -18 q 131 43 188 -18 q 53 193 74 104 q 46 378 33 282 q 152 633 64 529 q 371 738 240 738 q 561 606 504 738 l 574 701 q 576 706 574 704 q 579 708 578 708 l 582 710 l 860 710 q 864 703 864 708 q 803 290 815 386 m 413 174 q 497 226 463 174 q 540 361 531 279 q 528 497 550 443 q 458 550 507 550 q 376 497 410 550 q 332 361 342 443 q 343 226 322 279 q 413 174 364 174 m 760 1021 q 431 767 646 839 q 419 765 422 764 q 372 833 390 792 q 375 843 368 838 q 504 981 458 918 q 585 1139 550 1044 q 593 1142 588 1143 q 758 1032 699 1115 q 760 1021 765 1026 z "},"":{"ha":886,"x_min":32,"x_max":864,"o":"m 803 290 q 800 187 794 224 q 816 131 806 150 q 839 106 826 113 q 857 94 851 100 q 858 79 863 89 q 789 12 843 43 q 679 -19 735 -19 q 560 23 607 -19 q 510 139 514 65 q 271 -18 408 -18 q 131 43 188 -18 q 53 193 74 104 q 46 378 33 282 q 152 633 64 529 q 371 738 240 738 q 561 606 504 738 l 574 701 q 576 706 574 704 q 579 708 578 708 l 582 710 l 860 710 q 864 703 864 708 q 803 290 815 386 m 413 174 q 497 226 463 174 q 540 361 531 279 q 528 497 550 443 q 458 550 507 550 q 376 497 410 550 q 332 361 342 443 q 343 226 322 279 q 413 174 364 174 m 757 768 l 519 858 l 254 772 q 226 774 232 765 q 235 797 221 782 l 485 1049 l 493 1053 l 589 1053 q 603 1047 597 1053 l 783 793 q 785 768 794 775 q 757 768 776 761 z "},"":{"ha":886,"x_min":32,"x_max":864,"o":"m 803 290 q 800 187 794 224 q 816 131 806 150 q 839 106 826 113 q 857 94 851 100 q 858 79 863 89 q 789 12 843 43 q 679 -19 735 -19 q 560 23 607 -19 q 510 139 514 65 q 271 -18 408 -18 q 131 43 188 -18 q 53 193 74 104 q 46 378 33 282 q 152 633 64 529 q 371 738 240 738 q 561 606 504 738 l 574 701 q 576 706 574 704 q 579 708 578 708 l 582 710 l 860 710 q 864 703 864 708 q 803 290 815 386 m 413 174 q 497 226 463 174 q 540 361 531 279 q 528 497 550 443 q 458 550 507 550 q 376 497 410 550 q 332 361 342 443 q 343 226 322 279 q 413 174 364 174 m 836 1015 q 847 1004 843 1019 q 828 900 860 960 q 601 790 768 785 q 463 815 553 793 q 335 836 374 838 q 256 823 290 836 q 205 795 222 810 q 185 781 188 781 q 176 789 179 778 q 203 890 168 826 q 401 1010 267 1011 l 410 1010 q 558 983 476 1007 q 686 957 639 958 q 750 964 721 956 q 794 983 779 972 q 822 1003 810 993 q 836 1015 835 1014 z "},"":{"ha":886,"x_min":32,"x_max":864,"o":"m 803 290 q 800 187 794 224 q 816 131 806 150 q 839 106 826 113 q 857 94 851 100 q 858 79 863 89 q 789 12 843 43 q 679 -19 735 -19 q 560 23 607 -19 q 510 139 514 65 q 271 -18 408 -18 q 131 43 188 -18 q 53 193 74 104 q 46 378 33 282 q 152 633 64 529 q 371 738 240 738 q 561 606 504 738 l 574 701 q 576 706 574 704 q 579 708 578 708 l 582 710 l 860 710 q 864 703 864 708 q 803 290 815 386 m 413 174 q 497 226 463 174 q 540 361 531 279 q 528 497 550 443 q 458 550 507 550 q 376 497 410 550 q 332 361 342 443 q 343 226 322 279 q 413 174 364 174 m 481 971 q 500 953 481 971 q 513 886 518 936 q 461 801 507 836 q 358 767 415 767 q 266 801 301 767 q 236 886 231 836 q 286 971 242 936 q 388 1006 331 1006 q 481 971 444 1006 m 804 971 q 822 953 804 971 q 835 886 840 936 q 784 801 829 836 q 682 767 739 767 q 590 801 625 767 q 560 886 554 836 q 610 971 565 936 q 711 1006 654 1006 q 804 971 768 1006 z "},"":{"ha":886,"x_min":32,"x_max":864,"o":"m 803 290 q 800 187 794 224 q 816 131 806 150 q 839 106 826 113 q 857 94 851 100 q 858 79 863 89 q 789 12 843 43 q 679 -19 735 -19 q 560 23 607 -19 q 510 139 514 65 q 271 -18 408 -18 q 131 43 188 -18 q 53 193 74 104 q 46 378 33 282 q 152 633 64 529 q 371 738 240 738 q 561 606 504 738 l 574 701 q 576 706 574 704 q 579 708 578 708 l 582 710 l 860 710 q 864 703 864 708 q 803 290 815 386 m 413 174 q 497 226 463 174 q 540 361 531 279 q 528 497 550 443 q 458 550 507 550 q 376 497 410 550 q 332 361 342 443 q 343 226 322 279 q 413 174 364 174 m 715 938 q 647 816 706 867 q 513 765 588 765 q 391 816 438 765 q 353 938 344 867 q 421 1058 361 1008 q 556 1108 481 1108 q 677 1058 631 1108 q 715 938 724 1008 m 589 993 q 581 1004 589 993 q 543 1015 572 1015 q 492 994 514 1015 q 467 938 471 972 q 479 879 463 903 q 524 856 496 856 q 574 879 551 856 q 601 938 597 903 q 589 993 606 971 z "},"":{"ha":749,"x_min":29,"x_max":764,"o":"m 731 226 q 732 204 739 218 q 694 144 721 178 q 626 72 668 110 q 519 8 583 33 q 383 -18 454 -18 q 128 93 225 -18 q 50 361 31 204 q 188 623 69 514 q 465 739 306 732 q 678 688 592 739 q 753 544 764 638 q 703 449 747 492 q 600 406 658 406 q 539 414 568 406 q 506 429 510 422 q 504 443 504 439 q 507 462 504 447 q 511 486 510 476 q 501 556 517 529 q 457 582 486 582 q 367 513 404 582 q 328 361 331 444 q 363 223 325 272 q 460 167 400 174 q 586 176 521 161 q 711 225 651 192 q 731 226 724 233 m 389 7 l 407 7 l 411 3 l 397 -100 q 572 -161 524 -83 q 575 -289 611 -222 q 424 -369 532 -368 q 399 -369 411 -371 q 239 -297 296 -364 q 226 -260 215 -265 q 252 -266 228 -260 q 308 -278 276 -272 q 370 -284 339 -283 q 424 -270 401 -285 q 450 -224 447 -256 q 431 -187 453 -200 q 367 -174 408 -174 q 267 -187 325 -174 q 263 -182 260 -187 q 383 3 336 -62 l 389 7 z "},"":{"ha":793,"x_min":32,"x_max":801,"o":"m 742 218 q 743 196 750 210 q 617 53 718 132 q 382 -26 515 -26 q 128 85 225 -26 q 51 353 32 196 q 194 620 71 510 q 493 731 318 731 q 724 653 649 731 q 790 489 800 576 q 731 359 781 411 q 615 289 682 307 q 472 265 549 271 q 328 275 394 260 q 469 158 350 174 q 724 217 588 143 q 742 218 733 224 m 424 560 q 332 397 357 524 q 472 419 421 389 q 529 507 522 449 q 515 556 533 536 q 464 574 496 575 q 463 572 464 572 l 458 572 q 424 560 439 569 m 260 1021 q 259 1026 258 1022 q 263 1032 260 1031 q 442 1142 332 1115 q 450 1139 447 1143 q 512 981 474 1044 q 625 843 550 918 q 626 833 631 838 q 569 765 601 790 q 558 767 567 764 q 260 1021 353 839 z "},"":{"ha":793,"x_min":32,"x_max":801,"o":"m 742 218 q 743 196 750 210 q 617 53 718 132 q 382 -26 515 -26 q 128 85 225 -26 q 51 353 32 196 q 194 620 71 510 q 493 731 318 731 q 724 653 649 731 q 790 489 800 576 q 731 359 781 411 q 615 289 682 307 q 472 265 549 271 q 328 275 394 260 q 469 158 350 174 q 724 217 588 143 q 742 218 733 224 m 424 560 q 332 397 357 524 q 472 419 421 389 q 529 507 522 449 q 515 556 533 536 q 464 574 496 575 q 463 572 464 572 l 458 572 q 424 560 439 569 m 679 1021 q 350 767 565 839 q 339 765 342 764 q 292 833 310 792 q 294 843 288 838 q 424 981 378 918 q 504 1139 469 1044 q 513 1142 507 1143 q 678 1032 618 1115 q 679 1021 685 1026 z "},"":{"ha":793,"x_min":32,"x_max":801,"o":"m 742 218 q 743 196 750 210 q 617 53 718 132 q 382 -26 515 -26 q 128 85 225 -26 q 51 353 32 196 q 194 620 71 510 q 493 731 318 731 q 724 653 649 731 q 790 489 800 576 q 731 359 781 411 q 615 289 682 307 q 472 265 549 271 q 328 275 394 260 q 469 158 350 174 q 724 217 588 143 q 742 218 733 224 m 424 560 q 332 397 357 524 q 472 419 421 389 q 529 507 522 449 q 515 556 533 536 q 464 574 496 575 q 463 572 464 572 l 458 572 q 424 560 439 569 m 706 768 l 468 858 l 203 772 q 175 774 181 765 q 183 797 169 782 l 433 1049 l 442 1053 l 538 1053 q 551 1047 546 1053 l 732 793 q 734 768 743 775 q 706 768 725 761 z "},"":{"ha":793,"x_min":32,"x_max":801,"o":"m 742 218 q 743 196 750 210 q 617 53 718 132 q 382 -26 515 -26 q 128 85 225 -26 q 51 353 32 196 q 194 620 71 510 q 493 731 318 731 q 724 653 649 731 q 790 489 800 576 q 731 359 781 411 q 615 289 682 307 q 472 265 549 271 q 328 275 394 260 q 469 158 350 174 q 724 217 588 143 q 742 218 733 224 m 424 560 q 332 397 357 524 q 472 419 421 389 q 529 507 522 449 q 515 556 533 536 q 464 574 496 575 q 463 572 464 572 l 458 572 q 424 560 439 569 m 403 971 q 422 953 403 971 q 435 886 440 936 q 383 801 429 836 q 281 767 338 767 q 188 801 224 767 q 158 886 153 836 q 208 971 164 936 q 310 1006 253 1006 q 403 971 367 1006 m 726 971 q 744 953 726 971 q 757 886 763 936 q 706 801 751 836 q 604 767 661 767 q 512 801 547 767 q 482 886 476 836 q 532 971 488 936 q 633 1006 576 1006 q 726 971 690 1006 z "},"":{"ha":426,"x_min":44,"x_max":468,"o":"m 118 694 l 125 703 l 403 703 q 410 696 410 701 q 347 283 360 379 q 344 180 339 217 q 360 124 350 143 q 383 99 371 106 q 401 88 396 93 q 403 72 407 82 q 333 5 388 36 q 224 -26 279 -26 q 91 31 138 -26 q 56 185 44 88 l 118 694 m 96 1021 q 95 1026 94 1022 q 99 1032 96 1031 q 278 1142 168 1115 q 286 1139 283 1143 q 348 981 310 1044 q 461 843 386 918 q 463 833 467 838 q 406 765 438 790 q 394 767 403 764 q 96 1021 189 839 z "},"":{"ha":426,"x_min":44,"x_max":494,"o":"m 488 1021 q 158 767 374 839 q 147 765 150 764 q 100 833 118 792 q 103 843 96 838 q 232 981 186 918 q 313 1139 278 1044 q 321 1142 315 1143 q 486 1032 426 1115 q 488 1021 493 1026 m 118 694 l 125 703 l 403 703 q 410 696 410 701 q 347 283 360 379 q 344 180 339 217 q 360 124 350 143 q 383 99 371 106 q 401 88 396 93 q 403 72 407 82 q 333 5 388 36 q 224 -26 279 -26 q 91 31 138 -26 q 56 185 44 88 l 118 694 z "},"":{"ha":426,"x_min":-29,"x_max":546,"o":"m 113 694 l 119 703 l 397 703 q 404 696 404 701 q 342 283 354 379 q 339 180 333 217 q 355 124 344 143 q 378 99 365 106 q 396 88 390 93 q 397 72 401 82 q 328 5 382 36 q 218 -26 274 -26 q 85 31 132 -26 q 50 185 39 88 l 113 694 m 508 768 l 271 858 l 6 772 q -22 774 -17 765 q -14 797 -28 782 l 236 1049 l 244 1053 l 340 1053 q 354 1047 349 1053 l 535 793 q 537 768 546 775 q 508 768 528 761 z "},"":{"ha":426,"x_min":-21,"x_max":590,"o":"m 264 897 q 214 806 258 843 q 111 768 169 768 q 17 806 54 768 q -14 897 -19 843 q 37 988 -7 950 q 138 1026 81 1026 q 232 988 194 1026 q 264 897 269 950 m 585 897 q 535 806 579 843 q 432 768 490 768 q 338 806 375 768 q 307 897 301 843 q 358 988 314 950 q 458 1026 401 1026 q 553 988 515 1026 q 585 897 590 950 m 113 694 l 119 703 l 397 703 q 404 696 404 701 q 342 283 354 379 q 339 180 333 217 q 355 124 344 143 q 378 99 365 106 q 396 88 390 93 q 397 72 401 82 q 328 5 382 36 q 218 -26 274 -26 q 85 31 132 -26 q 50 185 39 88 l 113 694 z "},"":{"ha":857,"x_min":32,"x_max":864,"o":"m 860 897 l 864 893 l 864 890 l 850 782 q 843 775 849 776 l 774 775 q 786 329 829 572 q 649 72 757 169 q 381 -25 540 -25 q 122 70 210 -25 q 56 321 33 165 q 184 587 79 493 q 422 661 289 681 q 589 542 547 646 q 525 775 583 664 l 301 775 l 297 779 l 297 782 l 311 892 l 318 897 l 443 897 q 371 975 424 922 q 358 989 360 986 q 365 996 358 996 l 664 996 q 674 989 669 996 q 729 897 700 958 l 860 897 m 517 321 q 446 510 539 510 q 329 321 351 510 q 400 133 306 133 q 517 321 492 133 z "},"":{"ha":878,"x_min":33,"x_max":851,"o":"m 781 283 q 778 180 772 217 q 797 124 785 143 q 824 99 810 106 q 844 87 838 93 q 847 71 851 81 q 776 5 831 36 q 667 -26 722 -26 q 528 31 581 -26 q 489 185 476 89 l 522 454 q 489 535 531 528 q 410 486 449 542 q 371 381 379 442 l 325 8 q 318 0 325 1 l 40 0 q 35 7 35 1 q 97 419 85 324 q 100 523 106 486 q 83 578 94 560 q 60 603 72 597 q 42 615 49 610 q 40 631 36 621 q 110 698 56 667 q 219 729 164 729 q 340 685 293 729 q 390 567 386 642 q 512 690 442 650 q 644 729 582 729 q 773 665 725 729 q 808 500 821 601 q 797 408 806 475 q 781 283 788 340 m 768 1015 q 779 1004 775 1019 q 760 900 792 960 q 533 790 700 785 q 395 815 485 793 q 267 836 306 838 q 188 823 222 836 q 137 795 154 810 q 117 781 119 781 q 108 789 111 778 q 135 890 100 826 q 333 1010 199 1011 l 342 1010 q 490 983 408 1007 q 618 957 571 958 q 682 964 653 956 q 726 983 711 972 q 754 1003 742 993 q 768 1015 767 1014 z "},"":{"ha":842,"x_min":32,"x_max":850,"o":"m 256 1021 q 258 1032 253 1028 q 438 1142 328 1115 q 446 1139 443 1143 q 508 981 469 1044 q 621 843 546 918 q 622 833 626 838 q 565 765 597 790 q 554 767 563 764 q 256 1021 349 839 m 751 596 q 800 538 751 596 q 829 322 849 479 q 687 65 810 165 q 394 -25 564 -36 q 130 104 228 -12 q 51 378 32 221 q 197 635 71 533 q 488 725 322 736 q 751 596 654 713 m 325 358 q 335 199 314 264 q 414 131 357 135 q 508 185 472 126 q 556 342 543 243 q 547 501 568 438 q 468 569 525 565 q 374 514 410 574 q 325 358 338 454 z "},"":{"ha":842,"x_min":32,"x_max":849,"o":"m 661 1021 q 332 767 547 839 q 321 765 324 764 q 274 833 292 792 q 276 843 269 838 q 406 981 360 918 q 486 1139 451 1044 q 494 1142 489 1143 q 660 1032 600 1115 q 661 1021 667 1026 m 751 596 q 800 538 751 596 q 829 322 849 479 q 687 65 810 165 q 394 -25 564 -36 q 130 104 228 -12 q 51 378 32 221 q 197 635 71 533 q 488 725 322 736 q 751 596 654 713 m 325 358 q 335 199 314 264 q 414 131 357 135 q 508 185 472 126 q 556 342 543 243 q 547 501 568 438 q 468 569 525 565 q 374 514 410 574 q 325 358 338 454 z "},"":{"ha":842,"x_min":32,"x_max":849,"o":"m 751 596 q 800 538 751 596 q 829 322 849 479 q 687 65 810 165 q 394 -25 564 -36 q 130 104 228 -12 q 51 378 32 221 q 197 635 71 533 q 488 725 322 736 q 751 596 654 713 m 325 358 q 335 199 314 264 q 414 131 357 135 q 508 185 472 126 q 556 342 543 243 q 547 501 568 438 q 468 569 525 565 q 374 514 410 574 q 325 358 338 454 m 717 768 l 479 858 l 214 772 q 186 774 192 765 q 194 797 181 782 l 444 1049 l 453 1053 l 549 1053 q 563 1047 557 1053 l 743 793 q 745 768 754 775 q 717 768 736 761 z "},"":{"ha":842,"x_min":31,"x_max":849,"o":"m 782 1015 q 793 1004 789 1019 q 774 900 806 960 q 547 790 714 785 q 409 815 499 793 q 281 836 319 838 q 202 823 236 836 q 151 795 168 810 q 131 781 133 781 q 122 789 125 778 q 149 890 114 826 q 347 1010 213 1011 l 356 1010 q 503 983 422 1007 q 632 957 585 958 q 696 964 667 956 q 740 983 725 972 q 768 1003 756 993 q 782 1015 781 1014 m 751 596 q 800 538 751 596 q 829 322 849 479 q 687 65 810 165 q 394 -25 564 -36 q 130 104 228 -12 q 51 378 32 221 q 197 635 71 533 q 488 725 322 736 q 751 596 654 713 m 325 358 q 335 199 314 264 q 414 131 357 135 q 508 185 472 126 q 556 342 543 243 q 547 501 568 438 q 468 569 525 565 q 374 514 410 574 q 325 358 338 454 z "},"":{"ha":842,"x_min":32,"x_max":850,"o":"m 426 971 q 444 953 426 971 q 457 886 463 936 q 406 801 451 836 q 303 767 360 767 q 210 801 246 767 q 181 886 175 836 q 231 971 186 936 q 332 1006 275 1006 q 426 971 389 1006 m 749 971 q 767 953 749 971 q 779 886 785 936 q 728 801 774 836 q 626 767 683 767 q 534 801 569 767 q 504 886 499 836 q 554 971 510 936 q 656 1006 599 1006 q 749 971 713 1006 m 751 596 q 800 538 751 596 q 829 322 849 479 q 687 65 810 165 q 394 -25 564 -36 q 130 104 228 -12 q 51 378 32 221 q 197 635 71 533 q 488 725 322 736 q 751 596 654 713 m 325 358 q 335 199 314 264 q 414 131 357 135 q 508 185 472 126 q 556 342 543 243 q 547 501 568 438 q 468 569 525 565 q 374 514 410 574 q 325 358 338 454 z "},"":{"ha":679,"x_min":28,"x_max":651,"o":"m 251 198 q 268 213 251 198 q 328 228 285 228 q 398 198 371 228 q 419 125 425 168 q 380 51 414 82 q 303 21 346 21 q 233 51 260 21 q 211 125 206 82 q 251 198 217 168 m 434 484 q 417 469 434 484 q 357 454 400 454 q 287 484 314 454 q 265 557 260 514 q 305 631 271 600 q 382 661 339 661 q 452 631 425 661 q 474 557 479 600 q 434 484 468 514 m 650 401 l 635 279 q 629 275 635 275 l 35 275 l 28 281 l 43 400 q 51 407 44 407 l 644 407 q 650 401 650 406 z "},"":{"ha":840,"x_min":29,"x_max":832,"o":"m 819 346 q 677 77 800 186 q 385 -32 554 -32 q 253 -10 315 -32 l 176 -142 l 168 -146 l 68 -146 l 67 -146 l 68 -142 q 85 -117 71 -137 q 129 -55 100 -96 q 183 24 158 -14 q 68 158 106 74 q 42 346 31 243 q 186 614 61 504 q 478 724 311 724 q 610 700 550 724 l 679 819 l 688 825 l 786 825 q 786 819 790 825 l 678 667 q 794 531 757 617 q 819 346 832 446 m 315 346 q 315 228 307 281 l 514 542 q 458 567 493 567 q 364 505 400 567 q 315 346 328 443 m 546 346 q 546 461 554 410 l 349 149 q 404 125 368 125 q 546 346 518 125 z "},"":{"ha":868,"x_min":36,"x_max":844,"o":"m 782 282 q 782 161 774 203 q 806 108 790 119 q 833 89 822 96 q 838 71 843 82 q 767 3 821 35 q 658 -28 714 -28 q 540 15 586 -28 q 489 132 494 57 q 372 11 438 50 q 244 -28 307 -28 q 117 36 165 -28 q 82 201 69 100 l 108 418 q 110 522 115 485 q 92 577 104 558 q 65 602 79 596 q 44 614 51 608 q 42 629 38 619 q 112 697 58 665 q 221 728 165 728 q 360 670 308 728 q 401 517 413 613 l 368 247 q 397 167 360 174 q 469 214 435 160 q 506 311 497 254 l 553 693 l 560 701 l 839 701 l 843 697 l 843 694 q 782 282 793 378 m 254 1021 q 257 1032 251 1028 q 436 1142 326 1115 q 444 1139 442 1143 q 506 981 468 1044 q 619 843 544 918 q 621 833 625 838 q 564 765 596 790 q 553 767 561 764 q 254 1021 347 839 z "},"":{"ha":868,"x_min":36,"x_max":844,"o":"m 782 282 q 782 161 774 203 q 806 108 790 119 q 833 89 822 96 q 838 71 843 82 q 767 3 821 35 q 658 -28 714 -28 q 540 15 586 -28 q 489 132 494 57 q 372 11 438 50 q 244 -28 307 -28 q 117 36 165 -28 q 82 201 69 100 l 108 418 q 110 522 115 485 q 92 577 104 558 q 65 602 79 596 q 44 614 51 608 q 42 629 38 619 q 112 697 58 665 q 221 728 165 728 q 360 670 308 728 q 401 517 413 613 l 368 247 q 397 167 360 174 q 469 214 435 160 q 506 311 497 254 l 553 693 l 560 701 l 839 701 l 843 697 l 843 694 q 782 282 793 378 m 688 1021 q 358 767 574 839 q 347 765 350 764 q 300 833 318 792 q 303 843 296 838 q 432 981 386 918 q 513 1139 478 1044 q 521 1142 515 1143 q 686 1032 626 1115 q 688 1021 693 1026 z "},"":{"ha":868,"x_min":36,"x_max":844,"o":"m 782 282 q 782 161 774 203 q 806 108 790 119 q 833 89 822 96 q 838 71 843 82 q 767 3 821 35 q 658 -28 714 -28 q 540 15 586 -28 q 489 132 494 57 q 372 11 438 50 q 244 -28 307 -28 q 117 36 165 -28 q 82 201 69 100 l 108 418 q 110 522 115 485 q 92 577 104 558 q 65 602 79 596 q 44 614 51 608 q 42 629 38 619 q 112 697 58 665 q 221 728 165 728 q 360 670 308 728 q 401 517 413 613 l 368 247 q 397 167 360 174 q 469 214 435 160 q 506 311 497 254 l 553 693 l 560 701 l 839 701 l 843 697 l 843 694 q 782 282 793 378 m 714 768 l 476 858 l 211 772 q 183 774 189 765 q 192 797 178 782 l 442 1049 l 450 1053 l 546 1053 q 560 1047 554 1053 l 740 793 q 742 768 751 775 q 714 768 733 761 z "},"":{"ha":868,"x_min":36,"x_max":844,"o":"m 782 282 q 782 161 774 203 q 806 108 790 119 q 833 89 822 96 q 838 71 843 82 q 767 3 821 35 q 658 -28 714 -28 q 540 15 586 -28 q 489 132 494 57 q 372 11 438 50 q 244 -28 307 -28 q 117 36 165 -28 q 82 201 69 100 l 108 418 q 110 522 115 485 q 92 577 104 558 q 65 602 79 596 q 44 614 51 608 q 42 629 38 619 q 112 697 58 665 q 221 728 165 728 q 360 670 308 728 q 401 517 413 613 l 368 247 q 397 167 360 174 q 469 214 435 160 q 506 311 497 254 l 553 693 l 560 701 l 839 701 l 843 697 l 843 694 q 782 282 793 378 m 438 971 q 457 953 438 971 q 469 886 475 936 q 418 801 464 836 q 315 767 372 767 q 223 801 258 767 q 193 886 188 836 q 243 971 199 936 q 344 1006 288 1006 q 438 971 401 1006 m 761 971 q 779 953 761 971 q 792 886 797 936 q 741 801 786 836 q 639 767 696 767 q 547 801 582 767 q 517 886 511 836 q 567 971 522 936 q 668 1006 611 1006 q 761 971 725 1006 z "},"":{"ha":853,"x_min":35,"x_max":835,"o":"m 764 103 q 633 -196 747 -82 q 331 -310 519 -310 q 202 -288 260 -310 q 113 -235 144 -267 q 63 -174 81 -203 q 42 -121 46 -144 q 37 -70 35 -87 q 44 -47 39 -53 q 57 -43 49 -42 q 83 -62 67 -44 q 119 -101 100 -81 q 179 -137 138 -121 q 274 -154 221 -154 q 406 -108 353 -154 q 472 4 460 -62 l 489 143 q 373 21 439 60 q 244 -18 307 -18 q 117 46 165 -18 q 82 211 69 110 l 107 419 q 109 523 115 486 q 90 578 103 560 q 65 603 78 597 q 44 615 51 610 q 40 631 36 621 q 111 698 57 667 q 221 729 165 729 q 360 672 308 729 q 399 518 411 614 l 367 257 q 397 176 358 182 q 472 226 436 169 q 508 329 500 271 l 554 694 q 560 701 554 700 l 828 701 q 833 694 833 701 q 764 103 788 288 m 693 1021 q 364 767 579 839 q 353 765 356 764 q 306 833 324 792 q 308 843 301 838 q 438 981 392 918 q 518 1139 483 1044 q 526 1142 521 1143 q 692 1032 632 1115 q 693 1021 699 1026 z "},"":{"ha":863,"x_min":7,"x_max":847,"o":"m 614 729 q 792 616 738 729 q 829 350 847 503 q 727 84 810 194 q 515 -26 644 -26 q 335 94 389 -26 l 288 -297 l 285 -304 l 17 -304 l 10 -303 l 8 -297 q 136 725 135 717 q 135 845 144 800 q 111 900 126 890 q 85 917 96 910 q 79 936 74 925 q 150 1003 96 972 q 260 1035 204 1035 q 392 977 346 1035 q 426 824 439 919 q 396 592 426 819 q 614 729 489 729 m 544 350 q 472 538 567 538 q 396 486 425 538 q 357 350 367 435 q 426 161 335 161 q 505 213 475 161 q 544 350 535 265 z "},"":{"ha":853,"x_min":35,"x_max":835,"o":"m 764 103 q 633 -196 747 -82 q 331 -310 519 -310 q 202 -288 260 -310 q 113 -235 144 -267 q 63 -174 81 -203 q 42 -121 46 -144 q 37 -70 35 -87 q 44 -47 39 -53 q 57 -43 49 -42 q 83 -62 67 -44 q 119 -101 100 -81 q 179 -137 138 -121 q 274 -154 221 -154 q 406 -108 353 -154 q 472 4 460 -62 l 489 143 q 373 21 439 60 q 244 -18 307 -18 q 117 46 165 -18 q 82 211 69 110 l 107 419 q 109 523 115 486 q 90 578 103 560 q 65 603 78 597 q 44 615 51 610 q 40 631 36 621 q 111 698 57 667 q 221 729 165 729 q 360 672 308 729 q 399 518 411 614 l 367 257 q 397 176 358 182 q 472 226 436 169 q 508 329 500 271 l 554 694 q 560 701 554 700 l 828 701 q 833 694 833 701 q 764 103 788 288 m 440 971 q 458 953 440 971 q 471 886 476 936 q 419 801 465 836 q 317 767 374 767 q 224 801 260 767 q 194 886 189 836 q 244 971 200 936 q 346 1006 289 1006 q 440 971 403 1006 m 763 971 q 781 953 763 971 q 793 886 799 936 q 742 801 788 836 q 640 767 697 767 q 548 801 583 767 q 518 886 513 836 q 568 971 524 936 q 669 1006 613 1006 q 763 971 726 1006 z "},"":{"ha":1397,"x_min":18,"x_max":1453,"o":"m 1418 1014 l 1424 1006 q 1318 6 1349 554 q 1313 0 1318 0 l 988 0 l 983 6 l 1025 315 l 863 315 q 426 -29 676 -10 q 244 -10 326 -36 q 112 65 161 17 q 41 177 63 114 q 32 306 19 240 q 112 441 50 396 q 253 486 174 486 q 365 460 308 486 q 414 408 421 433 q 478 257 365 268 q 651 360 556 249 q 819 624 746 472 q 935 921 892 775 q 751 924 821 935 q 644 890 682 913 q 593 837 606 868 q 583 781 581 806 q 599 739 586 756 q 626 715 610 726 q 651 699 643 704 q 656 679 658 693 q 633 639 653 665 q 563 585 611 608 q 444 558 514 563 q 304 594 375 553 q 200 738 228 638 q 214 917 172 839 q 369 1049 267 1013 q 638 1086 471 1086 q 812 1080 713 1086 q 1010 1063 911 1074 q 1187 1043 1110 1053 q 1338 1024 1264 1033 q 1418 1014 1413 1015 m 1092 883 q 950 493 1017 644 l 1049 493 l 1100 881 q 1098 892 1101 892 q 1092 883 1094 892 m 907 1253 l 1449 1253 l 1453 1249 l 1453 1246 l 1439 1151 q 1432 1144 1438 1146 l 890 1144 l 886 1149 l 886 1151 l 900 1247 l 907 1253 z "},"":{"ha":886,"x_min":32,"x_max":864,"o":"m 803 290 q 800 187 794 224 q 816 131 806 150 q 839 106 826 113 q 857 94 851 100 q 858 79 863 89 q 789 12 843 43 q 679 -19 735 -19 q 560 23 607 -19 q 510 139 514 65 q 271 -18 408 -18 q 131 43 188 -18 q 53 193 74 104 q 46 378 33 282 q 152 633 64 529 q 371 738 240 738 q 561 606 504 738 l 574 701 q 576 706 574 704 q 579 708 578 708 l 582 710 l 860 710 q 864 703 864 708 q 803 290 815 386 m 413 174 q 497 226 463 174 q 540 361 531 279 q 528 497 550 443 q 458 550 507 550 q 376 497 410 550 q 332 361 342 443 q 343 226 322 279 q 413 174 364 174 m 235 975 l 776 975 l 781 971 l 781 968 l 767 874 q 760 867 765 868 l 218 867 l 214 871 l 214 874 l 228 969 l 235 975 z "},"":{"ha":1397,"x_min":18,"x_max":1453,"o":"m 1418 1014 l 1424 1006 q 1318 6 1349 554 q 1313 0 1318 0 l 988 0 l 983 6 l 1025 315 l 863 315 q 426 -29 676 -10 q 244 -10 326 -36 q 112 65 161 17 q 41 177 63 114 q 32 306 19 240 q 112 441 50 396 q 253 486 174 486 q 365 460 308 486 q 414 408 421 433 q 478 257 365 268 q 651 360 556 249 q 819 624 746 472 q 935 921 892 775 q 751 924 821 935 q 644 890 682 913 q 593 837 606 868 q 583 781 581 806 q 599 739 586 756 q 626 715 610 726 q 651 699 643 704 q 656 679 658 693 q 633 639 653 665 q 563 585 611 608 q 444 558 514 563 q 304 594 375 553 q 200 738 228 638 q 214 917 172 839 q 369 1049 267 1013 q 638 1086 471 1086 q 812 1080 713 1086 q 1010 1063 911 1074 q 1187 1043 1110 1053 q 1338 1024 1264 1033 q 1418 1014 1413 1015 m 1092 883 q 950 493 1017 644 l 1049 493 l 1100 881 q 1098 892 1101 892 q 1092 883 1094 892 m 1428 1331 q 1407 1244 1453 1317 q 1278 1122 1357 1167 q 1119 1076 1200 1076 q 970 1122 1039 1076 q 872 1244 901 1168 q 871 1331 846 1317 q 896 1319 878 1333 q 939 1285 914 1306 q 1018 1249 964 1265 q 1139 1232 1072 1232 q 1244 1243 1194 1232 q 1323 1269 1293 1254 q 1375 1300 1353 1285 q 1410 1324 1397 1315 q 1428 1331 1422 1333 z "},"":{"ha":886,"x_min":32,"x_max":864,"o":"m 803 290 q 800 187 794 224 q 816 131 806 150 q 839 106 826 113 q 857 94 851 100 q 858 79 863 89 q 789 12 843 43 q 679 -19 735 -19 q 560 23 607 -19 q 510 139 514 65 q 271 -18 408 -18 q 131 43 188 -18 q 53 193 74 104 q 46 378 33 282 q 152 633 64 529 q 371 738 240 738 q 561 606 504 738 l 574 701 q 576 706 574 704 q 579 708 578 708 l 582 710 l 860 710 q 864 703 864 708 q 803 290 815 386 m 413 174 q 497 226 463 174 q 540 361 531 279 q 528 497 550 443 q 458 550 507 550 q 376 497 410 550 q 332 361 342 443 q 343 226 322 279 q 413 174 364 174 m 831 1024 q 810 938 856 1010 q 681 815 760 860 q 522 769 603 769 q 373 815 442 769 q 275 938 304 861 q 274 1024 249 1010 q 299 1013 281 1026 q 342 978 317 999 q 421 942 367 958 q 542 925 475 925 q 647 936 597 925 q 726 963 696 947 q 778 993 756 978 q 813 1017 800 1008 q 831 1024 825 1026 z "},"":{"ha":1397,"x_min":18,"x_max":1424,"o":"m 1418 1014 l 1424 1006 q 1318 6 1349 554 q 1313 0 1318 0 l 988 0 l 983 6 l 1025 315 l 863 315 q 426 -29 676 -10 q 244 -10 326 -36 q 112 65 161 17 q 41 177 63 114 q 32 306 19 240 q 112 441 50 396 q 253 486 174 486 q 365 460 308 486 q 414 408 421 433 q 478 257 365 268 q 651 360 556 249 q 819 624 746 472 q 935 921 892 775 q 751 924 821 935 q 644 890 682 913 q 593 837 606 868 q 583 781 581 806 q 599 739 586 756 q 626 715 610 726 q 651 699 643 704 q 656 679 658 693 q 633 639 653 665 q 563 585 611 608 q 444 558 514 563 q 304 594 375 553 q 200 738 228 638 q 214 917 172 839 q 369 1049 267 1013 q 638 1086 471 1086 q 812 1080 713 1086 q 1010 1063 911 1074 q 1187 1043 1110 1053 q 1338 1024 1264 1033 q 1418 1014 1413 1015 m 1092 883 q 950 493 1017 644 l 1049 493 l 1100 881 q 1098 892 1101 892 q 1092 883 1094 892 m 981 -225 q 1153 -11 1006 -81 q 1264 18 1226 24 q 1269 13 1269 15 q 1238 -23 1269 11 q 1183 -93 1206 -57 q 1157 -167 1161 -129 q 1217 -229 1150 -229 q 1250 -224 1232 -229 q 1275 -217 1268 -219 q 1286 -218 1282 -215 q 1257 -321 1307 -262 q 1133 -385 1207 -379 q 1053 -371 1088 -387 q 1004 -326 1019 -354 q 983 -272 989 -299 q 981 -225 976 -244 z "},"":{"ha":886,"x_min":32,"x_max":864,"o":"m 803 290 q 800 187 794 224 q 816 131 806 150 q 839 106 826 113 q 857 94 851 100 q 858 79 863 89 q 789 12 843 43 q 679 -19 735 -19 q 560 23 607 -19 q 510 139 514 65 q 271 -18 408 -18 q 131 43 188 -18 q 53 193 74 104 q 46 378 33 282 q 152 633 64 529 q 371 738 240 738 q 561 606 504 738 l 574 701 q 576 706 574 704 q 579 708 578 708 l 582 710 l 860 710 q 864 703 864 708 q 803 290 815 386 m 413 174 q 497 226 463 174 q 540 361 531 279 q 528 497 550 443 q 458 550 507 550 q 376 497 410 550 q 332 361 342 443 q 343 226 322 279 q 413 174 364 174 m 503 -225 q 675 -11 528 -81 q 786 18 749 24 q 792 13 792 15 q 760 -23 792 11 q 706 -93 728 -57 q 679 -167 683 -129 q 739 -229 672 -229 q 772 -224 754 -229 q 797 -217 790 -219 q 808 -218 804 -215 q 779 -321 829 -262 q 656 -385 729 -379 q 576 -371 610 -387 q 526 -326 542 -354 q 505 -272 511 -299 q 503 -225 499 -244 z "},"":{"ha":1446,"x_min":15,"x_max":1469,"o":"m 1425 763 q 1372 688 1406 717 q 1296 651 1339 660 q 1209 642 1253 642 q 1110 656 1165 642 q 1014 683 1056 669 q 918 717 972 696 q 878 613 894 675 q 861 497 861 551 q 913 292 861 369 q 1042 197 965 214 q 1207 201 1119 179 q 1367 282 1294 224 q 1393 279 1394 303 q 1385 250 1392 268 q 1362 201 1378 229 q 1310 133 1346 174 q 1229 60 1274 93 q 1114 3 1185 28 q 963 -22 1043 -21 q 640 131 760 -26 q 543 508 519 289 q 656 799 557 647 q 494 813 576 826 q 396 736 413 800 q 410 659 386 700 q 431 611 435 618 q 352 531 407 560 q 228 508 297 503 q 78 580 133 518 q 19 735 22 642 q 160 950 15 872 q 775 926 381 1065 q 1118 1029 926 1029 q 1376 949 1282 1031 q 1425 763 1469 867 m 1168 829 q 1136 872 1182 861 q 1004 846 1074 888 q 990 836 997 842 q 1061 812 1025 821 q 1128 806 1097 803 q 1168 829 1160 808 m 1338 1299 q 1008 1044 1224 1117 q 997 1043 1000 1042 q 950 1111 968 1069 q 953 1121 946 1115 q 1082 1259 1036 1196 q 1163 1417 1128 1322 q 1171 1419 1165 1421 q 1336 1310 1276 1393 q 1338 1299 1343 1304 z "},"":{"ha":749,"x_min":29,"x_max":764,"o":"m 731 226 q 732 204 739 218 q 694 144 721 178 q 626 72 668 110 q 519 8 583 33 q 383 -18 454 -18 q 128 93 225 -18 q 50 361 31 204 q 188 623 69 514 q 465 739 306 732 q 678 688 592 739 q 753 544 764 638 q 703 449 747 492 q 600 406 658 406 q 539 414 568 406 q 506 429 510 422 q 504 443 504 439 q 507 462 504 447 q 511 486 510 476 q 501 556 517 529 q 457 582 486 582 q 367 513 404 582 q 328 361 331 444 q 363 223 325 272 q 460 167 400 174 q 586 176 521 161 q 711 225 651 192 q 731 226 724 233 m 672 1021 q 343 767 558 839 q 332 765 335 764 q 285 833 303 792 q 288 843 281 838 q 417 981 371 918 q 497 1139 463 1044 q 506 1142 500 1143 q 671 1032 611 1115 q 672 1021 678 1026 z "},"":{"ha":1446,"x_min":15,"x_max":1469,"o":"m 1425 763 q 1372 688 1406 717 q 1296 651 1339 660 q 1209 642 1253 642 q 1110 656 1165 642 q 1014 683 1056 669 q 918 717 972 696 q 878 613 894 675 q 861 497 861 551 q 913 292 861 369 q 1042 197 965 214 q 1207 201 1119 179 q 1367 282 1294 224 q 1393 279 1394 303 q 1385 250 1392 268 q 1362 201 1378 229 q 1310 133 1346 174 q 1229 60 1274 93 q 1114 3 1185 28 q 963 -22 1043 -21 q 640 131 760 -26 q 543 508 519 289 q 656 799 557 647 q 494 813 576 826 q 396 736 413 800 q 410 659 386 700 q 431 611 435 618 q 352 531 407 560 q 228 508 297 503 q 78 580 133 518 q 19 735 22 642 q 160 950 15 872 q 775 926 381 1065 q 1118 1029 926 1029 q 1376 949 1282 1031 q 1425 763 1469 867 m 1168 829 q 1136 872 1182 861 q 1004 846 1074 888 q 990 836 997 842 q 1061 812 1025 821 q 1128 806 1097 803 q 1168 829 1160 808 m 1422 1361 q 1450 1361 1442 1368 q 1443 1336 1458 1354 l 1199 1082 q 1185 1076 1193 1076 l 1089 1076 q 1081 1081 1083 1076 l 892 1332 q 888 1356 881 1347 q 917 1357 896 1364 l 1163 1271 l 1422 1361 z "},"":{"ha":749,"x_min":29,"x_max":786,"o":"m 731 226 q 732 204 739 218 q 694 144 721 178 q 626 72 668 110 q 519 8 583 33 q 383 -18 454 -18 q 128 93 225 -18 q 50 361 31 204 q 188 623 69 514 q 465 739 306 732 q 678 688 592 739 q 753 544 764 638 q 703 449 747 492 q 600 406 658 406 q 539 414 568 406 q 506 429 510 422 q 504 443 504 439 q 507 462 504 447 q 511 486 510 476 q 501 556 517 529 q 457 582 486 582 q 367 513 404 582 q 328 361 331 444 q 363 223 325 272 q 460 167 400 174 q 586 176 521 161 q 711 225 651 192 q 731 226 724 233 m 750 1056 q 778 1056 769 1063 q 771 1031 786 1049 l 526 776 q 513 771 521 771 l 417 771 q 408 775 411 771 l 219 1026 q 216 1050 208 1042 q 244 1051 224 1058 l 490 965 l 750 1056 z "},"":{"ha":1296,"x_min":15,"x_max":1294,"o":"m 564 1046 q 852 996 724 1038 q 1062 895 981 954 q 1197 760 1143 836 q 1272 610 1250 683 q 1294 464 1294 538 q 1256 259 1294 356 q 1151 97 1218 163 q 999 -1 1083 32 q 812 -15 914 -33 q 613 74 710 3 q 606 68 610 72 q 599 63 601 64 q 458 -7 538 11 q 354 -22 406 -22 q 142 47 231 -22 q 64 225 53 115 q 103 317 69 276 q 192 380 138 358 q 326 386 246 401 q 494 315 407 371 q 554 900 567 554 q 453 879 492 903 q 406 822 415 856 q 401 756 397 788 q 421 706 406 724 q 449 679 432 692 q 469 661 465 667 q 469 642 474 656 q 443 603 464 629 q 373 550 421 574 q 251 526 325 526 q 114 569 178 526 q 29 722 40 621 q 118 939 15 849 q 564 1046 260 1063 m 315 211 q 340 174 314 188 q 401 170 365 160 q 460 218 436 181 q 385 249 419 244 q 334 242 351 254 q 315 211 317 231 m 713 204 q 926 290 839 168 q 1004 556 1004 400 q 906 806 1003 725 q 860 835 885 824 q 713 204 835 421 m 982 1361 q 1010 1361 1001 1368 q 1003 1336 1018 1354 l 758 1082 q 744 1076 753 1076 l 649 1076 q 640 1081 643 1076 l 451 1332 q 448 1356 440 1347 q 476 1357 456 1364 l 722 1271 l 982 1361 z "},"":{"ha":1183,"x_min":32,"x_max":1188,"o":"m 814 283 q 812 163 806 204 q 833 109 818 121 q 856 90 847 97 q 858 72 864 83 q 789 5 843 36 q 679 -26 735 -26 q 561 16 607 -26 q 510 132 515 58 q 271 -26 408 -26 q 131 31 188 -26 q 53 172 74 88 q 46 353 33 257 q 153 617 65 506 q 371 729 240 729 q 563 597 504 729 l 611 994 q 618 1001 613 1000 l 896 1001 q 901 996 901 1001 q 814 283 825 379 m 342 218 q 352 192 342 218 q 413 165 363 165 q 497 218 463 165 q 540 353 531 271 q 529 488 550 435 q 460 542 508 542 q 375 488 410 542 q 331 353 340 433 q 342 218 321 271 m 1181 861 q 1137 750 1174 799 q 1067 681 1100 701 q 1004 650 1035 661 q 963 640 978 640 q 943 642 947 639 q 940 653 939 646 q 967 685 942 665 q 1004 764 1043 750 q 951 810 969 779 q 938 881 932 842 q 983 965 944 931 q 1074 1000 1022 1000 q 1156 958 1124 1000 q 1181 861 1188 917 z "},"":{"ha":1296,"x_min":15,"x_max":1294,"o":"m 564 1046 q 852 996 724 1038 q 1062 895 981 954 q 1197 760 1143 836 q 1272 610 1250 683 q 1294 464 1294 538 q 1256 259 1294 356 q 1151 97 1218 163 q 999 -1 1083 32 q 812 -15 914 -33 q 613 74 710 3 q 606 68 610 72 q 599 63 601 64 q 458 -7 538 11 q 354 -22 406 -22 q 142 47 231 -22 q 64 225 53 115 q 103 317 69 276 q 192 380 138 358 q 326 386 246 401 q 494 315 407 371 q 554 900 567 554 q 453 879 492 903 q 406 822 415 856 q 401 756 397 788 q 421 706 406 724 q 449 679 432 692 q 469 661 465 667 q 469 642 474 656 q 443 603 464 629 q 373 550 421 574 q 251 526 325 526 q 114 569 178 526 q 29 722 40 621 q 118 939 15 849 q 564 1046 260 1063 m 315 211 q 340 174 314 188 q 401 170 365 160 q 460 218 436 181 q 385 249 419 244 q 334 242 351 254 q 315 211 317 231 m 713 204 q 926 290 839 168 q 1004 556 1004 400 q 906 806 1003 725 q 860 835 885 824 q 713 204 835 421 z "},"":{"ha":896,"x_min":32,"x_max":985,"o":"m 438 901 l 603 901 l 611 994 q 618 1001 613 1000 l 896 1001 q 901 996 901 1001 q 888 901 893 954 l 979 901 l 983 897 l 983 894 l 969 786 q 963 779 968 781 l 875 779 l 814 283 q 812 163 806 204 q 833 109 818 121 q 856 90 847 97 q 858 72 864 83 q 789 5 843 36 q 679 -26 735 -26 q 561 16 607 -26 q 510 132 515 58 q 271 -26 408 -26 q 131 31 188 -26 q 53 172 74 88 q 46 353 33 257 q 153 617 65 506 q 371 729 240 729 q 563 597 504 729 q 569 658 565 626 q 578 725 574 689 q 585 779 582 761 l 421 779 l 417 783 l 417 786 l 431 896 l 438 901 m 342 218 q 352 192 342 218 q 413 165 363 165 q 497 218 463 165 q 540 353 531 271 q 529 488 550 435 q 460 542 508 542 q 375 488 410 542 q 331 353 340 433 q 342 218 321 271 z "},"":{"ha":1319,"x_min":17,"x_max":1347,"o":"m 1104 757 q 860 806 1029 757 q 845 690 856 772 q 831 582 835 607 l 1060 582 l 1067 578 l 1067 575 l 1049 436 q 1040 429 1049 429 l 811 429 q 799 329 799 331 q 853 218 790 251 q 1003 196 917 185 q 1158 247 1090 207 q 1187 249 1179 260 q 1186 214 1194 239 q 1151 145 1178 183 q 1080 66 1125 107 q 961 0 1035 25 q 803 -21 888 -25 q 553 95 633 -12 q 493 357 474 203 l 560 889 l 558 889 q 460 869 499 892 q 411 813 422 846 q 403 749 400 781 q 421 703 406 718 q 447 678 431 689 q 471 660 464 667 q 475 640 478 654 q 453 600 472 625 q 381 547 429 571 q 260 524 333 524 q 124 567 188 524 q 30 722 43 622 q 67 892 17 821 q 162 976 99 942 q 284 1024 225 1010 q 421 1042 343 1038 q 532 1047 499 1047 q 604 1043 565 1046 q 799 1028 658 1040 q 1008 1012 940 1015 q 1160 1019 1075 1008 q 1288 1060 1244 1029 q 1324 1028 1310 1074 q 1311 876 1346 956 q 1104 757 1258 756 m 590 1211 l 1132 1211 l 1136 1207 l 1136 1204 l 1122 1110 q 1115 1103 1121 1104 l 574 1103 l 569 1107 l 569 1110 l 583 1206 l 590 1211 z "},"":{"ha":793,"x_min":32,"x_max":801,"o":"m 742 218 q 743 196 750 210 q 617 53 718 132 q 382 -26 515 -26 q 128 85 225 -26 q 51 353 32 196 q 194 620 71 510 q 493 731 318 731 q 724 653 649 731 q 790 489 800 576 q 731 359 781 411 q 615 289 682 307 q 472 265 549 271 q 328 275 394 260 q 469 158 350 174 q 724 217 588 143 q 742 218 733 224 m 424 560 q 332 397 357 524 q 472 419 421 389 q 529 507 522 449 q 515 556 533 536 q 464 574 496 575 q 463 572 464 572 l 458 572 q 424 560 439 569 m 250 975 l 792 975 l 796 971 l 796 968 l 782 874 q 775 867 781 868 l 233 867 l 229 871 l 229 874 l 243 969 l 250 975 z "},"":{"ha":1319,"x_min":17,"x_max":1347,"o":"m 1104 757 q 860 806 1029 757 q 845 690 856 772 q 831 582 835 607 l 1060 582 l 1067 578 l 1067 575 l 1049 436 q 1040 429 1049 429 l 811 429 q 799 329 799 331 q 853 218 790 251 q 1003 196 917 185 q 1158 247 1090 207 q 1187 249 1179 260 q 1186 214 1194 239 q 1151 145 1178 183 q 1080 66 1125 107 q 961 0 1035 25 q 803 -21 888 -25 q 553 95 633 -12 q 493 357 474 203 l 560 889 l 558 889 q 460 869 499 892 q 411 813 422 846 q 403 749 400 781 q 421 703 406 718 q 447 678 431 689 q 471 660 464 667 q 475 640 478 654 q 453 600 472 625 q 381 547 429 571 q 260 524 333 524 q 124 567 188 524 q 30 722 43 622 q 67 892 17 821 q 162 976 99 942 q 284 1024 225 1010 q 421 1042 343 1038 q 532 1047 499 1047 q 604 1043 565 1046 q 799 1028 658 1040 q 1008 1012 940 1015 q 1160 1019 1075 1008 q 1288 1060 1244 1029 q 1324 1028 1310 1074 q 1311 876 1346 956 q 1104 757 1258 756 m 1042 1249 q 1061 1231 1042 1249 q 1074 1164 1079 1214 q 1022 1079 1068 1114 q 919 1044 976 1044 q 827 1079 863 1044 q 797 1164 792 1114 q 847 1249 803 1214 q 949 1283 892 1283 q 1042 1249 1006 1283 z "},"":{"ha":793,"x_min":32,"x_max":801,"o":"m 742 218 q 743 196 750 210 q 617 53 718 132 q 382 -26 515 -26 q 128 85 225 -26 q 51 353 32 196 q 194 620 71 510 q 493 731 318 731 q 724 653 649 731 q 790 489 800 576 q 731 359 781 411 q 615 289 682 307 q 472 265 549 271 q 328 275 394 260 q 469 158 350 174 q 724 217 588 143 q 742 218 733 224 m 424 560 q 332 397 357 524 q 472 419 421 389 q 529 507 522 449 q 515 556 533 536 q 464 574 496 575 q 463 572 464 572 l 458 572 q 424 560 439 569 m 620 971 q 639 953 620 971 q 651 886 657 936 q 600 801 646 836 q 497 767 554 767 q 405 801 440 767 q 375 886 369 836 q 425 971 381 936 q 526 1006 469 1006 q 620 971 583 1006 z "},"":{"ha":1319,"x_min":17,"x_max":1347,"o":"m 1104 757 q 860 806 1029 757 q 845 690 856 772 q 831 582 835 607 l 1060 582 l 1067 578 l 1067 575 l 1049 436 q 1040 429 1049 429 l 811 429 q 799 329 799 331 q 853 218 790 251 q 1003 196 917 185 q 1158 247 1090 207 q 1187 249 1179 260 q 1186 214 1194 239 q 1151 145 1178 183 q 1080 66 1125 107 q 961 0 1035 25 q 803 -21 888 -25 q 553 95 633 -12 q 493 357 474 203 l 560 889 l 558 889 q 460 869 499 892 q 411 813 422 846 q 403 749 400 781 q 421 703 406 718 q 447 678 431 689 q 471 660 464 667 q 475 640 478 654 q 453 600 472 625 q 381 547 429 571 q 260 524 333 524 q 124 567 188 524 q 30 722 43 622 q 67 892 17 821 q 162 976 99 942 q 284 1024 225 1010 q 421 1042 343 1038 q 532 1047 499 1047 q 604 1043 565 1046 q 799 1028 658 1040 q 1008 1012 940 1015 q 1160 1019 1075 1008 q 1288 1060 1244 1029 q 1324 1028 1310 1074 q 1311 876 1346 956 q 1104 757 1258 756 m 672 -225 q 844 -11 697 -81 q 956 18 918 24 q 961 13 961 15 q 929 -23 961 11 q 875 -93 897 -57 q 849 -167 853 -129 q 908 -229 842 -229 q 942 -224 924 -229 q 967 -217 960 -219 q 978 -218 974 -215 q 949 -321 999 -262 q 825 -385 899 -379 q 745 -371 779 -387 q 696 -326 711 -354 q 674 -272 681 -299 q 672 -225 668 -244 z "},"":{"ha":793,"x_min":32,"x_max":801,"o":"m 742 218 q 743 196 750 210 q 617 53 718 132 q 382 -26 515 -26 q 128 85 225 -26 q 51 353 32 196 q 194 620 71 510 q 493 731 318 731 q 724 653 649 731 q 790 489 800 576 q 731 359 781 411 q 615 289 682 307 q 472 265 549 271 q 328 275 394 260 q 469 158 350 174 q 724 217 588 143 q 742 218 733 224 m 424 560 q 332 397 357 524 q 472 419 421 389 q 529 507 522 449 q 515 556 533 536 q 464 574 496 575 q 463 572 464 572 l 458 572 q 424 560 439 569 m 258 -225 q 431 -11 283 -81 q 542 18 504 24 q 547 13 547 15 q 515 -23 547 11 q 461 -93 483 -57 q 435 -167 439 -129 q 494 -229 428 -229 q 528 -224 510 -229 q 553 -217 546 -219 q 564 -218 560 -215 q 535 -321 585 -262 q 411 -385 485 -379 q 331 -371 365 -387 q 282 -326 297 -354 q 260 -272 267 -299 q 258 -225 254 -244 z "},"":{"ha":1319,"x_min":17,"x_max":1347,"o":"m 1104 757 q 860 806 1029 757 q 845 690 856 772 q 831 582 835 607 l 1060 582 l 1067 578 l 1067 575 l 1049 436 q 1040 429 1049 429 l 811 429 q 799 329 799 331 q 853 218 790 251 q 1003 196 917 185 q 1158 247 1090 207 q 1187 249 1179 260 q 1186 214 1194 239 q 1151 145 1178 183 q 1080 66 1125 107 q 961 0 1035 25 q 803 -21 888 -25 q 553 95 633 -12 q 493 357 474 203 l 560 889 l 558 889 q 460 869 499 892 q 411 813 422 846 q 403 749 400 781 q 421 703 406 718 q 447 678 431 689 q 471 660 464 667 q 475 640 478 654 q 453 600 472 625 q 381 547 429 571 q 260 524 333 524 q 124 567 188 524 q 30 722 43 622 q 67 892 17 821 q 162 976 99 942 q 284 1024 225 1010 q 421 1042 343 1038 q 532 1047 499 1047 q 604 1043 565 1046 q 799 1028 658 1040 q 1008 1012 940 1015 q 1160 1019 1075 1008 q 1288 1060 1244 1029 q 1324 1028 1310 1074 q 1311 876 1346 956 q 1104 757 1258 756 m 1160 1347 q 1188 1347 1179 1354 q 1181 1322 1196 1340 l 936 1068 q 922 1063 931 1063 l 826 1063 q 818 1067 821 1063 l 629 1318 q 626 1342 618 1333 q 654 1343 633 1350 l 900 1257 l 1160 1347 z "},"":{"ha":793,"x_min":32,"x_max":801,"o":"m 742 218 q 743 196 750 210 q 617 53 718 132 q 382 -26 515 -26 q 128 85 225 -26 q 51 353 32 196 q 194 620 71 510 q 493 731 318 731 q 724 653 649 731 q 790 489 800 576 q 731 359 781 411 q 615 289 682 307 q 472 265 549 271 q 328 275 394 260 q 469 158 350 174 q 724 217 588 143 q 742 218 733 224 m 424 560 q 332 397 357 524 q 472 419 421 389 q 529 507 522 449 q 515 556 533 536 q 464 574 496 575 q 463 572 464 572 l 458 572 q 424 560 439 569 m 750 1056 q 778 1056 769 1063 q 771 1031 786 1049 l 526 776 q 513 771 521 771 l 417 771 q 408 775 411 771 l 219 1026 q 216 1050 208 1042 q 244 1051 224 1058 l 490 965 l 750 1056 z "},"":{"ha":1453,"x_min":15,"x_max":1472,"o":"m 1117 1029 q 1376 949 1281 1031 q 1424 763 1471 867 q 917 717 1332 558 q 876 613 893 675 q 860 497 860 551 q 913 303 860 379 q 1043 197 965 226 l 1083 488 l 1090 494 l 1378 494 l 1382 489 l 1382 486 l 1357 322 l 1318 8 q 1311 1 1317 1 q 1185 15 1229 19 q 1072 -6 1142 10 q 961 -22 1001 -22 q 639 134 758 -22 q 542 508 519 290 q 656 799 556 650 q 494 813 576 826 q 394 736 413 800 q 397 682 386 708 q 422 638 408 656 q 431 611 435 619 q 351 531 406 560 q 228 508 296 503 q 77 580 132 518 q 19 735 22 642 q 160 950 15 874 q 775 926 379 1067 q 1117 1029 926 1029 m 1168 829 q 1136 872 1182 861 q 1004 846 1074 888 l 989 836 q 1060 812 1025 821 q 1127 806 1096 803 q 1168 829 1158 808 m 1433 1315 q 1413 1229 1458 1301 q 1284 1106 1363 1151 q 1125 1061 1206 1061 q 976 1107 1044 1061 q 878 1229 907 1153 q 876 1315 851 1301 q 901 1304 883 1318 q 944 1270 919 1290 q 1024 1233 969 1250 q 1144 1217 1078 1217 q 1249 1228 1200 1217 q 1328 1254 1299 1239 q 1381 1285 1358 1269 q 1415 1309 1403 1300 q 1433 1315 1428 1318 z "},"":{"ha":863,"x_min":32,"x_max":864,"o":"m 783 90 q 651 -208 767 -94 q 349 -322 536 -322 q 221 -301 278 -322 q 131 -247 164 -279 q 82 -185 99 -214 q 60 -133 65 -157 q 55 -83 53 -100 q 63 -60 57 -65 q 76 -56 68 -54 q 109 -85 86 -57 q 178 -138 132 -112 q 292 -164 224 -164 q 426 -112 371 -164 q 492 8 481 -60 l 507 132 q 271 -12 413 -12 q 131 43 188 -12 q 53 183 74 99 q 46 363 33 267 q 152 627 64 515 q 371 739 240 739 q 563 604 506 739 l 575 703 q 581 710 575 708 l 849 710 q 854 703 854 710 q 783 90 804 260 m 413 179 q 495 231 461 179 q 540 363 529 282 q 528 497 550 443 q 458 551 507 551 q 375 498 410 551 q 331 363 340 444 q 341 231 319 282 q 413 179 363 179 m 838 1024 q 817 938 863 1010 q 688 815 767 860 q 529 769 610 769 q 380 815 449 769 q 282 938 311 861 q 281 1024 256 1010 q 306 1013 288 1026 q 349 978 324 999 q 428 942 374 958 q 549 925 482 925 q 653 936 604 925 q 733 963 703 947 q 785 993 763 978 q 819 1017 807 1008 q 838 1024 832 1026 z "},"":{"ha":864,"x_min":15,"x_max":1014,"o":"m 878 992 l 882 990 q 882 985 883 989 l 761 7 q 753 0 760 0 l 451 0 l 447 1 q 447 7 446 3 q 576 911 533 586 q 479 906 524 921 q 414 862 435 890 q 390 799 393 833 q 415 736 386 765 q 442 711 425 722 q 465 694 458 700 q 469 673 472 688 q 447 633 467 658 q 377 581 425 604 q 256 557 329 557 q 118 600 182 557 q 40 697 64 638 q 22 816 15 756 q 61 925 28 876 q 190 1035 110 996 q 360 1078 269 1075 q 535 1075 450 1082 q 702 1046 621 1068 q 821 1011 783 1024 q 876 992 858 999 l 878 992 m 467 1253 l 1008 1253 l 1013 1249 l 1013 1246 l 999 1151 q 992 1144 997 1146 l 450 1144 l 446 1149 l 446 1151 l 460 1247 l 467 1253 z "},"":{"ha":426,"x_min":39,"x_max":503,"o":"m 67 975 l 497 975 l 501 971 l 501 968 l 488 874 q 481 867 486 868 l 50 867 l 46 871 l 46 874 l 60 969 l 67 975 m 113 694 l 119 703 l 397 703 q 404 696 404 701 q 342 283 354 379 q 339 180 333 217 q 355 124 344 143 q 378 99 365 106 q 396 88 390 93 q 397 72 401 82 q 328 5 382 36 q 218 -26 274 -26 q 85 31 132 -26 q 50 185 39 88 l 113 694 z "},"":{"ha":864,"x_min":15,"x_max":885,"o":"m 878 992 l 882 990 q 882 985 883 989 l 761 7 q 753 0 760 0 l 451 0 l 447 1 q 447 7 446 3 q 576 911 533 586 q 479 906 524 921 q 414 862 435 890 q 390 799 393 833 q 415 736 386 765 q 442 711 425 722 q 465 694 458 700 q 469 673 472 688 q 447 633 467 658 q 377 581 425 604 q 256 557 329 557 q 118 600 182 557 q 40 697 64 638 q 22 816 15 756 q 61 925 28 876 q 190 1035 110 996 q 360 1078 269 1075 q 535 1075 450 1082 q 702 1046 621 1068 q 821 1011 783 1024 q 876 992 858 999 l 878 992 m 386 -225 q 558 -11 411 -81 q 669 18 632 24 q 675 13 675 15 q 643 -23 675 11 q 589 -93 611 -57 q 563 -167 567 -129 q 622 -229 556 -229 q 656 -224 638 -229 q 681 -217 674 -219 q 692 -218 688 -215 q 663 -321 713 -262 q 539 -385 613 -379 q 459 -371 493 -387 q 410 -326 425 -354 q 388 -272 394 -299 q 386 -225 382 -244 z "},"":{"ha":444,"x_min":31,"x_max":449,"o":"m 442 896 q 383 804 436 842 q 264 767 331 767 q 155 804 197 767 q 118 896 113 842 q 176 987 125 949 q 294 1025 228 1025 q 404 987 361 1025 q 442 896 447 949 m 106 694 l 113 703 l 390 703 q 397 696 397 701 q 335 283 347 379 q 332 180 326 217 q 348 124 338 143 q 371 99 358 106 q 389 88 383 93 q 390 72 394 82 q 321 5 375 36 q 211 -26 267 -26 q 78 31 125 -26 q 43 185 32 88 l 106 694 m 38 -225 q 210 -11 63 -81 q 321 18 283 24 q 326 13 326 15 q 294 -23 326 11 q 240 -93 263 -57 q 214 -167 218 -129 q 274 -229 207 -229 q 307 -224 289 -229 q 332 -217 325 -219 q 343 -218 339 -215 q 314 -321 364 -262 q 190 -385 264 -379 q 110 -371 144 -387 q 61 -326 76 -354 q 40 -272 46 -299 q 38 -225 33 -244 z "},"":{"ha":864,"x_min":15,"x_max":892,"o":"m 878 992 l 882 990 q 882 985 883 989 l 761 7 q 753 0 760 0 l 451 0 l 447 1 q 447 7 446 3 q 576 911 533 586 q 479 906 524 921 q 414 862 435 890 q 390 799 393 833 q 415 736 386 765 q 442 711 425 722 q 465 694 458 700 q 469 673 472 688 q 447 633 467 658 q 377 581 425 604 q 256 557 329 557 q 118 600 182 557 q 40 697 64 638 q 22 816 15 756 q 61 925 28 876 q 190 1035 110 996 q 360 1078 269 1075 q 535 1075 450 1082 q 702 1046 621 1068 q 821 1011 783 1024 q 876 992 858 999 l 878 992 m 853 1276 q 872 1259 853 1276 q 885 1192 890 1242 q 833 1107 879 1142 q 731 1072 788 1072 q 638 1107 674 1072 q 608 1192 603 1142 q 658 1276 614 1242 q 760 1311 703 1311 q 853 1276 817 1311 z "},"":{"ha":426,"x_min":44,"x_max":410,"o":"m 118 694 l 125 703 l 403 703 q 410 696 410 701 q 347 283 360 379 q 344 180 339 217 q 360 124 350 143 q 383 99 371 106 q 401 88 396 93 q 403 72 407 82 q 333 5 388 36 q 224 -26 279 -26 q 91 31 138 -26 q 56 185 44 88 l 118 694 z "},"":{"ha":1046,"x_min":15,"x_max":1054,"o":"m 974 297 q 1006 284 988 301 q 1039 230 1025 267 q 1049 149 1053 193 q 806 -32 1032 -32 q 696 -17 756 -32 q 593 13 636 -1 q 486 25 550 28 q 354 -7 422 22 l 350 -6 q 350 0 349 -4 l 476 907 q 384 892 424 914 q 339 836 344 869 q 358 771 333 803 q 381 750 367 760 q 401 735 394 740 q 404 719 407 731 q 385 686 401 707 q 325 641 365 661 q 223 620 285 621 q 107 657 161 619 q 27 788 39 704 q 60 932 15 872 q 155 1015 96 985 q 279 1053 214 1046 q 415 1056 344 1060 q 549 1039 486 1053 q 664 1010 613 1025 q 744 985 715 996 l 775 974 l 781 969 l 781 967 l 729 581 l 685 224 q 757 222 724 219 q 819 230 790 224 q 872 244 849 236 q 915 263 896 253 q 947 280 935 272 q 967 292 958 288 l 974 297 m 958 1299 q 629 1044 844 1117 q 618 1043 621 1042 q 571 1111 589 1069 q 574 1121 567 1115 q 703 1259 657 1196 q 783 1417 749 1322 q 792 1419 786 1421 q 957 1310 897 1393 q 958 1299 964 1304 z "},"":{"ha":436,"x_min":31,"x_max":506,"o":"m 499 1290 q 169 1036 385 1108 q 158 1035 161 1033 q 111 1103 129 1061 q 114 1113 107 1107 q 243 1251 197 1188 q 324 1408 289 1314 q 332 1411 326 1413 q 497 1301 438 1385 q 499 1290 504 1296 m 142 992 q 149 999 143 997 l 426 999 l 432 994 l 432 992 l 346 279 q 346 158 338 200 q 370 105 354 117 q 397 86 386 93 q 401 68 407 79 q 326 1 385 33 q 210 -31 267 -31 q 77 26 124 -31 q 42 181 31 83 l 142 992 z "},"":{"ha":1046,"x_min":15,"x_max":1090,"o":"m 974 297 q 1006 284 988 301 q 1039 230 1025 267 q 1049 149 1053 193 q 806 -32 1032 -32 q 696 -17 756 -32 q 593 13 636 -1 q 486 25 550 28 q 354 -7 422 22 l 350 -6 q 350 0 349 -4 l 476 907 q 384 892 424 914 q 339 836 344 869 q 358 771 333 803 q 381 750 367 760 q 401 735 394 740 q 404 719 407 731 q 385 686 401 707 q 325 641 365 661 q 223 620 285 621 q 107 657 161 619 q 27 788 39 704 q 60 932 15 872 q 155 1015 96 985 q 279 1053 214 1046 q 415 1056 344 1060 q 549 1039 486 1053 q 664 1010 613 1025 q 744 985 715 996 l 775 974 l 781 969 l 781 967 l 729 581 l 685 224 q 757 222 724 219 q 819 230 790 224 q 872 244 849 236 q 915 263 896 253 q 947 280 935 272 q 967 292 958 288 l 974 297 m 1082 904 q 1038 793 1075 842 q 969 724 1001 744 q 906 693 936 704 q 864 683 879 683 q 844 685 849 682 q 842 696 840 689 q 868 728 843 708 q 906 807 944 793 q 852 853 871 822 q 839 924 833 885 q 885 1008 846 974 q 975 1043 924 1043 q 1057 1001 1025 1043 q 1082 904 1089 960 z "},"":{"ha":724,"x_min":31,"x_max":726,"o":"m 719 861 q 676 750 713 799 q 606 681 639 701 q 543 650 574 661 q 501 640 517 640 q 482 642 486 639 q 479 653 478 646 q 506 685 481 665 q 543 764 582 750 q 490 810 508 779 q 476 881 471 842 q 522 965 483 931 q 613 1000 561 1000 q 694 958 663 1000 q 719 861 726 917 m 142 992 q 149 999 143 997 l 426 999 l 432 994 l 432 992 l 346 279 q 346 158 338 200 q 370 105 354 117 q 397 86 386 93 q 401 68 407 79 q 326 1 385 33 q 210 -31 267 -31 q 77 26 124 -31 q 42 181 31 83 l 142 992 z "},"":{"ha":1046,"x_min":15,"x_max":1054,"o":"m 974 297 q 1006 284 988 301 q 1039 230 1025 267 q 1049 149 1053 193 q 806 -32 1032 -32 q 696 -17 756 -32 q 593 13 636 -1 q 486 25 550 28 q 354 -7 422 22 l 350 -6 q 350 0 349 -4 l 407 404 l 278 368 l 274 372 l 274 375 l 288 485 l 294 490 l 424 528 q 454 746 436 617 q 476 907 472 875 q 384 892 424 914 q 339 836 344 869 q 358 771 333 803 q 381 750 367 760 q 401 735 394 740 q 404 719 407 731 q 385 686 401 707 q 325 641 365 661 q 223 620 285 621 q 107 657 161 619 q 27 788 39 704 q 60 932 15 872 q 155 1015 96 985 q 279 1053 214 1046 q 415 1056 344 1060 q 549 1039 486 1053 q 664 1010 613 1025 q 744 985 715 996 l 775 974 l 781 969 l 781 967 l 733 617 l 881 658 l 885 654 l 885 651 l 871 543 q 864 536 869 538 l 718 494 l 685 224 q 757 222 724 219 q 819 230 790 224 q 872 244 849 236 q 915 263 896 253 q 947 280 935 272 q 967 292 958 288 l 974 297 z "},"":{"ha":436,"x_min":-7,"x_max":479,"o":"m 14 607 l 86 628 l 131 992 q 138 999 132 997 l 415 999 l 421 994 l 421 992 l 388 719 l 475 746 l 479 742 l 479 739 l 465 631 q 458 624 464 625 l 372 597 l 335 279 q 335 158 326 200 q 359 105 343 117 q 385 86 375 93 q 390 68 396 79 q 315 1 374 33 q 199 -31 256 -31 q 66 26 113 -31 q 31 181 19 83 q 36 224 31 182 q 52 351 42 267 q 71 507 63 435 l -3 485 l -7 489 l -7 492 l 7 601 l 14 607 z "},"":{"ha":1410,"x_min":15,"x_max":1438,"o":"m 1431 993 l 1436 989 l 1436 986 l 1313 7 q 1304 0 1313 0 l 1049 0 q 1040 7 1043 -1 l 817 586 l 815 471 l 771 7 q 763 0 769 0 l 465 0 l 461 1 q 460 7 458 3 l 517 424 q 521 457 518 432 q 526 497 524 482 q 550 665 536 564 q 572 826 564 767 q 583 911 581 886 q 487 906 532 921 q 422 861 442 890 q 397 798 401 832 q 422 736 393 764 q 449 711 432 722 q 474 694 467 700 q 478 673 481 688 q 456 633 475 658 q 384 581 432 604 q 263 557 336 557 q 125 600 189 557 q 31 756 44 657 q 69 925 17 856 q 233 1050 128 1011 q 448 1082 339 1089 q 657 1056 557 1075 q 821 1014 757 1038 l 885 992 q 1092 458 936 897 l 1094 592 l 1135 986 q 1142 993 1135 992 l 1431 993 m 1235 1299 q 906 1044 1121 1117 q 894 1043 897 1042 q 847 1111 865 1069 q 850 1121 843 1115 q 979 1259 933 1196 q 1060 1417 1025 1322 q 1068 1419 1063 1421 q 1233 1310 1174 1393 q 1235 1299 1240 1304 z "},"":{"ha":878,"x_min":33,"x_max":851,"o":"m 781 283 q 778 180 772 217 q 797 124 785 143 q 824 99 810 106 q 844 87 838 93 q 847 71 851 81 q 776 5 831 36 q 667 -26 722 -26 q 528 31 581 -26 q 489 185 476 89 l 522 454 q 489 535 531 528 q 410 486 449 542 q 371 381 379 442 l 325 8 q 318 0 325 1 l 40 0 q 35 7 35 1 q 97 419 85 324 q 100 523 106 486 q 83 578 94 560 q 60 603 72 597 q 42 615 49 610 q 40 631 36 621 q 110 698 56 667 q 219 729 164 729 q 340 685 293 729 q 390 567 386 642 q 512 690 442 650 q 644 729 582 729 q 773 665 725 729 q 808 500 821 601 q 797 408 806 475 q 781 283 788 340 m 632 1021 q 303 767 518 839 q 292 765 294 764 q 244 833 263 792 q 247 843 240 838 q 376 981 331 918 q 457 1139 422 1044 q 465 1142 460 1143 q 631 1032 571 1115 q 632 1021 638 1026 z "},"":{"ha":1410,"x_min":15,"x_max":1438,"o":"m 1431 993 l 1436 989 l 1436 986 l 1313 7 q 1304 0 1313 0 l 1049 0 q 1040 7 1043 -1 l 817 586 l 815 471 l 771 7 q 763 0 769 0 l 465 0 l 461 1 q 460 7 458 3 l 517 424 q 521 457 518 432 q 526 497 524 482 q 550 665 536 564 q 572 826 564 767 q 583 911 581 886 q 487 906 532 921 q 422 861 442 890 q 397 798 401 832 q 422 736 393 764 q 449 711 432 722 q 474 694 467 700 q 478 673 481 688 q 456 633 475 658 q 384 581 432 604 q 263 557 336 557 q 125 600 189 557 q 31 756 44 657 q 69 925 17 856 q 233 1050 128 1011 q 448 1082 339 1089 q 657 1056 557 1075 q 821 1014 757 1038 l 885 992 q 1092 458 936 897 l 1094 592 l 1135 986 q 1142 993 1135 992 l 1431 993 m 1286 1333 q 1314 1333 1306 1340 q 1307 1308 1322 1326 l 1063 1054 q 1049 1049 1057 1049 l 953 1049 q 944 1053 947 1049 l 756 1304 q 752 1328 744 1319 q 781 1329 760 1336 l 1026 1243 l 1286 1333 z "},"":{"ha":878,"x_min":33,"x_max":851,"o":"m 781 283 q 778 180 772 217 q 797 124 785 143 q 824 99 810 106 q 844 87 838 93 q 847 71 851 81 q 776 5 831 36 q 667 -26 722 -26 q 528 31 581 -26 q 489 185 476 89 l 522 454 q 489 535 531 528 q 410 486 449 542 q 371 381 379 442 l 325 8 q 318 0 325 1 l 40 0 q 35 7 35 1 q 97 419 85 324 q 100 523 106 486 q 83 578 94 560 q 60 603 72 597 q 42 615 49 610 q 40 631 36 621 q 110 698 56 667 q 219 729 164 729 q 340 685 293 729 q 390 567 386 642 q 512 690 442 650 q 644 729 582 729 q 773 665 725 729 q 808 500 821 601 q 797 408 806 475 q 781 283 788 340 m 756 1056 q 783 1056 775 1063 q 776 1031 792 1049 l 532 776 q 518 771 526 771 l 422 771 q 414 775 417 771 l 225 1026 q 222 1050 214 1042 q 250 1051 229 1058 l 496 965 l 756 1056 z "},"":{"ha":1014,"x_min":19,"x_max":1040,"o":"m 1021 465 q 840 101 994 246 q 468 -32 686 -43 q 137 138 254 -21 q 46 515 19 297 q 228 880 74 733 q 597 1015 383 1026 q 844 930 740 1008 q 994 729 949 851 q 1021 465 1039 607 m 365 499 q 365 333 358 415 q 406 188 372 250 q 488 124 439 126 q 624 233 564 119 q 701 482 685 346 q 702 651 710 568 q 661 795 694 733 q 578 860 628 857 q 443 749 504 864 q 365 499 382 635 m 326 1253 l 868 1253 l 872 1249 l 872 1246 l 858 1151 q 851 1144 857 1146 l 310 1144 l 306 1149 l 306 1151 l 319 1247 l 326 1253 z "},"":{"ha":842,"x_min":32,"x_max":849,"o":"m 751 596 q 800 538 751 596 q 829 322 849 479 q 687 65 810 165 q 394 -25 564 -36 q 130 104 228 -12 q 51 378 32 221 q 197 635 71 533 q 488 725 322 736 q 751 596 654 713 m 325 358 q 335 199 314 264 q 414 131 357 135 q 508 185 472 126 q 556 342 543 243 q 547 501 568 438 q 468 569 525 565 q 374 514 410 574 q 325 358 338 454 m 206 975 l 747 975 l 751 971 l 751 968 l 738 874 q 731 867 736 868 l 189 867 l 185 871 l 185 874 l 199 969 l 206 975 z "},"":{"ha":1014,"x_min":19,"x_max":1040,"o":"m 657 1299 q 328 1044 543 1117 q 317 1043 319 1042 q 269 1111 288 1069 q 272 1121 265 1115 q 401 1259 356 1196 q 482 1417 447 1322 q 490 1419 485 1421 q 656 1310 596 1393 q 657 1299 663 1304 m 990 1299 q 661 1044 876 1117 q 650 1043 653 1042 q 601 1111 622 1068 q 604 1121 597 1115 q 733 1259 688 1196 q 815 1417 779 1322 q 824 1419 818 1421 q 989 1310 929 1393 q 990 1299 996 1304 m 1021 465 q 840 101 994 246 q 468 -32 686 -43 q 137 138 254 -21 q 46 515 19 297 q 228 880 74 733 q 597 1015 383 1026 q 844 930 740 1008 q 994 729 949 851 q 1021 465 1039 607 m 365 499 q 365 333 358 415 q 406 188 372 250 q 488 124 439 126 q 624 233 564 119 q 701 482 685 346 q 702 651 710 568 q 661 795 694 733 q 578 860 628 857 q 443 749 504 864 q 365 499 382 635 z "},"":{"ha":842,"x_min":32,"x_max":879,"o":"m 539 1021 q 210 767 425 839 q 199 765 201 764 q 151 833 169 792 q 154 843 147 838 q 283 981 238 918 q 364 1139 329 1044 q 372 1142 367 1143 q 538 1032 478 1115 q 539 1021 544 1026 m 872 1021 q 543 767 758 839 q 532 765 535 764 q 483 833 504 790 q 486 843 479 838 q 615 981 569 918 q 697 1139 661 1044 q 706 1142 700 1143 q 871 1032 811 1115 q 872 1021 878 1026 m 751 596 q 800 538 751 596 q 829 322 849 479 q 687 65 810 165 q 394 -25 564 -36 q 130 104 228 -12 q 51 378 32 221 q 197 635 71 533 q 488 725 322 736 q 751 596 654 713 m 325 358 q 335 199 314 264 q 414 131 357 135 q 508 185 472 126 q 556 342 543 243 q 547 501 568 438 q 468 569 525 565 q 374 514 410 574 q 325 358 338 454 z "},"":{"ha":1300,"x_min":31,"x_max":1307,"o":"m 1247 215 q 1249 193 1256 207 q 1122 50 1224 129 q 888 -29 1021 -29 q 755 2 819 -29 q 658 79 690 33 q 542 -1 615 29 q 392 -32 469 -32 q 128 78 225 -32 q 49 346 31 188 q 193 614 68 504 q 485 724 318 724 q 623 695 558 724 q 721 621 688 667 q 841 697 763 665 q 999 728 919 728 q 1230 651 1154 728 q 1296 486 1306 574 q 1237 356 1286 408 q 1121 286 1188 304 q 977 263 1054 268 q 833 272 900 257 q 975 156 857 171 q 1229 214 1093 140 q 1247 215 1239 221 m 322 346 q 333 188 311 251 q 411 125 354 125 q 506 186 471 125 q 553 346 542 247 q 544 504 565 442 q 465 567 522 567 q 371 505 407 567 q 322 346 335 443 m 929 557 q 838 394 863 519 q 977 416 926 386 q 1035 504 1028 446 q 1020 553 1039 533 q 969 571 1001 572 q 968 569 969 569 l 964 569 q 929 557 947 567 z "},"":{"ha":1310,"x_min":15,"x_max":1324,"o":"m 1315 138 q 1308 97 1324 135 q 1249 17 1293 58 q 1146 -31 1206 -24 q 971 12 1040 -43 q 875 160 901 67 q 854 379 849 254 q 835 380 849 379 q 814 381 821 381 l 768 8 q 763 0 768 1 l 468 0 q 461 8 461 0 q 581 919 496 235 q 424 853 474 915 q 417 739 375 790 q 444 714 428 725 q 468 697 461 703 q 472 676 475 690 q 449 636 468 661 q 378 583 425 607 q 258 560 332 560 q 119 604 185 560 q 24 761 32 663 q 135 967 15 881 q 668 1078 307 1092 q 957 1043 833 1071 q 1148 978 1081 1015 q 1255 890 1215 940 q 1306 799 1294 840 q 1315 714 1317 758 q 1251 542 1311 626 q 1072 414 1192 457 q 1165 253 1096 331 q 1315 138 1235 176 m 883 901 l 831 513 q 958 572 910 513 q 1013 718 1006 632 q 983 851 1019 799 q 883 901 947 903 m 1090 1350 q 761 1096 976 1168 q 750 1094 753 1093 q 703 1163 721 1121 q 706 1172 699 1167 q 835 1310 789 1247 q 915 1468 881 1374 q 924 1471 918 1472 q 1089 1361 1029 1444 q 1090 1350 1096 1356 z "},"":{"ha":728,"x_min":33,"x_max":726,"o":"m 582 726 q 688 685 650 726 q 717 571 726 644 q 651 440 707 488 q 521 392 594 392 q 478 401 499 392 q 454 419 458 411 q 454 430 453 426 q 459 446 456 433 q 464 469 463 458 q 436 531 472 531 q 394 490 408 531 q 369 374 379 449 l 325 6 q 318 -1 324 0 l 39 -1 l 35 3 l 35 6 q 96 417 85 321 q 96 538 104 496 q 72 591 88 579 q 45 610 56 603 q 40 628 35 617 q 111 695 57 664 q 221 726 165 726 q 337 686 292 726 q 388 575 382 646 q 477 685 424 643 q 582 726 531 726 m 600 1021 q 271 767 486 839 q 260 765 263 764 q 213 833 231 792 q 215 843 208 838 q 344 981 299 918 q 425 1139 390 1044 q 433 1142 428 1143 q 599 1032 539 1115 q 600 1021 606 1026 z "},"":{"ha":1310,"x_min":15,"x_max":1324,"o":"m 1315 138 q 1308 97 1324 135 q 1249 17 1293 58 q 1146 -31 1206 -24 q 971 12 1040 -43 q 875 160 901 67 q 854 379 849 254 q 835 380 849 379 q 814 381 821 381 l 768 8 q 763 0 768 1 l 468 0 q 461 8 461 0 q 581 919 496 235 q 424 853 474 915 q 417 739 375 790 q 444 714 428 725 q 468 697 461 703 q 472 676 475 690 q 449 636 468 661 q 378 583 425 607 q 258 560 332 560 q 119 604 185 560 q 24 761 32 663 q 135 967 15 881 q 668 1078 307 1092 q 957 1043 833 1071 q 1148 978 1081 1015 q 1255 890 1215 940 q 1306 799 1294 840 q 1315 714 1317 758 q 1251 542 1311 626 q 1072 414 1192 457 q 1165 253 1096 331 q 1315 138 1235 176 m 883 901 l 831 513 q 958 572 910 513 q 1013 718 1006 632 q 983 851 1019 799 q 883 901 947 903 m 1179 1375 q 1207 1375 1199 1382 q 1200 1350 1215 1368 l 956 1096 q 942 1090 950 1090 l 846 1090 q 838 1094 840 1090 l 649 1346 q 645 1369 638 1361 q 674 1371 653 1378 l 919 1285 l 1179 1375 z "},"":{"ha":728,"x_min":33,"x_max":726,"o":"m 582 726 q 688 685 650 726 q 717 571 726 644 q 651 440 707 488 q 521 392 594 392 q 478 401 499 392 q 454 419 458 411 q 454 430 453 426 q 459 446 456 433 q 464 469 463 458 q 436 531 472 531 q 394 490 408 531 q 369 374 379 449 l 325 6 q 318 -1 324 0 l 39 -1 l 35 3 l 35 6 q 96 417 85 321 q 96 538 104 496 q 72 591 88 579 q 45 610 56 603 q 40 628 35 617 q 111 695 57 664 q 221 726 165 726 q 337 686 292 726 q 388 575 382 646 q 477 685 424 643 q 582 726 531 726 m 671 1056 q 699 1056 690 1063 q 692 1031 707 1049 l 447 776 q 433 771 442 771 l 338 771 q 329 775 332 771 l 140 1026 q 137 1050 129 1042 q 165 1051 144 1058 l 411 965 l 671 1056 z "},"":{"ha":1435,"x_min":4,"x_max":1458,"o":"m 1418 751 q 1299 642 1389 669 q 1115 633 1210 615 q 932 693 1019 650 q 953 650 933 671 q 1008 611 972 629 q 1072 582 1043 593 q 1143 556 1100 571 q 1413 254 1438 454 q 1353 113 1403 172 q 1229 22 1303 53 q 1077 -22 1156 -8 q 917 -32 999 -35 q 789 -16 851 -29 q 665 24 726 -3 q 568 101 604 51 q 535 218 532 151 q 588 334 538 283 q 721 385 638 385 q 814 363 768 385 q 868 328 860 342 q 868 313 869 319 q 862 288 867 306 q 856 256 857 269 q 899 149 847 182 q 1011 140 951 117 q 1081 226 1071 164 q 1073 277 1083 254 q 1033 322 1063 300 q 980 356 1003 343 q 907 391 957 368 q 836 425 857 414 q 688 511 722 482 q 604 706 596 586 q 626 794 606 749 q 478 807 549 825 q 389 724 407 789 q 392 671 381 697 q 416 626 403 644 q 425 599 429 607 q 342 519 401 549 q 222 496 283 490 q 90 542 143 503 q 21 635 38 581 q 11 747 4 689 q 56 856 18 804 q 153 938 94 908 q 733 918 379 1047 q 1083 1018 865 1021 q 1353 935 1250 1014 q 1418 751 1457 857 m 1135 818 q 1096 857 1144 846 q 982 844 1032 871 q 958 826 967 836 q 1031 801 996 811 q 1097 794 1065 792 q 1135 818 1128 797 m 1256 1299 q 926 1044 1142 1117 q 915 1043 918 1042 q 868 1111 886 1069 q 871 1121 864 1115 q 1000 1259 954 1196 q 1081 1417 1046 1322 q 1089 1419 1083 1421 q 1254 1310 1194 1393 q 1256 1299 1261 1304 z "},"":{"ha":751,"x_min":14,"x_max":735,"o":"m 513 410 q 714 193 732 342 q 639 62 704 114 q 494 -9 574 10 q 328 -26 415 -28 q 189 -9 257 -25 q 68 51 121 7 q 24 158 15 96 q 73 248 31 211 q 174 283 115 285 q 240 274 207 282 q 275 257 272 265 q 278 242 278 246 q 275 224 278 239 q 271 200 272 208 q 285 138 265 160 q 343 114 306 115 q 425 175 415 114 q 419 209 426 194 q 389 236 411 224 q 351 256 367 249 q 296 276 336 263 q 240 294 256 289 q 117 377 164 324 q 78 507 69 431 l 78 511 q 196 673 90 613 q 418 731 301 733 q 643 680 551 728 q 724 546 735 632 q 678 460 718 494 q 575 426 638 425 q 510 437 540 428 q 478 454 481 446 q 483 511 475 458 q 474 572 489 553 q 422 590 458 592 q 372 569 392 590 q 349 526 351 549 q 378 462 343 483 q 494 415 414 440 q 499 414 497 414 q 503 413 500 414 q 508 412 506 413 q 513 410 510 411 m 628 1021 q 299 767 514 839 q 288 765 290 764 q 240 833 258 792 q 243 843 236 838 q 372 981 326 918 q 453 1139 418 1044 q 461 1142 456 1143 q 626 1032 567 1115 q 628 1021 633 1026 z "},"":{"ha":1435,"x_min":4,"x_max":1458,"o":"m 1418 751 q 1299 642 1389 669 q 1115 633 1210 615 q 932 693 1019 650 q 953 650 933 671 q 1008 611 972 629 q 1072 582 1043 593 q 1143 556 1100 571 q 1413 254 1438 454 q 1353 113 1403 172 q 1229 22 1303 53 q 1077 -22 1156 -8 q 917 -32 999 -35 q 789 -16 851 -29 q 665 24 726 -3 q 568 101 604 51 q 535 218 532 151 q 588 334 538 283 q 721 385 638 385 q 814 363 768 385 q 868 328 860 342 q 868 313 869 319 q 862 288 867 306 q 856 256 857 269 q 899 149 847 182 q 1011 140 951 117 q 1081 226 1071 164 q 1073 277 1083 254 q 1033 322 1063 300 q 980 356 1003 343 q 907 391 957 368 q 836 425 857 414 q 688 511 722 482 q 604 706 596 586 q 626 794 606 749 q 478 807 549 825 q 389 724 407 789 q 392 671 381 697 q 416 626 403 644 q 425 599 429 607 q 342 519 401 549 q 222 496 283 490 q 90 542 143 503 q 21 635 38 581 q 11 747 4 689 q 56 856 18 804 q 153 938 94 908 q 733 918 379 1047 q 1083 1018 865 1021 q 1353 935 1250 1014 q 1418 751 1457 857 m 1135 818 q 1096 857 1144 846 q 982 844 1032 871 q 958 826 967 836 q 1031 801 996 811 q 1097 794 1065 792 q 1135 818 1128 797 m 1364 1333 q 1392 1333 1383 1340 q 1385 1308 1400 1326 l 1140 1054 q 1126 1049 1135 1049 l 1031 1049 q 1022 1053 1025 1049 l 833 1304 q 830 1328 822 1319 q 858 1329 838 1336 l 1104 1243 l 1364 1333 z "},"":{"ha":751,"x_min":14,"x_max":768,"o":"m 513 410 q 714 193 732 342 q 639 62 704 114 q 494 -9 574 10 q 328 -26 415 -28 q 189 -9 257 -25 q 68 51 121 7 q 24 158 15 96 q 73 248 31 211 q 174 283 115 285 q 240 274 207 282 q 275 257 272 265 q 278 242 278 246 q 275 224 278 239 q 271 200 272 208 q 285 138 265 160 q 343 114 306 115 q 425 175 415 114 q 419 209 426 194 q 389 236 411 224 q 351 256 367 249 q 296 276 336 263 q 240 294 256 289 q 117 377 164 324 q 78 507 69 431 l 78 511 q 196 673 90 613 q 418 731 301 733 q 643 680 551 728 q 724 546 735 632 q 678 460 718 494 q 575 426 638 425 q 510 437 540 428 q 478 454 481 446 q 483 511 475 458 q 474 572 489 553 q 422 590 458 592 q 372 569 392 590 q 349 526 351 549 q 378 462 343 483 q 494 415 414 440 q 499 414 497 414 q 503 413 500 414 q 508 412 506 413 q 513 410 510 411 m 732 1056 q 760 1056 751 1063 q 753 1031 768 1049 l 508 776 q 494 771 503 771 l 399 771 q 390 775 393 771 l 201 1026 q 198 1050 190 1042 q 226 1051 206 1058 l 472 965 l 732 1056 z "},"":{"ha":1399,"x_min":18,"x_max":1403,"o":"m 1160 1119 q 1228 1131 1190 1133 q 1299 1110 1265 1128 q 1360 1063 1333 1093 q 1394 989 1386 1032 q 1390 892 1403 946 q 1320 792 1372 825 q 1194 760 1268 758 q 1048 776 1119 761 q 897 821 976 792 l 807 7 q 799 0 806 0 l 497 0 l 493 1 q 493 7 492 3 l 611 907 q 481 913 542 929 q 403 839 419 897 q 406 785 394 811 q 430 740 417 758 q 439 714 443 722 q 356 635 415 664 q 236 611 297 606 q 104 656 157 618 q 35 749 51 694 q 25 861 18 803 q 70 972 32 919 q 167 1053 108 1024 q 387 1102 268 1103 q 600 1074 506 1101 q 822 1022 694 1046 q 1051 1007 949 997 q 1117 1028 1093 1011 q 1144 1065 1140 1046 q 1151 1100 1149 1083 q 1160 1119 1154 1117 m 1067 1361 q 1094 1361 1086 1368 q 1088 1336 1103 1354 l 843 1082 q 829 1076 838 1076 l 733 1076 q 725 1081 728 1076 l 536 1332 q 533 1356 525 1347 q 561 1357 540 1364 l 807 1271 l 1067 1361 z "},"":{"ha":850,"x_min":31,"x_max":842,"o":"m 493 135 q 514 124 511 135 q 507 99 517 113 q 400 8 474 43 q 250 -28 326 -28 q 131 4 178 -25 q 58 181 44 61 l 107 568 l 38 568 q 32 575 32 568 l 46 697 q 51 703 47 701 l 424 931 l 428 926 q 428 924 429 925 q 403 703 418 821 l 572 703 l 575 696 l 563 575 q 557 568 563 569 l 388 568 l 351 289 l 349 267 q 346 222 346 233 q 356 170 347 190 q 385 143 365 150 q 417 133 406 136 q 458 133 429 131 q 493 135 488 135 m 835 861 q 791 750 828 799 q 722 681 754 701 q 658 650 689 661 q 617 640 632 640 q 597 642 601 639 q 594 653 593 646 q 621 685 596 665 q 658 764 697 750 q 605 810 624 779 q 592 881 586 842 q 638 965 599 931 q 728 1000 676 1000 q 810 958 778 1000 q 835 861 842 917 z "},"":{"ha":1397,"x_min":15,"x_max":1418,"o":"m 1413 990 q 1417 983 1417 989 q 1335 340 1356 529 q 1139 39 1313 143 q 811 -29 989 -50 q 551 108 636 -8 q 500 336 483 203 l 500 338 l 571 908 q 475 903 518 918 q 411 859 432 888 q 390 796 390 831 q 415 733 389 761 q 442 708 425 719 q 465 691 458 697 q 469 670 472 685 q 447 631 467 656 q 376 578 424 601 q 255 554 328 554 q 118 597 182 554 q 40 694 64 635 q 22 813 15 753 q 61 922 28 874 q 224 1045 119 1007 q 430 1081 329 1083 q 642 1056 531 1078 q 803 1017 753 1033 q 879 989 854 1000 l 885 985 l 885 982 l 800 265 q 799 263 799 264 q 850 154 789 182 q 957 167 906 129 q 1011 264 1003 201 l 1100 982 q 1107 990 1100 989 l 1413 990 m 721 1253 l 1263 1253 l 1267 1249 l 1267 1246 l 1253 1151 q 1246 1144 1251 1146 l 704 1144 l 700 1149 l 700 1151 l 714 1247 l 721 1253 z "},"":{"ha":868,"x_min":36,"x_max":844,"o":"m 782 282 q 782 161 774 203 q 806 108 790 119 q 833 89 822 96 q 838 71 843 82 q 767 3 821 35 q 658 -28 714 -28 q 540 15 586 -28 q 489 132 494 57 q 372 11 438 50 q 244 -28 307 -28 q 117 36 165 -28 q 82 201 69 100 l 108 418 q 110 522 115 485 q 92 577 104 558 q 65 602 79 596 q 44 614 51 608 q 42 629 38 619 q 112 697 58 665 q 221 728 165 728 q 360 670 308 728 q 401 517 413 613 l 368 247 q 397 167 360 174 q 469 214 435 160 q 506 311 497 254 l 553 693 l 560 701 l 839 701 l 843 697 l 843 694 q 782 282 793 378 m 228 975 l 769 975 l 774 971 l 774 968 l 760 874 q 753 867 758 868 l 211 867 l 207 871 l 207 874 l 221 969 l 228 975 z "},"":{"ha":1397,"x_min":15,"x_max":1418,"o":"m 1413 990 q 1417 983 1417 989 q 1335 340 1356 529 q 1139 39 1313 143 q 811 -29 989 -50 q 551 108 636 -8 q 500 336 483 203 l 500 338 l 571 908 q 475 903 518 918 q 411 859 432 888 q 390 796 390 831 q 415 733 389 761 q 442 708 425 719 q 465 691 458 697 q 469 670 472 685 q 447 631 467 656 q 376 578 424 601 q 255 554 328 554 q 118 597 182 554 q 40 694 64 635 q 22 813 15 753 q 61 922 28 874 q 224 1045 119 1007 q 430 1081 329 1083 q 642 1056 531 1078 q 803 1017 753 1033 q 879 989 854 1000 l 885 985 l 885 982 l 800 265 q 799 263 799 264 q 850 154 789 182 q 957 167 906 129 q 1011 264 1003 201 l 1100 982 q 1107 990 1100 989 l 1413 990 m 1181 1215 q 1112 1094 1171 1144 q 978 1043 1053 1043 q 856 1094 903 1043 q 818 1215 810 1144 q 886 1336 826 1286 q 1021 1386 946 1386 q 1142 1336 1096 1386 q 1181 1215 1189 1286 m 1054 1271 q 1046 1282 1054 1271 q 1008 1293 1038 1293 q 958 1272 979 1293 q 932 1215 936 1250 q 944 1157 928 1181 q 989 1133 961 1133 q 1040 1157 1017 1133 q 1067 1215 1063 1181 q 1054 1271 1071 1249 z "},"":{"ha":868,"x_min":36,"x_max":844,"o":"m 782 282 q 782 161 774 203 q 806 108 790 119 q 833 89 822 96 q 838 71 843 82 q 767 3 821 35 q 658 -28 714 -28 q 540 15 586 -28 q 489 132 494 57 q 372 11 438 50 q 244 -28 307 -28 q 117 36 165 -28 q 82 201 69 100 l 108 418 q 110 522 115 485 q 92 577 104 558 q 65 602 79 596 q 44 614 51 608 q 42 629 38 619 q 112 697 58 665 q 221 728 165 728 q 360 670 308 728 q 401 517 413 613 l 368 247 q 397 167 360 174 q 469 214 435 160 q 506 311 497 254 l 553 693 l 560 701 l 839 701 l 843 697 l 843 694 q 782 282 793 378 m 668 938 q 599 816 658 867 q 465 765 540 765 q 344 816 390 765 q 306 938 297 867 q 374 1058 314 1008 q 508 1108 433 1108 q 630 1058 583 1108 q 668 938 676 1008 m 542 993 q 533 1004 542 993 q 496 1015 525 1015 q 445 994 467 1015 q 419 938 424 972 q 432 879 415 903 q 476 856 449 856 q 527 879 504 856 q 554 938 550 903 q 542 993 558 971 z "},"":{"ha":1397,"x_min":15,"x_max":1418,"o":"m 1413 990 q 1417 983 1417 989 q 1335 340 1356 529 q 1139 39 1313 143 q 811 -29 989 -50 q 551 108 636 -8 q 500 336 483 203 l 500 338 l 571 908 q 475 903 518 918 q 411 859 432 888 q 390 796 390 831 q 415 733 389 761 q 442 708 425 719 q 465 691 458 697 q 469 670 472 685 q 447 631 467 656 q 376 578 424 601 q 255 554 328 554 q 118 597 182 554 q 40 694 64 635 q 22 813 15 753 q 61 922 28 874 q 224 1045 119 1007 q 430 1081 329 1083 q 642 1056 531 1078 q 803 1017 753 1033 q 879 989 854 1000 l 885 985 l 885 982 l 800 265 q 799 263 799 264 q 850 154 789 182 q 957 167 906 129 q 1011 264 1003 201 l 1100 982 q 1107 990 1100 989 l 1413 990 m 1078 1313 q 749 1058 964 1131 q 738 1057 740 1056 q 690 1125 708 1083 q 693 1135 686 1129 q 822 1273 776 1210 q 903 1431 868 1336 q 911 1433 906 1435 q 1076 1324 1017 1407 q 1078 1313 1083 1318 m 1411 1313 q 1082 1058 1297 1131 q 1071 1057 1074 1056 q 1022 1125 1043 1082 q 1025 1135 1018 1129 q 1154 1273 1108 1210 q 1236 1431 1200 1336 q 1244 1433 1239 1435 q 1410 1324 1350 1407 q 1411 1313 1417 1318 z "},"":{"ha":868,"x_min":36,"x_max":892,"o":"m 782 282 q 782 161 774 203 q 806 108 790 119 q 833 89 822 96 q 838 71 843 82 q 767 3 821 35 q 658 -28 714 -28 q 540 15 586 -28 q 489 132 494 57 q 372 11 438 50 q 244 -28 307 -28 q 117 36 165 -28 q 82 201 69 100 l 108 418 q 110 522 115 485 q 92 577 104 558 q 65 602 79 596 q 44 614 51 608 q 42 629 38 619 q 112 697 58 665 q 221 728 165 728 q 360 670 308 728 q 401 517 413 613 l 368 247 q 397 167 360 174 q 469 214 435 160 q 506 311 497 254 l 553 693 l 560 701 l 839 701 l 843 697 l 843 694 q 782 282 793 378 m 551 1021 q 222 767 438 839 q 211 765 214 764 q 164 833 182 792 q 167 843 160 838 q 296 981 250 918 q 376 1139 342 1044 q 385 1142 379 1143 q 550 1032 490 1115 q 551 1021 557 1026 m 885 1021 q 556 767 771 839 q 544 765 547 764 q 496 833 517 790 q 499 843 492 838 q 628 981 582 918 q 710 1139 674 1044 q 718 1142 713 1143 q 883 1032 824 1115 q 885 1021 890 1026 z "},"":{"ha":1397,"x_min":15,"x_max":1418,"o":"m 1413 990 q 1417 983 1417 989 q 1335 340 1356 529 q 1139 39 1313 143 q 811 -29 989 -50 q 551 108 636 -8 q 500 336 483 203 l 500 338 l 571 908 q 475 903 518 918 q 411 859 432 888 q 390 796 390 831 q 415 733 389 761 q 442 708 425 719 q 465 691 458 697 q 469 670 472 685 q 447 631 467 656 q 376 578 424 601 q 255 554 328 554 q 118 597 182 554 q 40 694 64 635 q 22 813 15 753 q 61 922 28 874 q 224 1045 119 1007 q 430 1081 329 1083 q 642 1056 531 1078 q 803 1017 753 1033 q 879 989 854 1000 l 885 985 l 885 982 l 800 265 q 799 263 799 264 q 850 154 789 182 q 957 167 906 129 q 1011 264 1003 201 l 1100 982 q 1107 990 1100 989 l 1413 990 m 786 -225 q 958 -11 811 -81 q 1069 18 1032 24 q 1075 13 1075 15 q 1043 -23 1075 11 q 989 -93 1011 -57 q 963 -167 967 -129 q 1022 -229 956 -229 q 1056 -224 1038 -229 q 1081 -217 1074 -219 q 1092 -218 1088 -215 q 1063 -321 1113 -262 q 939 -385 1013 -379 q 859 -371 893 -387 q 810 -326 825 -354 q 788 -272 794 -299 q 786 -225 782 -244 z "},"":{"ha":868,"x_min":36,"x_max":844,"o":"m 782 282 q 782 161 774 203 q 806 108 790 119 q 833 89 822 96 q 838 71 843 82 q 767 3 821 35 q 658 -28 714 -28 q 540 15 586 -28 q 489 132 494 57 q 372 11 438 50 q 244 -28 307 -28 q 117 36 165 -28 q 82 201 69 100 l 108 418 q 110 522 115 485 q 92 577 104 558 q 65 602 79 596 q 44 614 51 608 q 42 629 38 619 q 112 697 58 665 q 221 728 165 728 q 360 670 308 728 q 401 517 413 613 l 368 247 q 397 167 360 174 q 469 214 435 160 q 506 311 497 254 l 553 693 l 560 701 l 839 701 l 843 697 l 843 694 q 782 282 793 378 m 485 -225 q 657 -11 510 -81 q 768 18 731 24 q 774 13 774 15 q 742 -23 774 11 q 688 -93 710 -57 q 661 -167 665 -129 q 721 -229 654 -229 q 754 -224 736 -229 q 779 -217 772 -219 q 790 -218 786 -215 q 761 -321 811 -262 q 638 -385 711 -379 q 558 -371 592 -387 q 508 -326 524 -354 q 487 -272 493 -299 q 485 -225 481 -244 z "},"":{"ha":1392,"x_min":14,"x_max":1400,"o":"m 1071 971 q 1140 1018 1072 999 q 1317 1008 1242 1047 q 1389 850 1399 965 q 1342 699 1379 769 q 1242 570 1304 628 q 1137 480 1181 513 q 1024 403 1093 447 q 1017 349 1021 381 q 1002 223 1014 318 q 975 7 990 128 q 968 0 974 1 l 669 0 l 664 4 l 664 7 l 672 65 q 718 413 710 328 l 511 913 q 397 847 428 910 q 415 735 367 783 q 442 710 425 721 q 465 692 458 699 q 469 672 472 686 q 447 632 467 657 q 377 579 425 603 q 256 556 329 556 q 118 599 182 556 q 40 695 64 636 q 22 815 15 754 q 61 924 28 875 q 219 1047 119 1008 q 413 1082 319 1085 q 608 1056 506 1079 q 756 1017 710 1033 q 824 990 803 1000 q 832 982 831 990 l 951 558 q 1001 636 979 594 q 1036 716 1024 678 q 1056 790 1049 754 q 1067 858 1064 826 q 1071 913 1069 890 q 1072 953 1072 936 q 1071 971 1071 969 m 892 1264 q 911 1247 892 1264 q 924 1179 929 1229 q 872 1094 918 1129 q 769 1060 826 1060 q 677 1094 713 1060 q 647 1179 642 1129 q 697 1264 653 1229 q 799 1299 742 1299 q 892 1264 856 1299 m 1215 1264 q 1233 1247 1215 1264 q 1246 1179 1251 1229 q 1195 1094 1240 1129 q 1093 1060 1150 1060 q 1001 1094 1036 1060 q 971 1179 965 1129 q 1021 1264 976 1229 q 1122 1299 1065 1299 q 1215 1264 1179 1299 z "},"":{"ha":889,"x_min":26,"x_max":889,"o":"m 861 185 q 861 160 863 175 q 854 117 860 146 q 835 65 849 89 q 795 15 821 42 q 729 -26 769 -12 q 631 -47 689 -39 q 493 -37 572 -54 q 398 -16 465 -33 q 281 11 331 1 q 163 21 232 21 q 36 0 93 21 l 32 1 q 32 7 31 3 l 28 203 q 44 233 29 218 q 187 402 60 250 q 382 626 314 554 q 426 666 400 646 q 475 701 451 686 q 519 729 499 717 q 551 749 539 742 l 564 756 q 97 715 367 768 q 74 711 82 713 q 65 718 68 711 q 57 742 64 719 q 45 802 50 765 q 43 878 40 839 q 70 956 46 918 q 140 1013 94 993 q 288 1040 196 1043 q 451 1021 381 1038 q 643 990 522 1004 q 878 986 764 976 q 888 979 886 986 l 889 778 q 885 766 889 772 q 879 756 882 760 l 876 753 q 708 559 781 644 q 607 440 635 474 q 549 372 579 406 q 483 303 519 339 q 443 270 472 292 q 390 233 414 249 l 367 217 l 515 222 q 638 232 583 224 q 719 251 692 240 q 765 273 747 263 q 792 290 783 283 q 804 294 800 296 q 842 254 825 288 q 861 185 858 221 m 731 1301 q 401 1047 617 1119 q 390 1046 393 1044 q 343 1114 361 1072 q 346 1124 339 1118 q 475 1262 429 1199 q 556 1419 521 1325 q 564 1422 558 1424 q 729 1313 669 1396 q 731 1301 736 1307 z "},"":{"ha":740,"x_min":13,"x_max":729,"o":"m 688 181 q 616 11 693 63 q 435 -22 539 -40 q 362 -8 431 -22 q 252 13 293 7 q 143 18 211 18 q 22 4 75 18 l 18 7 q 19 10 18 8 q 17 60 19 29 q 15 117 14 92 q 21 168 15 142 q 143 317 38 236 q 357 456 249 399 q 476 506 396 475 q 58 481 256 519 q 51 486 53 481 q 45 528 47 490 q 67 622 43 565 q 149 707 90 678 q 251 730 190 729 q 378 718 313 731 q 533 699 444 706 q 719 699 622 692 q 726 693 726 699 q 726 610 724 671 q 719 529 728 550 q 619 397 701 465 q 419 267 538 328 q 279 196 315 213 l 426 196 q 521 200 479 196 q 584 211 563 204 q 624 224 606 218 q 646 236 642 231 q 657 243 650 242 q 665 240 664 244 q 688 181 685 222 m 632 1021 q 303 767 518 839 q 292 765 294 764 q 244 833 263 792 q 247 843 240 838 q 376 981 331 918 q 457 1139 422 1044 q 465 1142 460 1143 q 631 1032 571 1115 q 632 1021 638 1026 z "},"":{"ha":889,"x_min":26,"x_max":889,"o":"m 861 185 q 861 160 863 175 q 854 117 860 146 q 835 65 849 89 q 795 15 821 42 q 729 -26 769 -12 q 631 -47 689 -39 q 493 -37 572 -54 q 398 -16 465 -33 q 281 11 331 1 q 163 21 232 21 q 36 0 93 21 l 32 1 q 32 7 31 3 l 28 203 q 44 233 29 218 q 187 402 60 250 q 382 626 314 554 q 426 666 400 646 q 475 701 451 686 q 519 729 499 717 q 551 749 539 742 l 564 756 q 97 715 367 768 q 74 711 82 713 q 65 718 68 711 q 57 742 64 719 q 45 802 50 765 q 43 878 40 839 q 70 956 46 918 q 140 1013 94 993 q 288 1040 196 1043 q 451 1021 381 1038 q 643 990 522 1004 q 878 986 764 976 q 888 979 886 986 l 889 778 q 885 766 889 772 q 879 756 882 760 l 876 753 q 708 559 781 644 q 607 440 635 474 q 549 372 579 406 q 483 303 519 339 q 443 270 472 292 q 390 233 414 249 l 367 217 l 515 222 q 638 232 583 224 q 719 251 692 240 q 765 273 747 263 q 792 290 783 283 q 804 294 800 296 q 842 254 825 288 q 861 185 858 221 m 627 1249 q 645 1231 627 1249 q 658 1164 664 1214 q 607 1079 653 1114 q 504 1044 561 1044 q 412 1079 447 1044 q 382 1164 376 1114 q 432 1249 388 1214 q 533 1283 476 1283 q 627 1249 590 1283 z "},"":{"ha":740,"x_min":13,"x_max":729,"o":"m 688 181 q 616 11 693 63 q 435 -22 539 -40 q 362 -8 431 -22 q 252 13 293 7 q 143 18 211 18 q 22 4 75 18 l 18 7 q 19 10 18 8 q 17 60 19 29 q 15 117 14 92 q 21 168 15 142 q 143 317 38 236 q 357 456 249 399 q 476 506 396 475 q 58 481 256 519 q 51 486 53 481 q 45 528 47 490 q 67 622 43 565 q 149 707 90 678 q 251 730 190 729 q 378 718 313 731 q 533 699 444 706 q 719 699 622 692 q 726 693 726 699 q 726 610 724 671 q 719 529 728 550 q 619 397 701 465 q 419 267 538 328 q 279 196 315 213 l 426 196 q 521 200 479 196 q 584 211 563 204 q 624 224 606 218 q 646 236 642 231 q 657 243 650 242 q 665 240 664 244 q 688 181 685 222 m 540 971 q 558 953 540 971 q 571 886 576 936 q 519 801 565 836 q 417 767 474 767 q 324 801 360 767 q 294 886 289 836 q 344 971 300 936 q 446 1006 389 1006 q 540 971 503 1006 z "},"":{"ha":889,"x_min":26,"x_max":889,"o":"m 861 185 q 861 160 863 175 q 854 117 860 146 q 835 65 849 89 q 795 15 821 42 q 729 -26 769 -12 q 631 -47 689 -39 q 493 -37 572 -54 q 398 -16 465 -33 q 281 11 331 1 q 163 21 232 21 q 36 0 93 21 l 32 1 q 32 7 31 3 l 28 203 q 44 233 29 218 q 187 402 60 250 q 382 626 314 554 q 426 666 400 646 q 475 701 451 686 q 519 729 499 717 q 551 749 539 742 l 564 756 q 97 715 367 768 q 74 711 82 713 q 65 718 68 711 q 57 742 64 719 q 45 802 50 765 q 43 878 40 839 q 70 956 46 918 q 140 1013 94 993 q 288 1040 196 1043 q 451 1021 381 1038 q 643 990 522 1004 q 878 986 764 976 q 888 979 886 986 l 889 778 q 885 766 889 772 q 879 756 882 760 l 876 753 q 708 559 781 644 q 607 440 635 474 q 549 372 579 406 q 483 303 519 339 q 443 270 472 292 q 390 233 414 249 l 367 217 l 515 222 q 638 232 583 224 q 719 251 692 240 q 765 273 747 263 q 792 290 783 283 q 804 294 800 296 q 842 254 825 288 q 861 185 858 221 m 781 1333 q 808 1333 800 1340 q 801 1308 817 1326 l 557 1054 q 543 1049 551 1049 l 447 1049 q 439 1053 442 1049 l 250 1304 q 247 1328 239 1319 q 275 1329 254 1336 l 521 1243 l 781 1333 z "},"":{"ha":740,"x_min":13,"x_max":729,"o":"m 688 181 q 616 11 693 63 q 435 -22 539 -40 q 362 -8 431 -22 q 252 13 293 7 q 143 18 211 18 q 22 4 75 18 l 18 7 q 19 10 18 8 q 17 60 19 29 q 15 117 14 92 q 21 168 15 142 q 143 317 38 236 q 357 456 249 399 q 476 506 396 475 q 58 481 256 519 q 51 486 53 481 q 45 528 47 490 q 67 622 43 565 q 149 707 90 678 q 251 730 190 729 q 378 718 313 731 q 533 699 444 706 q 719 699 622 692 q 726 693 726 699 q 726 610 724 671 q 719 529 728 550 q 619 397 701 465 q 419 267 538 328 q 279 196 315 213 l 426 196 q 521 200 479 196 q 584 211 563 204 q 624 224 606 218 q 646 236 642 231 q 657 243 650 242 q 665 240 664 244 q 688 181 685 222 m 690 1056 q 718 1056 710 1063 q 711 1031 726 1049 l 467 776 q 453 771 461 771 l 357 771 q 349 775 351 771 l 160 1026 q 156 1050 149 1042 q 185 1051 164 1058 l 431 965 l 690 1056 z "},"":{"ha":585,"x_min":11,"x_max":586,"o":"m 549 768 l 311 858 l 46 772 q 18 774 24 765 q 26 797 13 782 l 276 1049 l 285 1053 l 381 1053 q 394 1047 389 1053 l 575 793 q 577 768 586 775 q 549 768 568 761 z "},"":{"ha":588,"x_min":11,"x_max":590,"o":"m 554 1056 q 582 1056 574 1063 q 575 1031 590 1049 l 331 776 q 317 771 325 771 l 221 771 q 213 775 215 771 l 24 1026 q 20 1050 13 1042 q 49 1051 28 1058 l 294 965 l 554 1056 z "},"":{"ha":615,"x_min":33,"x_max":642,"o":"m 617 1024 q 596 938 642 1010 q 467 815 546 860 q 308 769 389 769 q 159 815 228 769 q 61 938 90 861 q 60 1024 35 1010 q 85 1013 67 1026 q 128 978 103 999 q 207 942 153 958 q 328 925 261 925 q 433 936 383 925 q 512 963 482 947 q 564 993 542 978 q 599 1017 586 1008 q 617 1024 611 1026 z "},"":{"ha":290,"x_min":7,"x_max":296,"o":"m 258 971 q 276 953 258 971 q 289 886 294 936 q 238 801 283 836 q 135 767 192 767 q 42 801 78 767 q 13 886 7 836 q 63 971 18 936 q 164 1006 107 1006 q 258 971 221 1006 z "},"":{"ha":374,"x_min":7,"x_max":386,"o":"m 378 938 q 309 816 368 867 q 175 765 250 765 q 53 816 100 765 q 15 938 7 867 q 83 1058 24 1008 q 218 1108 143 1108 q 340 1058 293 1108 q 378 938 386 1008 m 251 993 q 243 1004 251 993 q 206 1015 235 1015 q 155 994 176 1015 q 129 938 133 972 q 142 879 125 903 q 186 856 158 856 q 237 879 214 856 q 264 938 260 903 q 251 993 268 971 z "},"":{"ha":332,"x_min":6,"x_max":336,"o":"m 10 -225 q 182 -11 35 -81 q 293 18 256 24 q 299 13 299 15 q 267 -23 299 11 q 213 -93 235 -57 q 186 -167 190 -129 q 246 -229 179 -229 q 279 -224 261 -229 q 304 -217 297 -219 q 315 -218 311 -215 q 286 -321 336 -262 q 163 -385 236 -379 q 83 -371 117 -387 q 33 -326 49 -354 q 12 -272 18 -299 q 10 -225 6 -244 z "},"":{"ha":696,"x_min":11,"x_max":704,"o":"m 681 1015 q 692 1004 688 1019 q 672 900 704 960 q 446 790 613 785 q 308 815 397 793 q 179 836 218 838 q 101 823 135 836 q 49 795 67 810 q 29 781 32 781 q 21 789 24 778 q 47 890 13 826 q 246 1010 111 1011 l 254 1010 q 402 983 321 1007 q 531 957 483 958 q 594 964 565 956 q 639 983 624 972 q 667 1003 654 993 q 681 1015 679 1014 z "},"":{"ha":713,"x_min":-7,"x_max":725,"o":"m 385 1021 q 56 767 271 839 q 44 765 47 764 q -3 833 15 792 q 0 843 -7 838 q 129 981 83 918 q 210 1139 175 1044 q 218 1142 213 1143 q 383 1032 324 1115 q 385 1021 390 1026 m 718 1021 q 389 767 604 839 q 378 765 381 764 q 329 833 350 790 q 332 843 325 838 q 461 981 415 918 q 543 1139 507 1044 q 551 1142 546 1143 q 717 1032 657 1115 q 718 1021 724 1026 z "},"":{"ha":1319,"x_min":17,"x_max":1347,"o":"m 1104 760 q 860 808 1029 760 q 831 585 840 663 l 1060 585 l 1064 583 q 1065 578 1067 582 l 1049 439 q 1040 432 1049 432 l 811 432 q 799 332 799 333 q 853 221 790 254 q 1003 199 917 188 q 1157 250 1089 210 q 1186 252 1179 263 q 1185 217 1193 242 q 1150 148 1176 186 q 1079 69 1124 110 q 961 3 1035 28 q 803 -18 888 -22 q 553 98 633 -10 q 493 360 474 206 l 503 435 l 560 892 l 558 892 q 460 872 499 894 q 410 816 421 849 q 403 752 400 783 q 421 706 406 721 q 447 681 431 692 q 471 663 464 669 q 475 642 478 657 q 453 603 472 628 q 381 550 429 574 q 260 526 333 526 q 122 569 186 526 q 30 724 43 625 q 67 894 17 824 q 162 978 99 944 q 284 1026 225 1013 q 421 1045 343 1040 q 532 1049 499 1050 q 604 1046 565 1049 q 799 1031 658 1043 q 1008 1015 940 1018 q 1160 1022 1075 1011 q 1288 1063 1244 1032 q 1324 1031 1310 1076 q 1311 879 1346 958 q 1104 760 1258 758 m 1158 1090 q 1137 1073 1158 1090 q 1061 1057 1115 1057 q 972 1090 1007 1057 q 943 1169 938 1122 q 990 1248 949 1215 q 1088 1281 1032 1281 q 1177 1248 1142 1281 q 1207 1169 1213 1215 q 1158 1090 1201 1122 m 861 1097 q 840 1080 861 1097 q 764 1064 818 1064 q 675 1097 710 1064 q 646 1176 640 1129 q 694 1255 651 1222 q 790 1288 736 1288 q 880 1255 844 1288 q 910 1176 915 1222 q 861 1097 904 1129 z "},"":{"ha":1446,"x_min":14,"x_max":1469,"o":"m 1118 1031 q 1376 950 1282 1032 q 1425 764 1469 868 q 1372 690 1406 718 q 1296 652 1339 661 q 1209 643 1253 643 q 1110 657 1165 643 q 1014 684 1056 671 q 918 718 972 697 q 872 586 890 675 q 909 581 886 583 q 1003 575 932 578 q 1132 583 1074 572 q 1136 581 1135 586 q 1138 576 1138 578 q 1142 559 1139 569 q 1145 520 1144 549 q 1138 469 1146 492 q 1106 424 1131 446 q 1040 394 1081 401 q 960 397 1007 389 q 885 414 914 404 l 856 425 q 878 242 844 318 q 988 154 911 165 q 996 153 990 153 q 1092 208 1061 153 q 1121 340 1122 264 q 1156 376 1122 361 q 1235 390 1189 390 q 1341 342 1306 390 q 1369 232 1376 293 q 1242 48 1354 119 q 967 -22 1129 -24 q 919 -19 950 -22 q 705 65 797 -10 q 571 258 613 140 q 543 510 529 375 q 656 800 557 649 q 494 815 576 828 q 396 738 413 801 q 410 660 386 701 q 431 613 435 619 q 352 533 407 561 q 228 510 297 504 q 78 581 133 519 q 19 736 22 643 q 160 954 15 876 q 775 928 378 1068 q 1118 1031 926 1031 m 1168 831 q 1136 874 1182 863 q 1004 847 1074 889 q 990 838 997 843 q 1061 813 1025 822 q 1128 807 1097 804 q 1168 831 1160 810 z "},"":{"ha":1435,"x_min":4,"x_max":1458,"o":"m 1418 751 q 1299 642 1389 669 q 1115 633 1210 615 q 932 693 1019 650 q 953 650 933 671 q 1008 611 972 629 q 1072 582 1043 593 q 1143 556 1100 571 q 1413 254 1438 454 q 1353 113 1403 172 q 1229 22 1303 53 q 1077 -22 1156 -8 q 917 -32 999 -35 q 789 -16 851 -29 q 665 24 726 -3 q 568 101 604 51 q 535 218 532 151 q 588 334 538 283 q 721 385 638 385 q 814 363 768 385 q 868 328 860 342 q 868 313 869 319 q 862 288 867 306 q 856 256 857 269 q 899 149 847 182 q 1011 140 951 117 q 1081 226 1071 164 q 1073 277 1083 254 q 1033 322 1063 300 q 980 356 1003 343 q 907 391 957 368 q 836 425 857 414 q 688 511 722 482 q 604 706 596 586 q 626 794 606 749 q 478 807 549 825 q 389 724 407 789 q 392 671 381 697 q 416 626 403 644 q 425 599 429 607 q 342 519 401 549 q 222 496 283 490 q 90 542 143 503 q 21 635 38 581 q 11 747 4 689 q 56 856 18 804 q 153 938 94 908 q 733 918 379 1047 q 1083 1018 865 1021 q 1353 935 1250 1014 q 1418 751 1457 857 m 1135 818 q 1096 857 1144 846 q 982 844 1032 871 q 958 826 967 836 q 1031 801 996 811 q 1097 794 1065 792 q 1135 818 1128 797 z "},"":{"ha":864,"x_min":15,"x_max":885,"o":"m 878 992 l 882 990 q 882 985 883 989 l 761 7 q 753 0 760 0 l 451 0 l 447 1 q 447 7 446 3 q 576 911 533 586 q 479 906 524 921 q 414 862 435 890 q 390 799 393 833 q 415 736 386 765 q 442 711 425 722 q 465 694 458 700 q 469 673 472 688 q 447 633 467 658 q 377 581 425 604 q 256 557 329 557 q 118 600 182 557 q 40 697 64 638 q 22 816 15 756 q 61 925 28 876 q 190 1035 110 996 q 360 1078 269 1075 q 535 1075 450 1082 q 702 1046 621 1068 q 821 1011 783 1024 q 876 992 858 999 l 878 992 z "},"":{"ha":864,"x_min":15,"x_max":1057,"o":"m 878 992 l 882 990 q 882 985 883 989 l 761 7 q 753 0 760 0 l 451 0 l 447 1 q 447 7 446 3 q 576 911 533 586 q 479 906 524 921 q 414 862 435 890 q 390 799 393 833 q 415 736 386 765 q 442 711 425 722 q 465 694 458 700 q 469 673 472 688 q 447 633 467 658 q 377 581 425 604 q 256 557 329 557 q 118 600 182 557 q 40 697 64 638 q 22 816 15 756 q 61 925 28 876 q 190 1035 110 996 q 360 1078 269 1075 q 535 1075 450 1082 q 702 1046 621 1068 q 821 1011 783 1024 q 876 992 858 999 l 878 992 m 1001 1131 q 980 1115 1001 1131 q 904 1099 958 1099 q 815 1131 850 1099 q 786 1211 781 1164 q 833 1290 792 1257 q 931 1322 875 1322 q 1020 1290 985 1322 q 1050 1211 1056 1257 q 1001 1131 1044 1164 m 704 1138 q 683 1122 704 1138 q 607 1106 661 1106 q 518 1138 553 1106 q 489 1218 483 1171 q 537 1297 494 1264 q 633 1329 579 1329 q 723 1297 688 1329 q 753 1218 758 1264 q 704 1138 747 1171 z "},"":{"ha":864,"x_min":14,"x_max":882,"o":"m 878 990 l 882 983 l 794 289 q 666 -67 765 53 q 411 -187 567 -187 q 204 -119 282 -187 q 135 38 126 -51 q 198 167 143 125 q 322 210 253 210 q 393 201 358 210 q 431 185 428 193 q 431 167 433 179 q 420 131 428 156 q 408 86 413 106 q 431 -11 392 18 q 493 -3 464 -35 q 517 54 511 17 q 506 174 524 103 q 494 300 488 246 l 576 910 q 479 904 524 919 q 414 860 435 889 q 390 798 393 832 q 415 735 386 764 q 442 710 425 721 q 465 692 458 699 q 469 672 472 686 q 447 632 467 657 q 377 579 425 603 q 256 556 329 556 q 118 600 182 556 q 40 695 64 636 q 22 815 15 754 q 61 924 28 875 q 224 1047 119 1008 q 428 1082 329 1085 q 640 1057 528 1079 q 801 1018 751 1035 q 876 990 850 1001 l 878 990 z "},"":{"ha":1840,"x_min":18,"x_max":1872,"o":"m 1396 660 q 1752 592 1633 694 q 1851 326 1871 489 q 1713 61 1831 161 q 1401 -39 1594 -39 q 1219 -3 1296 -39 q 1104 92 1142 33 q 1052 217 1067 151 q 1046 354 1038 283 l 1115 881 q 1111 892 1117 893 q 1106 885 1108 892 q 1011 608 1057 729 q 903 365 965 486 q 776 164 842 244 q 624 31 710 83 q 442 -29 538 -22 q 131 63 243 -43 q 47 306 19 168 q 127 441 65 396 q 267 486 189 486 q 380 460 324 486 q 428 410 436 433 q 493 257 385 268 q 666 360 571 249 q 834 624 761 472 q 950 922 907 775 q 766 925 836 936 q 658 891 696 914 q 608 838 619 868 q 599 781 596 807 q 614 739 601 756 q 642 715 625 726 q 666 699 658 704 q 671 679 674 693 q 649 639 668 665 q 578 586 626 610 q 460 558 531 563 q 319 594 390 553 q 215 739 242 639 q 229 917 188 839 q 383 1049 281 1013 q 651 1086 486 1086 q 1433 1014 907 1086 l 1439 1006 l 1396 660 m 1550 299 q 1517 463 1563 410 q 1374 499 1471 517 l 1346 271 q 1360 172 1340 214 q 1431 129 1381 129 q 1508 182 1475 129 q 1550 299 1542 235 z "},"":{"ha":1831,"x_min":14,"x_max":1839,"o":"m 1360 672 q 1718 603 1597 707 q 1819 339 1839 500 q 1682 74 1799 174 q 1372 -26 1565 -26 q 1192 10 1268 -26 q 1079 105 1117 46 q 1028 230 1042 164 q 1022 367 1014 296 l 1028 407 l 803 407 l 754 7 q 746 0 753 0 l 460 0 l 456 1 q 456 7 454 3 q 513 445 458 31 q 576 911 568 860 q 478 906 524 921 q 413 861 433 890 q 390 798 393 832 q 415 735 386 764 q 442 710 425 721 q 465 693 458 699 q 469 673 472 688 q 447 633 467 658 q 398 594 431 613 q 321 563 365 575 q 222 558 276 550 q 118 600 167 567 q 40 697 64 638 q 22 816 15 756 q 61 925 28 876 q 218 1045 117 1007 q 416 1083 319 1083 q 623 1060 513 1082 q 785 1023 733 1039 q 874 993 838 1007 l 876 992 l 878 992 l 882 990 q 882 985 883 989 l 832 607 l 1053 607 l 1097 985 q 1106 992 1099 992 l 1394 992 l 1399 990 q 1399 985 1400 989 l 1360 672 m 1518 311 q 1484 476 1531 422 q 1340 511 1438 529 l 1329 426 l 1311 283 q 1328 185 1306 228 q 1401 142 1351 142 q 1478 194 1446 142 q 1518 311 1510 247 z "},"":{"ha":1346,"x_min":17,"x_max":1381,"o":"m 1257 283 q 1256 180 1250 217 q 1274 124 1261 143 q 1301 99 1288 106 q 1322 87 1314 93 q 1325 71 1329 81 q 1251 5 1308 36 q 1139 -26 1194 -26 q 1000 31 1051 -26 q 961 185 949 89 l 988 414 q 950 493 996 481 q 871 461 908 506 q 836 379 843 428 l 793 7 q 785 0 792 0 l 483 0 l 479 1 q 479 7 478 3 l 597 907 q 403 839 435 950 q 406 785 394 811 q 430 740 417 758 q 439 714 443 722 q 356 635 415 664 q 236 611 297 606 q 104 656 157 618 q 35 749 51 694 q 25 861 18 803 q 70 972 32 919 q 167 1053 108 1024 q 383 1102 268 1103 q 586 1074 497 1101 q 798 1022 675 1046 q 1024 1007 921 997 q 1089 1028 1065 1011 q 1117 1065 1113 1046 q 1124 1100 1121 1083 q 1132 1119 1126 1117 q 1201 1131 1163 1133 q 1274 1110 1239 1128 q 1335 1063 1308 1093 q 1372 989 1363 1032 q 1368 892 1381 946 q 883 821 1308 667 q 853 539 879 785 q 974 651 900 614 q 1111 689 1049 689 q 1241 625 1192 689 q 1278 460 1290 561 l 1257 283 z "},"":{"ha":1307,"x_min":15,"x_max":1333,"o":"m 1326 1017 l 1332 1013 l 1332 1010 q 1265 456 1311 772 q 878 -15 1203 46 q 699 -15 786 -33 q 553 58 611 3 q 499 196 496 114 q 550 310 501 268 q 674 353 599 353 q 756 330 718 353 q 788 286 793 307 q 772 172 756 213 q 833 132 789 132 q 972 439 940 132 q 974 457 972 444 l 975 469 q 840 382 919 403 q 692 383 761 361 q 574 472 622 406 q 531 635 526 539 l 556 899 q 560 938 558 925 q 467 932 507 947 q 408 888 426 917 q 392 825 390 860 q 421 763 394 790 q 448 738 431 749 q 472 721 465 726 q 476 701 479 715 q 454 661 474 686 q 383 608 431 632 q 261 583 335 583 q 124 628 188 583 q 28 783 42 685 q 68 953 15 882 q 231 1075 126 1038 q 433 1110 335 1113 q 643 1085 532 1108 q 803 1045 754 1061 q 878 1018 851 1029 l 879 1018 l 883 1017 q 883 1011 885 1015 l 843 683 q 873 601 842 625 q 940 600 904 578 q 983 678 975 622 l 1021 1010 q 1029 1017 1022 1017 l 1326 1017 m 1251 1181 q 1074 1063 1193 1096 q 841 1063 956 1031 q 682 1181 726 1094 q 673 1284 657 1231 q 738 1365 689 1338 q 840 1382 786 1394 q 915 1324 893 1369 q 890 1179 951 1250 q 900 1139 867 1154 q 1021 1139 960 1111 q 1043 1179 1060 1156 q 1049 1325 994 1254 q 1138 1383 1082 1371 q 1235 1365 1193 1394 q 1282 1285 1276 1336 q 1251 1181 1288 1235 z "},"":{"ha":1397,"x_min":18,"x_max":1424,"o":"m 1418 1014 l 1424 1006 q 1318 6 1349 554 q 1313 0 1318 0 l 988 0 l 983 6 l 1025 315 l 863 315 q 426 -29 676 -10 q 244 -10 326 -36 q 112 65 161 17 q 41 177 63 114 q 32 306 19 240 q 112 441 50 396 q 253 486 174 486 q 365 460 308 486 q 414 408 421 433 q 478 257 365 268 q 651 360 556 249 q 819 624 746 472 q 935 921 892 775 q 751 924 821 935 q 644 890 682 913 q 593 837 606 868 q 583 781 581 806 q 599 739 586 756 q 626 715 610 726 q 651 699 643 704 q 656 679 658 693 q 633 639 653 665 q 563 585 611 608 q 444 558 514 563 q 304 594 375 553 q 200 738 228 638 q 214 917 172 839 q 369 1049 267 1013 q 638 1086 471 1086 q 812 1080 713 1086 q 1010 1063 911 1074 q 1187 1043 1110 1053 q 1338 1024 1264 1033 q 1418 1014 1413 1015 m 1092 883 q 950 493 1017 644 l 1049 493 l 1100 881 q 1098 892 1101 892 q 1092 883 1094 892 z "},"":{"ha":1367,"x_min":17,"x_max":1394,"o":"m 842 679 q 1215 620 1088 717 q 1326 347 1342 524 q 1174 77 1311 183 q 849 -18 1038 -29 q 668 26 743 -11 q 556 120 593 63 q 504 241 518 178 q 497 375 490 304 q 561 907 507 479 l 558 907 q 460 887 499 910 q 410 831 421 864 q 401 767 399 799 q 419 719 404 735 q 447 694 429 706 q 471 678 464 683 q 475 658 478 672 q 453 618 472 643 q 403 578 436 597 q 325 547 369 560 q 226 542 281 533 q 122 585 171 551 q 30 740 43 640 q 67 910 17 839 q 162 994 99 960 q 284 1042 225 1028 q 421 1060 343 1056 q 532 1065 499 1065 q 604 1061 565 1064 q 767 1049 658 1058 q 943 1035 875 1039 q 1094 1030 1011 1031 q 1236 1041 1178 1029 q 1329 1078 1294 1053 q 1368 1046 1351 1092 q 1363 892 1394 972 q 1132 760 1308 761 q 860 821 1057 760 l 842 679 m 1024 319 q 980 483 1038 428 q 822 519 922 539 q 794 292 794 347 q 817 192 794 235 q 890 150 840 150 q 979 202 943 150 q 1024 319 1015 254 z "},"":{"ha":1375,"x_min":17,"x_max":1356,"o":"m 1196 564 q 1317 458 1279 531 q 1344 307 1356 385 q 1252 113 1328 190 q 1076 4 1176 35 q 860 -18 975 -26 q 702 18 769 -11 q 597 91 635 47 q 535 192 558 135 q 511 313 513 250 q 517 440 510 375 q 583 921 551 681 q 425 865 468 914 q 405 808 406 844 q 422 746 404 772 q 449 721 432 732 q 472 703 465 710 q 476 683 479 697 q 454 643 474 668 q 384 590 432 614 q 263 567 336 567 q 125 610 189 567 q 31 765 44 665 q 68 935 17 864 q 660 1085 178 1101 q 1191 989 1032 1072 q 1340 769 1350 906 q 1320 694 1336 729 q 1284 637 1304 658 q 1244 600 1264 615 q 1210 578 1224 585 l 1196 572 q 1196 564 1186 567 m 1043 322 q 997 457 1056 418 q 835 469 938 496 l 817 329 q 910 154 793 149 q 999 203 965 157 q 1043 322 1033 249 m 1049 768 q 1017 876 1063 840 q 892 910 972 913 l 858 635 q 1049 768 1031 629 z "},"":{"ha":1267,"x_min":14,"x_max":1286,"o":"m 1231 1075 q 1265 1042 1251 1089 q 1253 882 1286 965 q 1060 758 1203 757 q 807 811 978 758 l 710 7 q 701 0 708 0 l 400 0 l 396 1 q 396 7 394 3 l 525 881 q 519 882 522 881 q 428 862 464 885 q 381 806 392 839 q 374 741 371 772 q 390 694 376 710 q 415 669 400 681 q 438 653 431 658 q 442 633 444 647 q 419 593 439 618 q 353 540 399 564 q 240 515 308 515 q 111 560 171 515 q 38 655 60 596 q 22 774 15 714 q 58 885 28 835 q 169 983 96 946 q 332 1028 242 1019 q 467 1038 422 1038 q 563 1035 513 1038 q 647 1028 581 1033 q 736 1023 713 1024 q 820 1019 760 1022 q 909 1016 881 1015 q 987 1017 938 1017 q 1065 1022 1036 1017 q 1128 1033 1093 1026 q 1188 1050 1164 1039 q 1231 1075 1213 1061 z "},"":{"ha":1296,"x_min":15,"x_max":1294,"o":"m 564 1046 q 852 996 724 1038 q 1062 895 981 954 q 1197 760 1143 836 q 1272 610 1250 683 q 1294 464 1294 538 q 1256 259 1294 356 q 1151 97 1218 163 q 999 -1 1083 32 q 812 -15 914 -33 q 613 74 710 3 q 606 68 610 72 q 599 63 601 64 q 458 -7 538 11 q 354 -22 406 -22 q 142 47 231 -22 q 64 225 53 115 q 103 317 69 276 q 192 380 138 358 q 326 386 246 401 q 494 315 407 371 q 554 900 567 554 q 453 879 492 903 q 406 822 415 856 q 401 756 397 788 q 421 706 406 724 q 449 679 432 692 q 469 661 465 667 q 469 642 474 656 q 443 603 464 629 q 373 550 421 574 q 251 526 325 526 q 114 569 178 526 q 29 722 40 621 q 118 939 15 849 q 564 1046 260 1063 m 315 211 q 340 174 314 188 q 401 170 365 160 q 460 218 436 181 q 385 249 419 244 q 334 242 351 254 q 315 211 317 231 m 713 204 q 926 290 839 168 q 1004 556 1004 400 q 906 806 1003 725 q 860 835 885 824 q 713 204 835 421 z "},"":{"ha":1319,"x_min":17,"x_max":1347,"o":"m 1104 757 q 860 806 1029 757 q 845 690 856 772 q 831 582 835 607 l 1060 582 l 1067 578 l 1067 575 l 1049 436 q 1040 429 1049 429 l 811 429 q 799 329 799 331 q 853 218 790 251 q 1003 196 917 185 q 1158 247 1090 207 q 1187 249 1179 260 q 1186 214 1194 239 q 1151 145 1178 183 q 1080 66 1125 107 q 961 0 1035 25 q 803 -21 888 -25 q 553 95 633 -12 q 493 357 474 203 l 560 889 l 558 889 q 460 869 499 892 q 411 813 422 846 q 403 749 400 781 q 421 703 406 718 q 447 678 431 689 q 471 660 464 667 q 475 640 478 654 q 453 600 472 625 q 381 547 429 571 q 260 524 333 524 q 124 567 188 524 q 30 722 43 622 q 67 892 17 821 q 162 976 99 942 q 284 1024 225 1010 q 421 1042 343 1038 q 532 1047 499 1047 q 604 1043 565 1046 q 799 1028 658 1040 q 1008 1012 940 1015 q 1160 1019 1075 1008 q 1288 1060 1244 1029 q 1324 1028 1310 1074 q 1311 876 1346 956 q 1104 757 1258 756 z "},"":{"ha":1361,"x_min":10,"x_max":1378,"o":"m 1365 144 q 1363 101 1378 140 q 1301 19 1347 61 q 1196 -29 1256 -22 q 982 40 1054 -44 q 892 289 910 125 q 885 433 885 338 q 843 428 879 432 l 790 7 q 782 0 789 0 l 494 0 l 490 1 q 490 7 489 3 l 542 422 q 440 371 485 413 q 373 275 394 329 q 356 160 351 221 q 394 57 360 100 q 379 25 404 46 q 306 -14 354 4 q 210 -32 257 -32 q 64 41 117 -32 q 28 204 11 114 q 300 522 65 426 l 78 983 q 85 992 75 992 l 396 992 l 404 985 l 529 578 q 561 581 554 581 l 610 985 q 618 992 611 992 l 907 992 l 911 990 q 911 985 913 989 l 861 576 q 959 619 914 579 q 1028 715 1004 660 q 1051 833 1053 771 q 1018 939 1050 896 q 1033 969 1010 949 q 1099 1008 1056 990 q 1186 1025 1143 1025 q 1320 963 1272 1025 q 1357 811 1368 900 q 1111 506 1333 615 q 1117 472 1113 494 q 1141 399 1122 449 q 1185 304 1160 349 q 1259 214 1211 260 q 1365 144 1307 168 z "},"":{"ha":922,"x_min":29,"x_max":929,"o":"m 707 524 q 842 433 792 496 q 881 281 892 371 q 824 135 869 197 q 710 42 779 74 q 569 -5 642 10 q 418 -19 497 -19 q 291 -6 356 -19 q 164 34 226 7 q 66 113 101 61 q 39 232 31 164 q 96 346 47 303 q 218 389 144 389 q 294 375 260 389 q 331 347 329 361 q 328 330 331 342 q 323 301 326 318 q 318 268 319 283 q 338 174 311 211 q 406 136 364 136 q 494 167 456 136 q 547 240 533 197 q 558 326 561 283 q 516 400 554 369 q 415 431 478 431 l 379 431 l 374 435 l 374 440 l 392 586 q 400 593 393 593 l 463 593 q 601 678 564 593 q 599 813 633 749 q 504 868 568 868 q 419 835 458 868 q 374 746 381 801 q 364 667 365 669 q 322 638 357 653 q 247 624 288 624 q 135 668 174 624 q 107 782 97 713 q 160 902 115 850 q 268 982 204 954 q 396 1023 332 1010 q 522 1036 460 1036 q 642 1027 583 1036 q 756 994 700 1018 q 852 937 813 971 q 910 849 892 903 q 918 726 929 794 q 849 593 904 640 q 707 524 794 546 z "},"":{"ha":1392,"x_min":14,"x_max":1410,"o":"m 1403 968 l 1410 964 l 1410 961 l 1290 7 q 1282 0 1290 0 l 975 0 l 968 4 l 968 7 l 1063 529 l 1099 647 l 1092 647 q 987 433 1063 593 q 850 139 911 272 l 789 6 q 769 0 785 0 l 746 0 l 731 0 l 460 0 l 454 4 l 454 7 l 513 438 l 576 915 q 479 910 524 925 q 414 866 435 894 q 390 803 393 838 q 415 740 386 769 q 442 715 425 726 q 465 698 458 704 q 469 677 472 692 q 447 638 467 663 q 376 585 424 608 q 254 561 328 561 q 118 606 181 561 q 40 701 64 642 q 22 820 15 760 q 61 929 28 881 q 225 1054 119 1015 q 440 1086 331 1093 q 649 1060 549 1079 q 813 1019 749 1042 l 876 996 l 876 993 l 876 990 l 815 522 l 775 360 l 781 358 l 1099 982 l 1108 989 l 1403 968 z "},"":{"ha":1392,"x_min":14,"x_max":1410,"o":"m 1403 968 l 1410 964 l 1410 961 l 1290 7 q 1282 0 1290 0 l 975 0 l 968 4 l 968 7 l 1063 529 l 1099 647 l 1092 647 q 987 433 1063 593 q 850 139 911 272 l 789 6 q 769 0 785 0 l 746 0 l 731 0 l 460 0 l 454 4 l 454 7 l 513 438 l 576 915 q 479 910 524 925 q 414 866 435 894 q 390 803 393 838 q 415 740 386 769 q 442 715 425 726 q 465 698 458 704 q 469 677 472 692 q 447 638 467 663 q 376 585 424 608 q 254 561 328 561 q 118 606 181 561 q 40 701 64 642 q 22 820 15 760 q 61 929 28 881 q 225 1054 119 1015 q 440 1086 331 1093 q 649 1060 549 1079 q 813 1019 749 1042 l 876 996 l 876 993 l 876 990 l 815 522 l 775 360 l 781 358 l 1099 982 l 1108 989 l 1403 968 m 1314 1181 q 1137 1063 1256 1096 q 903 1063 1018 1031 q 744 1181 789 1094 q 735 1284 719 1231 q 800 1365 751 1338 q 902 1382 849 1394 q 978 1324 956 1369 q 953 1179 1014 1250 q 963 1139 929 1154 q 1083 1139 1022 1111 q 1106 1179 1122 1156 q 1111 1325 1057 1254 q 1200 1383 1144 1371 q 1297 1365 1256 1394 q 1344 1285 1339 1336 q 1314 1181 1350 1235 z "},"":{"ha":1344,"x_min":14,"x_max":1346,"o":"m 1333 146 q 1331 102 1346 142 q 1269 21 1315 63 q 1164 -28 1224 -21 q 950 42 1022 -43 q 860 290 878 126 q 851 435 856 318 q 813 429 846 433 l 761 7 q 753 0 760 0 l 457 0 l 453 1 q 453 7 451 3 q 518 487 460 78 q 578 910 576 896 q 481 904 525 919 q 415 860 436 889 q 390 797 394 831 q 415 733 386 763 q 442 708 425 719 q 465 692 458 697 q 469 672 472 686 q 447 632 467 657 q 398 592 431 611 q 321 561 365 574 q 222 557 276 549 q 118 599 167 565 q 40 695 64 636 q 22 815 15 754 q 61 924 28 875 q 218 1044 117 1006 q 416 1081 319 1082 q 623 1059 513 1081 q 785 1022 733 1038 q 874 992 838 1006 l 876 990 l 878 990 l 882 989 q 882 983 883 988 l 832 578 q 931 618 886 578 q 999 714 976 658 q 1021 833 1022 769 q 986 940 1019 896 q 1001 971 978 950 q 1067 1009 1024 992 q 1154 1026 1111 1026 q 1288 964 1240 1026 q 1325 813 1336 901 q 1079 507 1300 615 q 1085 473 1081 496 q 1108 400 1090 450 q 1152 306 1126 350 q 1226 215 1178 261 q 1333 146 1274 169 z "},"":{"ha":1397,"x_min":18,"x_max":1439,"o":"m 1333 7 q 1328 0 1333 0 l 1003 0 l 999 6 l 1047 364 l 1115 881 q 1111 892 1117 893 q 1106 885 1108 892 q 1011 608 1057 729 q 903 365 965 486 q 776 164 842 244 q 624 31 710 83 q 442 -29 538 -22 q 131 63 243 -43 q 47 306 19 168 q 127 441 65 396 q 267 486 189 486 q 380 460 324 486 q 428 410 436 433 q 493 257 385 268 q 666 360 571 249 q 834 624 761 472 q 950 922 907 775 q 766 925 836 936 q 658 891 696 914 q 608 838 619 868 q 599 781 596 807 q 614 739 601 756 q 642 715 625 726 q 666 699 658 704 q 671 679 674 693 q 649 639 668 665 q 578 586 626 610 q 460 558 531 563 q 319 594 390 553 q 215 739 242 639 q 229 917 188 839 q 383 1049 281 1013 q 651 1086 486 1086 q 1433 1014 907 1086 l 1439 1006 q 1333 7 1364 554 z "},"":{"ha":1883,"x_min":18,"x_max":1910,"o":"m 1903 968 l 1907 967 q 1908 961 1910 965 l 1790 7 q 1788 2 1790 4 q 1782 0 1785 0 l 1781 0 l 1474 0 l 1469 1 q 1468 7 1467 3 l 1558 529 l 1596 647 l 1589 647 q 1485 433 1560 593 q 1349 139 1410 272 l 1288 6 q 1269 0 1285 0 l 931 0 l 926 6 l 1014 732 q 1012 744 1015 743 q 1006 736 1008 744 q 951 565 975 636 q 894 410 928 493 q 830 269 861 326 q 755 155 799 213 q 664 62 711 97 q 556 2 617 26 q 426 -28 496 -22 q 244 -8 326 -35 q 112 67 161 18 q 41 178 63 115 q 32 307 19 242 q 117 442 50 397 q 264 488 183 488 q 342 475 300 488 q 410 444 383 463 q 432 410 436 426 q 489 258 383 269 q 611 315 547 253 q 729 483 675 378 q 827 699 783 588 q 904 922 871 810 q 724 926 790 938 q 623 892 657 914 q 582 838 589 869 q 581 782 575 807 q 599 740 586 757 q 626 717 610 728 q 651 700 643 706 q 656 681 658 694 q 633 640 653 667 q 563 587 611 610 q 445 558 514 564 q 304 594 376 553 q 200 740 228 639 q 214 918 172 840 q 369 1051 267 1014 q 638 1088 471 1088 q 850 1078 729 1088 q 1058 1056 971 1068 q 1235 1032 1144 1044 q 1335 1018 1325 1019 l 1340 1010 q 1254 304 1290 710 l 1597 982 l 1608 989 l 1903 968 z "},"":{"ha":1392,"x_min":14,"x_max":1411,"o":"m 1406 992 l 1410 990 q 1410 985 1411 989 l 1289 7 q 1281 0 1288 0 l 993 0 l 989 1 q 989 7 988 3 l 1040 407 l 803 407 l 754 7 q 746 0 753 0 l 460 0 l 456 1 q 456 7 454 3 l 578 915 l 578 911 q 480 906 525 921 q 414 861 435 890 q 390 798 393 832 q 415 735 386 764 q 442 710 425 721 q 465 693 458 699 q 469 673 472 688 q 447 633 467 658 q 398 594 431 613 q 321 563 365 575 q 222 558 276 550 q 118 600 167 567 q 40 697 64 638 q 22 816 15 756 q 61 925 28 876 q 218 1045 117 1007 q 416 1083 319 1083 q 623 1060 513 1082 q 785 1023 733 1039 q 874 993 838 1007 l 876 992 l 878 992 l 882 990 q 882 985 883 989 l 832 607 l 1065 607 l 1108 985 q 1117 992 1110 992 l 1406 992 z "},"":{"ha":1014,"x_min":19,"x_max":1040,"o":"m 1021 465 q 840 101 994 246 q 468 -32 686 -43 q 137 138 254 -21 q 46 515 19 297 q 228 880 74 733 q 597 1015 383 1026 q 844 930 740 1008 q 994 729 949 851 q 1021 465 1039 607 m 365 499 q 365 333 358 415 q 406 188 372 250 q 488 124 439 126 q 624 233 564 119 q 701 482 685 346 q 702 651 710 568 q 661 795 694 733 q 578 860 628 857 q 443 749 504 864 q 365 499 382 635 z "},"":{"ha":1417,"x_min":13,"x_max":1439,"o":"m 1183 1067 q 1353 1043 1267 1103 q 1424 874 1439 983 l 1321 7 q 1313 0 1319 0 l 1011 0 l 1007 1 q 1007 7 1006 3 l 1101 754 q 893 824 975 793 l 788 7 q 781 0 786 1 l 479 0 l 474 4 l 474 7 l 607 907 q 477 913 538 929 q 399 838 417 896 q 412 761 388 801 q 432 713 436 721 q 349 633 408 663 q 228 611 289 604 q 76 676 131 619 q 17 803 21 733 q 53 944 14 874 q 167 1051 92 1015 q 347 1101 251 1093 q 533 1093 443 1110 q 731 1038 622 1076 q 1074 968 965 957 q 1139 988 1115 972 q 1167 1019 1163 1003 q 1174 1049 1171 1035 q 1183 1067 1178 1064 z "},"":{"ha":1303,"x_min":14,"x_max":1311,"o":"m 667 1078 q 959 1049 835 1076 q 1149 985 1083 1022 q 1253 894 1215 947 q 1301 801 1292 842 q 1308 714 1310 760 q 1291 619 1307 667 q 1238 522 1275 572 q 1147 435 1201 472 q 1006 375 1093 397 q 813 357 919 353 l 810 356 l 767 7 q 760 0 765 1 l 461 0 l 456 4 l 456 7 l 528 526 l 575 919 q 422 853 468 915 q 415 739 375 790 q 443 714 426 725 q 467 697 460 703 q 470 676 474 690 q 447 636 467 661 q 378 583 425 607 q 258 560 331 560 q 118 604 185 560 q 22 761 28 664 q 142 965 15 879 q 667 1078 314 1082 m 1013 713 q 984 843 1019 792 q 882 901 949 894 l 829 500 q 958 563 908 500 q 1013 713 1007 626 z "}}}
